<svg viewBox="0 0 24 24" version="1.1" xmlns="http://www.w3.org/2000/svg">
    <path d="M12.1334805,1 C14.9498068,1 17.2410463,3.29716667 17.2410463,6.12072358 L17.2410463,6.12072358 L17.241,7.429 L19.4088749,7.42918699 C19.8275291,7.42918699 20.184046,7.7201178 20.2764582,8.11946978 L20.2949618,8.23093496 L21.4233655,19.216313 C21.5193021,20.1975935 21.2024571,21.1693496 20.5538702,21.8859593 C19.9142482,22.5942073 18.9987247,23 18.0431496,23 L18.0431496,23 L5.92717069,23 C4.96713548,23 4.04300402,22.5858902 3.39147351,21.8644959 C2.73998759,21.142565 2.42104628,20.1785447 2.51667069,19.2193089 L2.51667069,19.2193089 L3.67540309,8.22856504 C3.72321529,7.7742561 4.10571294,7.42918699 4.56122233,7.42918699 L4.56122233,7.42918699 L7.025,7.429 L7.02587022,6.12072358 C7.02587022,3.36956556 9.20120129,1.1181495 11.9179087,1.00450105 Z M18.6049876,9.21579268 L5.36296881,9.21579268 L4.28920121,19.4021057 C4.24406506,19.854939 4.3981613,20.3172967 4.71264252,20.6656301 C5.02712374,21.0139187 5.46987726,21.2137073 5.9274829,21.2137073 L5.9274829,21.2137073 L18.0431496,21.2137073 C18.5037435,21.2137073 18.9268726,21.026439 19.2345298,20.6864675 C19.5501707,20.3372398 19.6983796,19.8787724 19.650835,19.3955772 L19.650835,19.3955772 L18.6049876,9.21579268 Z M12.1334805,2.78629268 C10.2994899,2.78629268 8.80758853,4.28202439 8.80758853,6.12072358 L8.80758853,6.12072358 L8.807,7.429 L15.459,7.429 L15.4596402,6.12072358 C15.4596402,4.34331436 14.0652911,2.88638921 12.3156976,2.79123576 Z"></path>
    <path d="M15.9934581,12.4596256 C15.6474089,12.1134581 15.0861281,12.1134581 14.7400197,12.4596256 L10.7820296,16.4176158 L9.26009852,14.8956847 C8.91399015,14.5495172 8.35270936,14.5495172 8.00654187,14.8956847 C7.66037438,15.2418522 7.66037438,15.8030739 8.00654187,16.1492414 L10.1552512,18.2979507 C10.328335,18.4710345 10.5552118,18.5576355 10.7819704,18.5576355 C11.0087291,18.5576355 11.235665,18.4710936 11.4086897,18.2979507 L15.993399,13.7132414 C16.3396256,13.3670148 16.3396256,12.8057931 15.9934581,12.4596256 Z"></path>
</svg>