<svg viewBox="0 0 24 24" version="1.1" xmlns="http://www.w3.org/2000/svg">
    <g transform="translate(1.000000, 1.000000)">
        <path d="M12.8978424,8.81362917 C12.8978424,6.5614624 11.0656281,4.72924805 8.81362917,4.72924805 C6.5614624,4.72924805 4.72924805,6.5614624 4.72924805,8.81362917 C4.72924805,11.0656281 6.5614624,12.8978424 8.81362917,12.8978424 C11.0656281,12.8978424 12.8978424,11.0656281 12.8978424,8.81362917 Z M8.81362917,11.1780853 C7.50962829,11.1780853 6.44900515,10.1174622 6.44900515,8.81362917 C6.44900515,7.50962829 7.50962829,6.44900515 8.81362917,6.44900515 C10.1174622,6.44900515 11.1780853,7.50962829 11.1780853,8.81362917 C11.1780853,10.1174622 10.1174622,11.1780853 8.81362917,11.1780853 Z M18.311737,10.7282562 L12.5342865,16.6688538 C12.2041321,17.0005188 11.9520264,17.4102326 11.8048248,17.854187 L11.7919007,17.8934632 L10.8606872,21.987915 L14.9660492,21.0687866 L15.0066681,21.0553589 C15.4529724,20.9076538 15.8647003,20.6540375 16.1972046,20.321701 L21.9738159,14.3819427 L18.311737,10.7282562 Z M14.9777985,19.1091766 C14.9455719,19.1408997 14.9116669,19.171112 14.8764191,19.1994782 L13.6618805,17.9841003 C13.6910858,17.9480133 13.7219696,17.913269 13.7548675,17.8805389 L18.3302002,13.1757965 L19.5573273,14.400238 L14.9777985,19.1091766 Z M8.81362917,19.7651214 L8.81362917,22 L8.27316282,21.5634308 C8.1895752,21.4959564 6.20310973,19.8829498 4.18827819,17.5698548 C1.40907289,14.3790894 3.66373598e-15,11.5149536 3.66373598e-15,9.05717467 L3.66373598e-15,8.81362917 C3.66373598e-15,3.95379639 3.95379639,-2.44249065e-15 8.81362917,-2.44249065e-15 C13.6732941,-2.44249065e-15 17.6270905,3.95379639 17.6270905,8.81362917 L17.6270905,9.00497434 L15.5071869,11.1738892 C15.7602997,10.4575195 15.9073334,9.74534606 15.9073334,9.05717467 L15.9073334,8.81362917 C15.9073334,4.90196227 12.7251282,1.7197571 8.81362917,1.7197571 C4.90196227,1.7197571 1.7197571,4.90196227 1.7197571,8.81362917 L1.7197571,9.05717467 C1.7197571,13.2105407 7.07104492,18.2382202 8.81362917,19.7651214 L8.81362917,19.7651214 Z"></path>
    </g>
</svg>