<svg viewBox="0 0 24 24" version="1.1" xmlns="http://www.w3.org/2000/svg">
    <path d="M4.00554526,1.00001629 C3.73873592,0.998494396 3.48238064,1.10367436 3.29352945,1.29216578 C3.10467826,1.48065721 2.99900073,1.73682036 3.00000727,2.00364798 L3.00000727,21.9963142 C2.99899062,22.2631484 3.10466368,22.5193213 3.29351598,22.7078209 C3.48236828,22.8963205 3.73872934,23.0015057 4.00554526,22.9999837 L19.9964094,22.9999837 C20.2628877,23.0009832 20.5187448,22.8955674 20.7071734,22.7071248 C20.8956019,22.5186822 21.0010076,22.2628083 20.9999947,21.9963142 L20.9999947,6.01818373 C20.9997014,5.80276006 20.9298496,5.59318995 20.8008328,5.42067864 L17.7959571,1.40614288 C17.6091172,1.15294979 17.3139887,1.00249486 16.9993425,1.00001629 L4.00554526,1.00001629 Z M5.00131325,2.9994772 L16.4975539,2.9994772 L19.0006414,6.35013941 L19.0006414,21.000485 L5.00131325,21.000485 L5.00131325,2.9994772 Z M11.9892621,6.98469245 C11.728623,6.98886567 11.479909,7.09464866 11.2961297,7.27952458 L7.29548487,11.2804163 C7.03499318,11.5318806 6.93079968,11.9045363 7.02309187,12.2546497 C7.11538405,12.6047631 7.38973869,12.8776193 7.74033699,12.9679773 C8.09093529,13.0583353 8.46298643,12.9520742 8.71299001,12.690179 L10.999352,10.4036799 L10.999352,15.9881547 C10.999352,16.5408307 11.4473579,16.9888631 12.0000012,16.9888631 C12.5526446,16.9888631 13.0006505,16.5408307 13.0006505,15.9881547 L13.0006505,10.3939287 L15.2948221,12.690179 C15.5391635,12.9754806 15.9227915,13.099745 16.2879925,13.0118857 C16.6531934,12.9240263 16.9383356,12.6388704 17.0261938,12.2736489 C17.114052,11.9084273 16.9897993,11.5247752 16.7045172,11.2804163 L12.7058249,7.27952458 C12.5163057,7.08892676 12.2580307,6.98266919 11.9892621,6.98469245 L11.9892621,6.98469245 Z"></path>
</svg>