<svg viewBox="0 0 9 14" version="1.1" xmlns="http://www.w3.org/2000/svg">
    <path d="M2.82726621,7.00295935 L8.15854345,1.76536585 C8.30534069,1.62149593 8.38609655,1.42913821 8.38609655,1.22403252 C8.38609655,1.01881301 8.30534069,0.826569106 8.15854345,0.682471545 L7.69138759,0.223772358 C7.54482207,0.0794471545 7.34889931,0 7.14011586,0 C6.93133241,0 6.73564138,0.0794471545 6.58896,0.223772358 L0.241224828,6.45957724 C0.0939641379,6.60413008 0.0133241379,6.79728455 0.0139003442,7.00261789 C0.0133241379,7.20886179 0.0938482759,7.40178862 0.241224828,7.54645528 L6.58305103,13.7762276 C6.72973241,13.9205528 6.92542345,14 7.13432276,14 C7.34310621,14 7.53879724,13.9205528 7.68559448,13.7762276 L8.15263448,13.3175285 C8.45654069,13.0189756 8.45654069,12.5329593 8.15263448,12.2345203 L2.82726621,7.00295935"></path>
</svg>
