<svg width="22px" height="22px" viewBox="0 0 22 22" version="1.1" xmlns="http://www.w3.org/2000/svg">
    <g stroke="none" stroke-width="1">
        <g transform="translate(-571.000000, -418.000000)">
            <g transform="translate(18.000000, 388.000000)">
                <g transform="translate(512.000000, 0.000000)">
                    <g transform="translate(40.000000, 29.000000)">
                        <path d="M17.4841707,1 C20.5059512,1 22.9788049,3.47285366 22.9788049,6.49463415 L22.9788049,6.49463415 L22.9788049,17.484439 C22.9788049,20.5054146 20.5059512,22.9790732 17.4841707,22.9790732 L17.4841707,22.9790732 L6.49490244,22.9790732 C3.47312195,22.9790732 1.00026829,20.5054146 1.00026829,17.484439 L1.00026829,17.484439 L1.00026829,6.49463415 C1.00026829,3.47285366 3.47312195,1 6.49490244,1 L6.49490244,1 Z M17.4841707,2.83163415 L6.49490244,2.83163415 C4.4753561,2.83163415 2.83190244,4.47481951 2.83190244,6.49463415 L2.83190244,6.49463415 L2.83190244,17.484439 C2.83190244,19.5037171 4.4753561,21.147439 6.49490244,21.147439 L6.49490244,21.147439 L17.4841707,21.147439 C19.5045756,21.147439 21.1471707,19.5037171 21.1471707,17.484439 L21.1471707,17.484439 L21.1471707,6.49463415 C21.1471707,4.47481951 19.5045756,2.83163415 17.4841707,2.83163415 L17.4841707,2.83163415 Z M11.9895366,6.49463415 C15.0239268,6.49463415 17.4841707,8.9542878 17.4841707,11.9892683 C17.4841707,15.023122 15.0239268,17.484439 11.9895366,17.484439 C8.9542878,17.484439 6.49490244,15.023122 6.49490244,11.9892683 C6.49490244,8.9542878 8.9542878,6.49463415 11.9895366,6.49463415 Z M11.9895366,8.32626829 C9.96666341,8.32626829 8.32653659,9.96585854 8.32653659,11.9892683 C8.32653659,14.012678 9.96666341,15.6528049 11.9895366,15.6528049 C14.0124098,15.6528049 15.6525366,14.012678 15.6525366,11.9892683 C15.6525366,9.96585854 14.0124098,8.32626829 11.9895366,8.32626829 Z M17.9429512,4.663 C18.7016019,4.663 19.3166098,5.27800788 19.3166098,6.03665854 C19.3166098,6.7953092 18.7016019,7.41031707 17.9429512,7.41031707 C17.1843006,7.41031707 16.5692927,6.7953092 16.5692927,6.03665854 C16.5692927,5.27800788 17.1843006,4.663 17.9429512,4.663 Z"></path>
                    </g>
                </g>
            </g>
        </g>
    </g>
</svg>
