<svg viewBox="0 0 18 21" version="1.1" xmlns="http://www.w3.org/2000/svg">
    <path d="M9.54315476,11.906994 C14.0606231,11.906994 17.7358631,15.582234 17.7358631,20.0997024 C17.7358631,20.5969368 17.3327999,21 16.8355655,21 C16.3383311,21 15.9352679,20.5969368 15.9352679,20.0997024 C15.9352679,16.5750822 13.0677749,13.7075893 9.54315476,13.7075893 L8.19270833,13.7075893 C4.66808817,13.7075893 1.80059524,16.5750822 1.80059524,20.0997024 C1.80059524,20.5969368 1.39753199,21 0.900297619,21 C0.403063244,21 -4.4408921e-14,20.5969368 -4.4408921e-14,20.0997024 C-4.4408921e-14,15.582234 3.67523996,11.906994 8.19270833,11.906994 L9.54315476,11.906994 Z M8.9047619,4.4408921e-15 C11.7930476,4.4408921e-15 14.1428571,2.34980952 14.1428571,5.23809524 C14.1428571,8.12638095 11.7930476,10.4761905 8.9047619,10.4761905 C6.01647619,10.4761905 3.66666667,8.12638095 3.66666667,5.23809524 C3.66666667,2.34980952 6.01647619,4.4408921e-15 8.9047619,4.4408921e-15 Z M8.9047619,1.57142857 C6.8829619,1.57142857 5.23809524,3.21629524 5.23809524,5.23809524 C5.23809524,7.25989524 6.8829619,8.9047619 8.9047619,8.9047619 C10.9265619,8.9047619 12.5714286,7.25989524 12.5714286,5.23809524 C12.5714286,3.21629524 10.9265619,1.57142857 8.9047619,1.57142857 Z"></path>
</svg>
