<svg viewBox="0 0 20 13" version="1.1" xmlns="http://www.w3.org/2000/svg">
    <g stroke="none" stroke-width="1">
        <g transform="translate(-236.000000, -1177.000000)">
            <g transform="translate(236.000000, 1174.000000)">
                <g transform="translate(0.000000, 3.000000)">
                    <path d="M19.9967578,10.2180783 L18.3203516,10.2180783 C17.9942187,10.2180783 17.7298437,9.95306627 17.7298437,9.62614759 C17.7298437,9.29922892 17.9942187,9.03421687 18.3203516,9.03421687 L19.9519922,9.03421687 C19.8235156,7.71236747 19.4389062,6.46597289 18.8489453,5.34495783 L17.3990625,6.18604217 C17.093125,6.34337349 16.7610937,6.24219277 16.5921875,5.97025 C16.4288281,5.68726506 16.5252344,5.32518373 16.8074609,5.16143072 L18.2369922,4.33213253 C17.4884766,3.24389157 16.5314062,2.31118072 15.4232031,1.59242169 L14.5893359,3.0422741 C14.4270703,3.29921988 14.0840234,3.39566265 13.7828125,3.25943675 C13.5002734,3.09615361 13.4032812,2.73418976 13.5661719,2.45096988 L14.3953516,1.00934036 C13.2457812,0.444271084 11.9723047,0.0942108434 10.6266797,0.0107680723 L10.6266797,1.6749247 C10.6266797,2.00184337 10.3623047,2.26685542 10.0361719,2.26685542 C9.71003906,2.26685542 9.44566406,2.00184337 9.44566406,1.6749247 L9.44566406,0.00610843373 C8.09539062,0.0801144578 6.81632812,0.42238253 5.6609375,0.981304217 L6.48847656,2.4200753 C6.65136719,2.70329518 6.554375,3.06525904 6.27183594,3.22854217 C5.98558594,3.36629518 5.66136719,3.3096747 5.4653125,3.01137952 L4.62953125,1.55827711 C3.50917969,2.275 2.54113281,3.2095512 1.78378906,4.30217771 L3.21148437,5.13041867 C3.49375,5.29417169 3.59011719,5.65629217 3.42675781,5.93923795 C3.22320312,6.26631325 2.90914062,6.29192169 2.61988281,6.15503012 L1.16804687,5.31277108 C0.568398437,6.44208735 0.177734375,7.69971988 0.0480078125,9.03421687 L1.6796875,9.03421687 C2.00582031,9.03421687 2.27019531,9.29922892 2.27019531,9.62614759 C2.27019531,9.95306627 2.00582031,10.2180783 1.6796875,10.2180783 L0.0032421875,10.2180783 C0.0021484375,10.2180783 0.00109375,10.2179217 -2.22044605e-15,10.2179217 L-2.22044605e-15,12.1226175 C-2.22044605e-15,12.6038133 0.389140625,12.9938916 0.869179687,12.9938916 L1.91066406,12.9938916 C1.91066406,12.9924428 1.91042969,12.9910331 1.91042969,12.9895452 L1.91042969,11.8042349 C1.91042969,11.4773163 2.17480469,11.2123042 2.5009375,11.2123042 C2.82707031,11.2123042 3.09144531,11.4773163 3.09144531,11.8042349 L3.09144531,12.9895452 C3.09144531,12.990994 3.09125,12.9924428 3.09121094,12.9938916 L4.41128906,12.9938916 C4.41128906,12.9924428 4.41105469,12.9910331 4.41105469,12.9895452 L4.41105469,11.8042349 C4.41105469,11.4773163 4.67542969,11.2123042 5.0015625,11.2123042 C5.32769531,11.2123042 5.59207031,11.4773163 5.59207031,11.8042349 L5.59207031,12.9895452 C5.59207031,12.990994 5.591875,12.9924428 5.59183594,12.9938916 L6.911875,12.9938916 C6.911875,12.9924428 6.91164062,12.9910331 6.91164062,12.9895452 L6.91164062,11.8042349 C6.91164062,11.4773163 7.17601562,11.2123042 7.50214844,11.2123042 C7.82828125,11.2123042 8.09265625,11.4773163 8.09265625,11.8042349 L8.09265625,12.9895452 C8.09265625,12.990994 8.09246094,12.9924428 8.09242187,12.9938916 L9.41242187,12.9938916 C9.41242187,12.9924428 9.4121875,12.9910331 9.4121875,12.9895452 L9.4121875,11.8042349 C9.4121875,11.4773163 9.6765625,11.2123042 10.0026953,11.2123042 C10.3288281,11.2123042 10.5932031,11.4773163 10.5932031,11.8042349 L10.5932031,12.9895452 C10.5932031,12.990994 10.5930078,12.9924428 10.5929688,12.9938916 L11.9130469,12.9938916 C11.9130469,12.9924428 11.9128125,12.9910331 11.9128125,12.9895452 L11.9128125,11.8042349 C11.9128125,11.4773163 12.1771875,11.2123042 12.5033203,11.2123042 C12.8294531,11.2123042 13.0938281,11.4773163 13.0938281,11.8042349 L13.0938281,12.9895452 C13.0938281,12.990994 13.0936328,12.9924428 13.0935938,12.9938916 L14.4135938,12.9938916 C14.4135938,12.9924428 14.4133594,12.9910331 14.4133594,12.9895452 L14.4133594,11.8042349 C14.4133594,11.4773163 14.6777344,11.2123042 15.0038672,11.2123042 C15.33,11.2123042 15.594375,11.4773163 15.594375,11.8042349 L15.594375,12.9895452 C15.594375,12.990994 15.5941797,12.9924428 15.5941406,12.9938916 L16.9141797,12.9938916 C16.9141797,12.9924428 16.9139453,12.9910331 16.9139453,12.9895452 L16.9139453,11.8042349 C16.9139453,11.4773163 17.1783203,11.2123042 17.5044531,11.2123042 C17.8305859,11.2123042 18.0949609,11.4773163 18.0949609,11.8042349 L18.0949609,12.9895452 C18.0949609,12.990994 18.0947656,12.9924428 18.0947266,12.9938916 L19.1305859,12.9938916 C19.610625,12.9938916 19.9997656,12.6038133 19.9997656,12.1226175 L19.9997656,10.2179217 C19.9989063,10.2179217 19.9978516,10.2180783 19.9967578,10.2180783 L19.9967578,10.2180783 Z M15.2021094,9.27001807 L4.79789062,9.27001807 C4.42429687,9.27001807 4.140625,8.93111747 4.20722656,8.56261446 C4.70480469,5.80912048 7.11304687,3.71443675 10,3.71443675 C12.8869531,3.71443675 15.2951953,5.80915964 15.7927734,8.56261446 C15.859375,8.93107831 15.5757031,9.27001807 15.2021094,9.27001807 Z"></path>
                </g>
            </g>
        </g>
    </g>
</svg>
