<svg viewBox="0 0 20 20" version="1.1" xmlns="http://www.w3.org/2000/svg">
    <path d="M8.80757812,0 C3.95121094,0 0,3.95121094 0,8.80757812 C0,13.6642187 3.95121094,17.6151562 8.80757812,17.6151562 C13.6642187,17.6151562 17.6151562,13.6642187 17.6151562,8.80757812 C17.6151562,3.95121094 13.6642187,0 8.80757812,0 Z M8.80757812,15.9891797 C4.84769531,15.9891797 1.62601562,12.7675 1.62601562,8.80761719 C1.62601562,4.84773437 4.84769531,1.62601562 8.80757812,1.62601562 C12.7674609,1.62601562 15.9891406,4.84769531 15.9891406,8.80757812 C15.9891406,12.7674609 12.7674609,15.9891797 8.80757812,15.9891797 Z"></path>
    <path d="M18.9756428,17.6177045 L15.1005469,13.9509375 C14.7829297,13.6333203 14.2685547,13.6333203 13.9509375,13.9509375 C13.6333203,14.2682813 13.6333203,14.7832031 13.9509375,15.1005469 L17.8260334,18.7673139 C17.9848225,18.9261029 18.1927131,19.005517 18.4008381,19.005517 C18.6086897,19.005517 18.8168147,18.9261029 18.9756428,18.7673139 C19.29326,18.4499701 19.29326,17.9350483 18.9756428,17.6177045 Z"></path>
</svg>
