<svg viewBox="0 0 24 24" version="1.1" xmlns="http://www.w3.org/2000/svg">
    <g transform="translate(1.000000, 4.000000)">
        <path d="M21.8249333,7.03473333 C21.6299333,6.75013333 16.981,0.0651333333 11.0002,0.0651333333 C5.01833333,0.0651333333 0.37,6.7502 0.175,7.0348 C-0.0583333333,7.3754 -0.0583333333,7.82446667 0.175,8.16513333 C0.37,8.44966667 5.01833333,15.1348667 11.0002,15.1348667 C16.981,15.1348667 21.6299333,8.44973333 21.8249333,8.1652 C22.0583333,7.82453333 22.0583333,7.3754 21.8249333,7.03473333 Z M11.0002,13.1348667 C6.9812,13.1348667 3.4376,9.1106 2.24866667,7.59906667 C3.4356,6.08606667 6.96986667,2.06513333 11.0002,2.06513333 C15.0175333,2.06513333 18.5607333,6.08766667 19.7506667,7.59993333 C18.5602,9.11286667 15.0172667,13.1348667 11.0002,13.1348667 Z"></path>
        <path d="M11.0002,4.823 C9.46586667,4.823 8.2222,6.0648 8.2222,7.59993333 C8.2222,9.13513333 9.46586667,10.3769333 11.0002,10.3769333 C12.5335333,10.3769333 13.7781333,9.13513333 13.7781333,7.59993333 C13.7781333,6.0648 12.5335333,4.823 11.0002,4.823 Z"></path>
    </g>
</svg>