<svg viewBox="0 0 24 24" version="1.1" xmlns="http://www.w3.org/2000/svg">
    <path d="M20.25,1 C21.7661523,1 23,2.23384766 23,3.75 L23,3.75 L23,20.25 C23,21.7661523 21.7661523,23 20.25,23 L20.25,23 L3.75,23 C2.23384766,23 1,21.7661523 1,20.25 L1,20.25 L1,3.75 C1,2.23384766 2.23384766,1 3.75,1 L3.75,1 Z M20.25,2.83334766 L3.75,2.83334766 C3.24494531,2.83334766 2.83334766,3.24490234 2.83334766,3.75 L2.83334766,3.75 L2.83334766,20.25 C2.83334766,20.756 3.24490234,21.1666523 3.75,21.1666523 L3.75,21.1666523 L20.25,21.1666523 C20.7550547,21.1666523 21.1666523,20.756 21.1666523,20.25 L21.1666523,20.25 L21.1666523,3.75 C21.1666523,3.24494531 20.7550977,2.83334766 20.25,2.83334766 L20.25,2.83334766 Z M6.15169531,16.6566523 C6.49084766,16.5191523 6.89419531,16.60075 7.15084766,16.8491523 C7.23334766,16.9408047 7.2975,17.0325 7.34334766,17.1516523 C7.39834766,17.2616523 7.41665234,17.3808477 7.41673828,17.5 C7.41673828,17.7475 7.32504297,17.9766953 7.15089062,18.1508477 C6.97669531,18.3240977 6.74754297,18.4166953 6.50004297,18.4166953 C6.25254297,18.4166953 6.02334766,18.3240977 5.84919531,18.1508477 C5.675,17.9766523 5.58334766,17.7475 5.58334766,17.5 C5.58334766,17.3808047 5.61084766,17.2616523 5.65669531,17.1516523 C5.70254297,17.0416523 5.76669531,16.9408047 5.84919531,16.8491523 C5.94084766,16.7666523 6.04169531,16.7025 6.15169531,16.6566523 Z M17.5,16.5833477 C18.006,16.5833477 18.4166523,16.9930977 18.4166523,17.5 C18.4166523,18.0069023 18.006,18.4166523 17.5,18.4166523 L17.5,18.4166523 L10.1666523,18.4166523 C9.66065234,18.4166523 9.25,18.0069023 9.25,17.5 C9.25,16.9930977 9.66065234,16.5833477 10.1666523,16.5833477 L10.1666523,16.5833477 Z M6.15169531,11.1566523 C6.37169531,11.065 6.62834766,11.065 6.84834766,11.1566523 C6.95834766,11.2025 7.05919531,11.2666523 7.15084766,11.3491523 C7.1875,11.395 7.22419531,11.4408047 7.26084766,11.4866523 C7.2975,11.5416523 7.325,11.5966523 7.34334766,11.6516523 C7.37084766,11.7066523 7.38919531,11.7616523 7.39834766,11.8166523 C7.4075,11.8808477 7.41665234,11.945 7.41673828,12 C7.41673828,12.2383477 7.31589062,12.4766953 7.15089062,12.6508477 C6.97669531,12.8158477 6.73839062,12.9166953 6.50004297,12.9166953 C6.26169531,12.9166953 6.02334766,12.8158477 5.84919531,12.6508477 C5.68419531,12.4766523 5.58334766,12.2383477 5.58334766,12 C5.58334766,11.945 5.59254297,11.8808047 5.60169531,11.8166523 C5.61084766,11.7616523 5.62919531,11.7066523 5.65669531,11.6516523 C5.67504297,11.5966523 5.70254297,11.5416523 5.73919531,11.4866523 C5.77584766,11.4408047 5.81254297,11.395 5.84919531,11.3491523 C5.94084766,11.2666523 6.04169531,11.2025 6.15169531,11.1566523 Z M17.5,11.0833477 C18.006,11.0833477 18.4166523,11.494 18.4166523,12 C18.4166523,12.506 18.006,12.9166523 17.5,12.9166523 L17.5,12.9166523 L10.1666523,12.9166523 C9.66065234,12.9166523 9.25,12.506 9.25,12 C9.25,11.494 9.66065234,11.0833477 10.1666523,11.0833477 L10.1666523,11.0833477 Z M6.15169531,5.65665234 C6.31669531,5.58332219 6.5,5.565 6.68334766,5.60165234 C6.73834766,5.61080469 6.79334766,5.62915234 6.84834766,5.65665234 C6.90334766,5.675 6.95834766,5.7025 7.01334766,5.73915234 C7.05919531,5.77580469 7.105,5.8125 7.15084766,5.84915234 C7.23334766,5.94080469 7.2975,6.0325 7.34334766,6.15165234 C7.38915234,6.26165234 7.41665234,6.38084766 7.41673828,6.5 C7.41673828,6.73834766 7.31589062,6.97669531 7.15089062,7.15084766 C7.10504297,7.1875 7.05923828,7.22419531 7.01339062,7.26084766 C6.95839062,7.2975 6.90339062,7.325 6.84839062,7.34334766 C6.79339062,7.37084766 6.73839062,7.38919531 6.68339062,7.39834766 C6.61919531,7.40754297 6.55504297,7.41669531 6.50004297,7.41669531 C6.26169531,7.41669531 6.02334766,7.31584766 5.84919531,7.15084766 C5.76669531,7.05919531 5.70254297,6.9675 5.65669531,6.84834766 C5.61084766,6.73834766 5.58334766,6.61919531 5.58334766,6.5 C5.58334766,6.38080469 5.61084766,6.26165234 5.65669531,6.15165234 C5.70254297,6.0325 5.76669531,5.94080469 5.84919531,5.84915234 C5.94084766,5.76665234 6.04169531,5.7025 6.15169531,5.65665234 Z M17.5,5.58334766 C18.006,5.58334766 18.4166523,5.994 18.4166523,6.5 C18.4166523,7.006 18.006,7.41665234 17.5,7.41665234 L17.5,7.41665234 L10.1666523,7.41665234 C9.66065234,7.41665234 9.25,7.006 9.25,6.5 C9.25,5.994 9.66065234,5.58334766 10.1666523,5.58334766 L10.1666523,5.58334766 Z"></path>
</svg>