<svg viewBox="0 0 19 22" version="1.1" xmlns="http://www.w3.org/2000/svg">
    <path d="M9.66337324,6.43929354e-14 C12.4796995,6.43929354e-14 14.770939,2.29716667 14.770939,5.12072358 L14.770939,5.12072358 L14.7708927,6.429 L16.9387676,6.42918699 C17.3574218,6.42918699 17.7139387,6.7201178 17.8063509,7.11946978 L17.8248545,7.23093496 L18.9532582,18.216313 C19.0491948,19.1975935 18.7323498,20.1693496 18.0837629,20.8859593 C17.4441408,21.5942073 16.5286174,22 15.5730423,22 L15.5730423,22 L3.45706338,22 C2.49702817,22 1.57289671,21.5858902 0.921366197,20.8644959 C0.269880282,20.142565 -0.0490610329,19.1785447 0.0465633803,18.2193089 L0.0465633803,18.2193089 L1.20529577,7.22856504 C1.25310798,6.7742561 1.63560563,6.42918699 2.09111502,6.42918699 L2.09111502,6.42918699 L4.55489269,6.429 L4.55576291,5.12072358 C4.55576291,2.36956556 6.73109398,0.1181495 9.44780137,0.00450104897 Z M16.1348803,8.21579268 L2.8928615,8.21579268 L1.8190939,18.4021057 C1.77395775,18.854939 1.92805399,19.3172967 2.24253521,19.6656301 C2.55701643,20.0139187 2.99976995,20.2137073 3.45737559,20.2137073 L3.45737559,20.2137073 L15.5730423,20.2137073 C16.0336362,20.2137073 16.4567653,20.026439 16.7644225,19.6864675 C17.0800634,19.3372398 17.2282723,18.8787724 17.1807277,18.3955772 L17.1807277,18.3955772 L16.1348803,8.21579268 Z M9.66337324,1.78629268 C7.82938263,1.78629268 6.33748122,3.28202439 6.33748122,5.12072358 L6.33748122,5.12072358 L6.33689269,6.429 L12.9888927,6.429 L12.9895329,5.12072358 C12.9895329,3.34331436 11.5951838,1.88638921 9.84559029,1.79123576 Z"></path>
</svg>
