<?xml version="1.0" encoding="UTF-8"?>
<svg width="14px" height="14px" viewBox="0 0 14 14" version="1.1" xmlns="http://www.w3.org/2000/svg" xmlns:xlink="http://www.w3.org/1999/xlink">
    <title>Shape</title>
    <g id="Item" stroke="none" stroke-width="1" fill="none" fill-rule="evenodd">
        <g id="Item-375" transform="translate(-16.000000, -858.000000)" fill="#000000" fill-rule="nonzero">
            <g id="Group-2" transform="translate(16.000000, 855.000000)">
                <g id="price-tag" transform="translate(0.000000, 3.000000)">
                    <path d="M13.5949074,6.72732407 L7.14907407,0.281490741 C6.95138889,0.0643611111 6.7537037,-0.0166574074 6.55277778,0.00278703704 L1.4162037,0.00278703704 C1.02083333,0.00278703704 0.683796296,0.161583333 0.424537037,0.420842593 L0.424537037,0.420842593 C0.165277778,0.680101852 0.00648148148,1.03658333 0.00648148148,1.41250926 L0.00648148148,6.54908333 C0.00648148148,6.74676852 0.0842592593,6.9444537 0.285185185,7.14537963 L6.73101852,13.5911806 C7.2462963,14.1064583 8.0985787,14.1259028 8.61388889,13.5911806 L11.0930556,11.1120139 L13.5722222,8.63284722 C14.1101204,8.09491667 14.1101204,7.24260185 13.5949074,6.72732407 Z M4.21296296,4.20926852 C3.63935185,4.78287963 2.70601852,4.78287963 2.12916667,4.20926852 C1.55231481,3.63565741 1.55555556,2.70232407 2.12916667,2.12547222 C2.70277778,1.54862037 3.63611111,1.55186111 4.21296296,2.12547222 C4.78978241,2.69908333 4.78978241,3.63241667 4.21296296,4.20926852 Z" id="Shape"></path>
                </g>
            </g>
        </g>
    </g>
</svg>