<svg viewBox="0 0 24 21" version="1.1" xmlns="http://www.w3.org/2000/svg">
    <path d="M5.3,20.3 C5.4,19.2 6.2,19 7.7,19 L11.3,19 L11.3,4.9 L11.2,4.9 C10.5,4.6 10,4.1 9.7,3.4 L9.7,3.3 L5.3,3.3 L8.3,10.9 C8.3,10.9 8.3,11.1 8.3,11.2 C8.3,13.5 6.4,15.3 4.2,15.3 C1.9,15.3 0.1,13.5 0.1,11.2 L0.1,11.2 C0.1,11 0.1,10.9 0.1,10.9 L3.5,2.3 C3.7,2.1 4,1.9 4.3,1.9 L9.7,1.9 L9.7,1.8 C10,0.8 11,0.2 12,0.2 C13,0.2 13.9,0.8 14.3,1.8 L14.3,1.9 L19.7,1.9 C20,1.9 20.3,2.1 20.4,2.3 L23.8,10.9 C23.8,10.9 23.8,11.1 23.8,11.2 C23.8,13.5 21.9,15.3 19.7,15.3 C17.4,15.3 15.6,13.5 15.6,11.2 L15.6,11.2 C15.6,11 15.6,10.9 15.6,10.9 L18.6,3.3 L14.2,3.3 L14.2,3.4 C14,4.1 13.4,4.6 12.7,4.9 L12.6,4.9 L12.6,19 L16.2,19 C17.7,19 18.5,19.2 18.6,20.3 L5.3,20.3 Z M17.1,12.1 C17.5,13.2 18.5,13.9 19.7,13.9 C20.9,13.9 21.9,13.2 22.3,12.1 L22.4,11.9 L17.1,11.9 L17.1,12.1 Z M1.7,12.1 C2.1,13.2 3.1,13.9 4.3,13.9 C5.5,13.9 6.5,13.2 6.9,12.1 L7,11.9 L1.6,11.9 L1.7,12.1 Z M17.3,10.4 L22.1,10.4 L19.7,4.4 L17.3,10.4 Z M1.9,10.4 L6.7,10.4 L4.3,4.4 L1.9,10.4 Z M12,1.6 C11.4,1.6 11,2.1 11,2.6 C11,3.2 11.5,3.6 12,3.6 C12.5,3.6 13,3.1 13,2.6 C13,2 12.6,1.6 12,1.6 Z"></path>
</svg>
