<svg width="22px" height="22px" viewBox="0 0 22 22" version="1.1" xmlns="http://www.w3.org/2000/svg">
    <g stroke="none" stroke-width="1">
        <g transform="translate(-531.000000, -418.000000)">
            <g transform="translate(18.000000, 388.000000)">
                <g transform="translate(512.000000, 0.000000)">
                    <g transform="translate(0.000000, 29.000000)">
                        <path d="M17.4841707,1 L6.49490244,1 C3.47312195,1 1.00026829,3.47285366 1.00026829,6.49463415 L1.00026829,17.484439 C1.00026829,20.5054146 3.47312195,22.9790732 6.49490244,22.9790732 L17.4841707,22.9790732 C20.5059512,22.9790732 22.9788049,20.5054146 22.9788049,17.484439 L22.9788049,6.49463415 C22.9788049,3.47285366 20.5059512,1 17.4841707,1 Z M21.1471707,17.484439 C21.1471707,19.5037171 19.5045756,21.147439 17.4841707,21.147439 L6.49490244,21.147439 C4.4753561,21.147439 2.83190244,19.5037171 2.83190244,17.484439 L2.83190244,6.49463415 C2.83190244,4.47481951 4.4753561,2.83163415 6.49490244,2.83163415 L17.4841707,2.83163415 C19.5045756,2.83163415 21.1471707,4.47481951 21.1471707,6.49463415 L21.1471707,17.484439 Z"></path>
                        <g stroke-width="1" transform="translate(9.000000, 6.000000)">
                            <path d="M0.22076129,6.3912 L1.53615484,6.3912 L1.53615484,11.8064516 C1.53615484,11.9133677 1.6227871,12 1.72970323,12 L3.96,12 C4.06691613,12 4.15354839,11.9133677 4.15354839,11.8064516 L4.15354839,6.41670968 L5.66570323,6.41670968 C5.76402581,6.41670968 5.84674839,6.34292903 5.85797419,6.24526452 L6.08763871,4.25163871 C6.09394839,4.1967871 6.07656774,4.14185806 6.03987097,4.10070968 C6.00313548,4.05952258 5.95056774,4.03594839 5.89540645,4.03594839 L4.15362581,4.03594839 L4.15362581,2.78624516 C4.15362581,2.40952258 4.35646452,2.21849032 4.75656774,2.21849032 C4.8135871,2.21849032 5.89540645,2.21849032 5.89540645,2.21849032 C6.00232258,2.21849032 6.08895484,2.13181935 6.08895484,2.02494194 L6.08895484,0.194980645 C6.08895484,0.0880645161 6.00232258,0.00143225806 5.89540645,0.00143225806 L4.32592258,0.00143225806 C4.31485161,0.000890322581 4.29027097,0 4.25403871,0 C3.98171613,0 3.03514839,0.0534580645 2.28743226,0.741329032 C1.45896774,1.5036 1.57412903,2.41629677 1.60165161,2.57454194 L1.60165161,4.03590968 L0.22076129,4.03590968 C0.113845161,4.03590968 0.0272129032,4.12254194 0.0272129032,4.22945806 L0.0272129032,6.1976129 C0.0272129032,6.30452903 0.113845161,6.3912 0.22076129,6.3912 Z"></path>
                        </g>
                    </g>
                </g>
            </g>
        </g>
    </g>
</svg>
