<svg id="ico" viewBox="0 0 24 24" xmlns="http://www.w3.org/2000/svg">
<g>
<path d="M0.846054 7.07279C0.846054 7.63961 1.27953 8.07322 1.84648 8.07322H3.28038C3.71386 9.50712 5.04772 10.5742 6.64827 10.5742C8.24883 10.5742 9.58268 9.50712 10.0162 8.07322H21.4205C21.9873 8.07322 22.4209 7.63974 22.4209 7.07279C22.4209 6.50584 21.9875 6.07236 21.4205 6.07236H9.98285C9.54938 4.63846 8.21552 3.57143 6.61497 3.57143C5.01441 3.57143 3.68055 4.63846 3.24708 6.07236H1.81318C1.27953 6.07236 0.846054 6.53927 0.846054 7.07279ZM6.61497 5.57215C7.44861 5.57215 8.11548 6.23902 8.11548 7.07266C8.11548 7.90631 7.44861 8.57317 6.61497 8.57317C5.78132 8.57317 5.11446 7.90631 5.11446 7.07266C5.11446 6.23902 5.78132 5.57215 6.61497 5.57215ZM0.846054 18.2381C0.846054 18.8049 1.27953 19.2385 1.84648 19.2385H12.7172C13.1507 20.6724 14.4845 21.7395 16.0851 21.7395C17.6856 21.7395 19.0195 20.6724 19.453 19.2385H21.4205C21.9873 19.2385 22.4209 18.805 22.4209 18.2381C22.4209 17.6713 21.9875 17.2377 21.4205 17.2377H19.4531C19.0196 15.8038 17.6858 14.7367 16.0852 14.7367C14.4846 14.7367 13.1508 15.8038 12.7173 17.2377H1.84648C1.27953 17.2377 0.846054 17.6711 0.846054 18.2381ZM16.0852 16.7375C16.9188 16.7375 17.5857 17.4043 17.5857 18.238C17.5857 19.0716 16.9188 19.7385 16.0852 19.7385C15.2516 19.7385 14.5847 19.0716 14.5847 18.238C14.5846 17.4044 15.2516 16.7375 16.0852 16.7375Z"/>
</g>
</svg>
