<svg viewBox="0 0 22 19" version="1.1" xmlns="http://www.w3.org/2000/svg">
    <path d="M10.5217391,18.6 C10.2347826,18.4086957 8.03478261,17.0695652 5.73913043,14.9652174 C2.48695652,12 0.765217391,8.32173913 0.765217391,5.93043478 C0.765217391,2.67826087 3.44347826,6.79649573e-15 6.69565217,6.79649573e-15 C8.13043478,6.79649573e-15 9.56521739,0.573913043 10.7130435,1.53043478 L11,1.72173913 L11.2869565,1.53043478 C12.3391304,0.573913043 13.773913,6.79649573e-15 15.3043478,6.79649573e-15 C18.5565217,6.79649573e-15 21.2347826,2.67826087 21.2347826,5.93043478 C21.2347826,8.32173913 19.6086957,12 16.2608696,14.9652174 C13.9652174,17.0695652 11.573913,18.5043478 11.4782609,18.6 L11,18.8869565 L10.5217391,18.6 Z M6.69565217,1.8173913 C4.4,1.8173913 2.48695652,3.73043478 2.48695652,6.02608696 C2.48695652,7.84347826 4.0173913,11.2347826 6.79130435,13.7217391 C8.32173913,15.0608696 9.85217391,16.2086957 10.7130435,16.7826087 L10.9043478,16.8782609 L11.0956522,16.7826087 C11.8608696,16.2086957 13.4869565,15.1565217 15.0173913,13.7217391 C17.7913043,11.2347826 19.3217391,7.84347826 19.3217391,6.02608696 C19.3217391,3.73043478 17.4086957,1.8173913 15.1130435,1.8173913 C13.6782609,1.8173913 12.4347826,2.48695652 11.6695652,3.73043478 L10.9043478,4.87826087 L10.1391304,3.73043478 C9.46956522,2.48695652 8.13043478,1.8173913 6.69565217,1.8173913 Z"></path>
</svg>
