<?xml version="1.0" encoding="UTF-8"?>
<svg width="150px" height="61px" viewBox="0 0 150 61" version="1.1" xmlns="http://www.w3.org/2000/svg" xmlns:xlink="http://www.w3.org/1999/xlink">
    <title>nlogo</title>
    <g id="UI" stroke="none" stroke-width="1" fill="none" fill-rule="evenodd">
        <g transform="translate(-90.000000, -111.000000)" fill-rule="nonzero" id="Top-768">
            <g transform="translate(75.000000, 82.000000)">
                <g id="nlogo">
                    <g transform="translate(15.000000, 29.000000)">
                        <g id="Group" fill="#000000">
                            <path d="M29.7073171,28.2183908 C30.0487805,30 29.7073171,32.0689655 29.1382114,33.8505747 C27.203252,39.9425287 21.6260163,44.1954023 16.0487805,46.7241379 C13.7154472,47.816092 11.0406504,48.7356322 8.4796748,49.2528736 C6.88617886,49.5402299 5.3495935,49.6551724 3.81300813,49.3678161 C3.01626016,49.2528736 0.796747967,49.0804598 0.284552846,48.3333333 C-0.227642276,47.7011494 0.341463415,47.7586207 0.967479675,47.6436782 C2.44715447,47.4137931 3.8699187,47.183908 5.23577236,46.7241379 C8.4796748,45.7471264 11.6097561,44.2528736 14.4552846,42.5287356 C17.1869919,40.862069 19.6910569,38.9655172 21.796748,36.6091954 C22.7642276,35.4597701 23.6747967,34.2528736 24.300813,32.8735632 C24.5853659,32.183908 25.2113821,30.1149425 24.9268293,29.8275862 C24.8130081,29.7701149 24.6422764,28.7931034 24.6422764,28.2183908 C24.699187,28.5632184 24.8699187,28.9655172 24.9268293,29.1954023 C24.8699187,28.6206897 24.7560976,28.045977 24.5284553,27.4712644 L24.5284553,27.6436782 C24.3577236,27.4137931 23.7886179,26.6666667 23.7317073,26.6666667 C23.2764228,26.2068966 22.7073171,25.9770115 22.0813008,25.9195402 C20.8292683,25.7471264 19.9756098,26.4367816 18.8943089,26.7241379 C17.5853659,27.0689655 13.8292683,24.6551724 15.3089431,23.5057471 C15.9918699,22.9885057 17.0162602,22.7586207 17.8130081,22.2413793 C19.0650407,21.3218391 20.3170732,20.3448276 21.4552846,19.1954023 C22.7073171,17.9885057 23.7317073,16.6666667 24.7560976,15.2873563 C24.9837398,14.9425287 26.6341463,12.0689655 26.9186992,12.1264368 C26.9186992,12.1264368 26.5203252,13.045977 26.5203252,13.1034483 C27.0894309,12.0114943 27.6585366,10.9195402 28.0569106,9.82758621 L28.0569106,9.77011494 L28.1138211,9.71264368 L28.1707317,9.54022989 C28.8536585,7.98850575 29.4796748,4.82758621 28.1138211,4.48275862 C27.203252,4.25287356 26.1219512,5.57471264 25.5528455,6.14942529 C22.6504065,9.02298851 20.1463415,12.4712644 17.9268293,15.9195402 C16.6747967,17.8735632 15.4796748,19.8275862 14.2845528,21.8390805 C13.5447154,23.045977 12.5772358,24.0229885 12.0650407,25.2298851 C10.4715447,28.9655172 8.82113821,32.5862069 7.56910569,36.4942529 C6.94308943,38.5057471 6.54471545,40.5172414 6.20325203,42.5862069 L6.03252033,42.2988506 C4.6097561,43.8505747 2.50406504,42.7586207 1.82113821,41.091954 C1.08130081,39.3678161 1.4796748,36.8965517 1.53658537,35.1149425 C1.6504065,32.9310345 1.76422764,30.7471264 2.27642276,28.6206897 C2.50406504,27.7586207 2.78861789,26.954023 3.07317073,26.1494253 C3.1300813,25.9195402 3.30081301,24.3678161 3.41463415,24.3103448 C3.41463415,24.3678161 3.41463415,24.4252874 3.47154472,24.4827586 C3.47154472,24.3678161 3.52845528,24.2528736 3.52845528,24.137931 C3.30081301,24.6551724 3.47154472,23.3333333 3.52845528,23.2758621 C3.64227642,22.7011494 3.81300813,22.1264368 3.98373984,21.6091954 C4.26829268,20.5747126 4.55284553,19.6551724 4.72357724,18.6206897 C4.83739837,18.2758621 6.08943089,13.6781609 6.60162602,13.7931034 C6.71544715,13.8505747 6.48780488,14.137931 6.54471545,14.1954023 L6.88617886,13.045977 C6.71544715,12.9885057 9.16260163,7.52873563 9.3902439,7.06896552 C10.300813,5.34482759 10.9837398,3.67816092 12.4634146,2.4137931 C13.3739837,1.66666667 14.5121951,-0.517241379 16.1626016,0.114942529 C16.902439,0.402298851 17.699187,1.55172414 17.7560976,2.35632184 C17.7560976,2.98850575 17.4715447,3.10344828 17.1300813,3.44827586 C17.1869919,3.3908046 17.300813,3.33333333 17.3577236,3.33333333 C17.4715447,3.3908046 16.1056911,5.11494253 15.9918699,5.05747126 C15.9349593,5.05747126 16.1626016,4.71264368 16.2764228,4.42528736 C14.4552846,6.95402299 13.0325203,9.71264368 11.7804878,12.6436782 C12.2926829,11.5517241 14.398374,7.18390805 14.7398374,7.01149425 C14.5121951,7.18390805 12.0650407,12.4137931 11.8373984,12.8735632 C10.9837398,14.9425287 10.1869919,17.0114943 9.61788618,19.137931 C9.04878049,21.2068966 8.6504065,23.2758621 8.08130081,25.3448276 C7.62601626,27.0114943 6.94308943,28.8505747 6.71544715,30.5172414 C6.77235772,30.4022989 6.82926829,30.2873563 6.94308943,30.2298851 C7,30.1724138 6.71544715,32.6436782 6.71544715,32.816092 L6.48780488,34.7701149 C8.70731707,27.2413793 12.3495935,20.1149425 16.6747967,13.6781609 C15.0243902,16.0344828 13.4878049,18.5057471 12.0650407,21.0344828 C11.3821138,22.2988506 10.7560976,23.6206897 10.1300813,24.8850575 C9.67479675,25.8045977 8.70731707,27.2988506 8.53658537,28.2183908 C8.6504065,27.3563218 9.33333333,26.3218391 9.73170732,25.5172414 C10.1300813,24.5402299 10.5853659,23.6206897 11.097561,22.7011494 C11.9512195,20.9770115 12.8617886,19.3103448 13.8292683,17.6436782 C15.9918699,14.1954023 18.3252033,10.8045977 20.8861789,7.64367816 C22.1382114,6.09195402 23.4471545,4.59770115 24.8130081,3.2183908 C26.0081301,2.29885057 27.4878049,0.689655172 29.0243902,0.402298851 C31.8699187,-0.0574712644 33.6910569,2.93103448 33.9186992,5.40229885 C34.8292683,12.816092 28.4552846,20.4597701 22.0243902,23.2758621 C25.4390244,22.9885057 28.9105691,24.5977011 29.7073171,28.2183908 Z M4.43902439,28.3908046 C4.49593496,28.1034483 4.49593496,27.7586207 4.49593496,27.5287356 C4.26829268,28.045977 3.8699187,28.6206897 3.75609756,29.0804598 C3.47154472,30.1724138 3.30081301,31.7241379 3.41463415,32.816092 C3.35772358,32.0689655 3.52845528,30.9195402 3.81300813,30.1724138 C4.04065041,29.6551724 4.32520325,29.0804598 4.43902439,28.3908046 Z M11.0406504,14.7126437 C10.9837398,14.8275862 10.9268293,14.9425287 10.9268293,15 L11.0406504,14.7126437 Z M11.8943089,12.7586207 C11.8373984,12.816092 11.7804878,12.9310345 11.7804878,12.9885057 L11.8943089,12.7586207 Z M25.2682927,33.1034483 L25.0406504,33.6781609 C24.1869919,35.4597701 23.2195122,36.8965517 21.9105691,38.3908046 L20.203252,40.2298851 C20.8292683,39.7701149 21.5691057,39.4827586 22.3089431,38.8505747 C23.0487805,38.1609195 23.9593496,37.1264368 24.300813,36.1494253 C24.6422764,35.3448276 25.2113821,33.9655172 25.2682927,33.1034483 Z M20.3739837,8.73563218 L20.7154472,8.3908046 L20.3739837,8.73563218 Z M28.6829268,17.1264368 C29.1382114,16.6091954 29.5365854,16.091954 29.9918699,15.6321839 C31.2439024,14.1954023 31.8699187,12.816092 32.3821138,11.091954 C31.8699187,12.2413793 31.1300813,13.3333333 30.6178862,14.2528736 C30.0487805,15.2298851 29.3658537,16.2068966 28.6829268,17.1264368 Z" id="Shape"></path>
                            <path d="M67.0406504,5.28735632 C66.5853659,5.40229885 66.1300813,5.34482759 65.7317073,5.51724138 C65.5609756,5.40229885 65.4471545,5.40229885 65.2195122,5.51724138 C65.2764228,5.63218391 65.2195122,5.74712644 65.1626016,5.74712644 C64.3089431,6.14942529 63.2845528,6.43678161 62.3170732,6.55172414 C61.2926829,6.7816092 60.2682927,7.06896552 59.2439024,7.24137931 C58.8455285,7.29885057 58.3902439,7.29885057 57.9918699,7.47126437 C57.4796748,7.64367816 57.5934959,7.70114943 57.2520325,7.81609195 C56.3414634,8.16091954 55.3739837,8.16091954 54.4634146,8.27586207 C53.9512195,8.3908046 53.3821138,8.50574713 52.8699187,8.67816092 L51.9593496,8.85057471 C51.9593496,9.02298851 51.8455285,9.13793103 51.7317073,9.25287356 C51.7317073,9.08045977 51.7317073,9.02298851 51.8455285,8.85057471 C51.5609756,8.90804598 50.9918699,10.9770115 50.8780488,11.2643678 L49.796748,14.0229885 C49.2845528,15.3448276 48.7723577,16.6666667 48.3170732,17.9885057 C48.9430894,16.2643678 49.7398374,14.1954023 50.195122,13.1034483 C49.1138211,15.7471264 46.3252033,23.7356322 45.9837398,24.5977011 C48.203252,24.3678161 50.4796748,24.1954023 52.6422764,23.908046 C53.8373984,23.7356322 54.9186992,23.6206897 56.1138211,23.5632184 L56.796748,23.5632184 C56.9674797,23.5057471 57.0813008,23.2758621 57.195122,23.3333333 C57.8211382,23.5632184 57.6504065,24.0229885 57.2520325,24.3678161 C56.5691057,24.9425287 55.5447154,24.7126437 54.7479675,24.9425287 C54.3495935,25.0574713 54.5203252,25.1724138 54.0650407,25.3448276 C53.6097561,25.6321839 52.8130081,25.6896552 52.300813,25.8045977 C51.3333333,25.9195402 50.4227642,26.091954 49.4552846,26.2643678 C48.7154472,26.3793103 48.3739837,26.7816092 47.5203252,26.8965517 C46.8373984,27.0114943 45.5853659,26.8965517 45.0162602,27.2988506 C44.7317073,27.5287356 44.4471545,28.9655172 44.2764228,29.3678161 L43.6504065,31.2643678 C42.9105691,33.7931034 42,36.2068966 41.1463415,38.6781609 C40.6341463,40 40.1788618,41.3793103 39.7235772,42.7011494 C39.4390244,43.6206897 38.9837398,44.4252874 38.9268293,45.4022989 C38.9268293,45.5747126 39.1544715,44.4252874 39.2682927,44.5977011 C39.4390244,44.7701149 39.2113821,45.3448276 39.2682927,45.5747126 C41.4878049,45.1724138 43.8780488,43.6206897 45.8699187,42.5287356 C47.804878,41.4942529 49.6829268,40.2873563 51.6178862,39.3103448 C52.5284553,38.8505747 53.0406504,39.0804598 52.6422764,40.1149425 C52.300813,41.091954 51.3333333,42.0689655 50.5365854,42.816092 C49.398374,43.8505747 48.3170732,44.8850575 47.1219512,45.862069 C44.6747967,47.7011494 41.0894309,50.4597701 37.902439,49.0804598 C35.9105691,48.2758621 33.804878,46.3218391 34.0325203,43.9655172 C34.1463415,42.9885057 34.7154472,42.2988506 35.1707317,41.4942529 C35.2845528,41.2643678 35.7398374,39.1954023 35.9674797,39.137931 C35.9674797,39.137931 35.796748,39.6551724 35.7398374,39.8275862 L35.9674797,39.0804598 C35.9105691,39.0229885 36.1382114,38.2758621 36.1382114,38.1609195 L36.7073171,36.7241379 C37.0487805,35.8045977 37.4471545,34.9425287 37.7886179,33.9655172 C38.5284553,32.183908 38.8699187,30.2873563 39.6097561,28.5057471 C38.2439024,28.5057471 36.0243902,26.6091954 37.902439,25.7471264 C37.9593496,25.7471264 38.0162602,25.7471264 38.0162602,25.6896552 C38.699187,25.4597701 39.5528455,25.5172414 40.2357724,25.4597701 C40.5203252,25.4022989 40.8617886,25.2298851 41.0894309,25.2298851 C41.1463415,25.2298851 41.203252,24.8275862 41.3170732,24.8850575 C41.3170732,24.8850575 41.203252,25.2873563 41.1463415,25.3448276 C41.3739837,25.2873563 41.7723577,23.908046 41.8861789,23.3908046 C41.8292683,23.5632184 41.7154472,23.6781609 41.6585366,23.8505747 C41.7154472,23.8505747 45.8130081,11.3793103 46.1544715,10.2298851 C44.504065,10.4597701 41.4878049,10.1724138 41.7723577,7.81609195 C41.8292683,7.24137931 42.0569106,6.95402299 42.6829268,6.72413793 C44.0487805,6.20689655 46.9512195,6.95402299 47.804878,5.68965517 C48.4878049,4.77011494 47.9186992,3.50574713 49.1138211,3.10344828 C49.9674797,2.81609195 51.1626016,3.33333333 51.8455285,3.85057471 C52.2439024,4.13793103 52.4715447,4.54022989 52.8130081,4.88505747 C52.9268293,5.05747126 52.9837398,5.17241379 52.9837398,5.40229885 L53.9512195,5.22988506 C56.2845528,5 58.6178862,4.82758621 61.0081301,4.48275862 C63.2276423,4.25287356 65.4471545,3.85057471 67.6666667,3.79310345 C67.8943089,3.79310345 68.2926829,3.79310345 68.4634146,3.73563218 C68.6341463,3.73563218 68.804878,3.50574713 68.8617886,3.50574713 C69.0894309,3.50574713 69.4308943,3.50574713 69.4878049,3.90804598 C69.601626,4.77011494 67.6097561,5.11494253 67.0406504,5.28735632 Z M45.3577236,16.091954 C44.8455285,17.4137931 44.2195122,18.7356322 43.8211382,20.0574713 L41.4308943,26.7241379 C42.1138211,25.1724138 42.796748,23.7931034 43.4796748,22.183908 C44.2764228,20.2298851 44.7317073,17.9885057 45.3577236,16.091954 Z M46.4390244,22.8735632 L45.7560976,24.5402299 C45.9268293,24.5402299 45.9837398,24.3678161 45.9837398,24.137931 L46.4390244,22.8735632 Z M50.1382114,13.045977 L50.3089431,12.7011494 L50.1382114,13.045977 Z M50.3658537,12.5287356 C50.3658537,12.5287356 50.4227642,12.4137931 50.4227642,12.3563218 C50.4227642,12.4137931 50.3658537,12.4712644 50.3658537,12.5287356 Z M50.5365854,12.2413793 C50.4796748,12.2413793 50.4796748,12.2988506 50.4227642,12.3563218 C50.4796748,12.2988506 50.4796748,12.2413793 50.5365854,12.2413793 Z" id="Shape"></path>
                        </g>
                        <g id="Group" transform="translate(60.000000, 2.000000)" fill="#000000">
                            <path d="M12.8980892,30.2117647 C11.9808917,31.5105882 11.1783439,32.7529412 10.1464968,33.9952941 C9.11464968,35.4070588 7.79617834,37.6094118 5.9044586,38.0611765 C5.50318471,38.1176471 3.49681529,37.6094118 3.55414013,37.2705882 L3.66878981,37.2705882 C3.26751592,37.0447059 3.66878981,37.5529412 3.03821656,37.0447059 C2.57961783,36.7058824 2.23566879,36.2541176 1.94904459,35.8023529 C1.37579618,35.0117647 0.630573248,34.3341176 0.401273885,33.4305882 C0.343949045,33.1482353 0.229299363,31.2847059 0.687898089,31.2847059 C0.802547771,31.2847059 0.687898089,31.5670588 0.74522293,31.5670588 L0.917197452,30.6070588 C0.859872611,30.72 0.859872611,30.7764706 0.74522293,30.8329412 C0.515923567,30.7764706 1.5477707,27.1058824 1.66242038,26.7670588 C2.06369427,25.6941176 2.29299363,24.4517647 3.32484076,23.8305882 C4.12738854,23.3223529 5.10191083,23.4352941 6.13375796,23.8305882 C6.53503185,24 7.79617834,24.5082353 7.79617834,25.0164706 C7.79617834,25.3552941 7.50955414,25.3552941 7.39490446,25.5247059 C7.4522293,25.4682353 7.56687898,25.4682353 7.62420382,25.4682353 C7.79617834,25.5811765 6.99363057,26.6541176 6.87898089,26.5976471 C6.76433121,26.5976471 6.93630573,26.3152941 6.99363057,26.2023529 C5.96178344,27.84 5.15923567,29.6470588 4.52866242,31.4541176 C4.81528662,30.7764706 6.13375796,27.84 6.24840764,27.8964706 C6.42038217,27.9529412 2.75159236,34.1647059 4.58598726,35.0682353 C5.44585987,35.4635294 6.87898089,34.1647059 7.4522293,33.7129412 C8.48407643,32.9223529 9.80254777,31.9623529 10.5477707,31.0588235 C10.433121,31.1717647 10.3184713,31.1717647 10.2038217,31.1717647 C9.97452229,30.8894118 12.611465,27.5011765 13.1273885,27.1623529 C13.4713376,26.88 14.2165605,26.7105882 14.3312102,27.3882353 C14.388535,28.4047059 13.4140127,29.5341176 12.8980892,30.2117647 Z M3.89808917,33.2047059 L3.78343949,33.6 L3.89808917,33.2611765 L3.89808917,33.2047059 C3.95541401,33.1482353 3.95541401,33.1482353 3.89808917,33.2047059 Z M5.04458599,18.8047059 C5.10191083,18.8047059 5.10191083,18.8611765 5.04458599,18.8047059 C5.15923567,18.8047059 5.15923567,18.8047059 5.15923567,18.7482353 C5.10191083,18.8047059 5.10191083,18.8047059 5.04458599,18.8047059 Z M5.84713376,17.4494118 C5.73248408,17.6752941 5.61783439,17.7882353 5.61783439,17.7882353 L5.84713376,17.4494118 Z" id="Shape"></path>
                            <path d="M29.7515924,31.68 C28.6050955,33.1482353 27.5159236,34.6729412 26.2547771,36.0282353 C25.2802548,36.9882353 23.7324841,38.6823529 22.2420382,38.2305882 C21.8980892,38.1176471 19.9490446,37.1011765 20.0063694,36.8188235 L20.1783439,36.9317647 L19.8343949,36.5929412 C20.1210191,36.9882353 19.4904459,36.48 19.4904459,36.48 C19.2038217,36.1976471 19.0318471,35.8023529 18.8598726,35.4635294 C18.5732484,34.8988235 18.5159236,34.3341176 18.5159236,33.7694118 C18.5159236,33.2047059 18.6305732,32.64 18.6878981,32.0752941 C18.8025478,30.8894118 18.8598726,29.8164706 19.2038217,28.6870588 C19.3184713,28.4047059 20.4076433,25.5247059 20.8089172,25.6376471 C20.9235669,25.6376471 20.6369427,25.9764706 20.6942675,26.0329412 L21.4394904,24.5647059 C21.3248408,24.6776471 21.2675159,24.7905882 21.1528662,24.8470588 C21.0955414,24.7905882 21.7834395,23.6047059 21.955414,23.3223529 C20.9235669,24.5082353 20.0636943,25.7505882 19.089172,26.9929412 C18.4012739,27.8964706 17.5414013,28.4611765 17.0828025,29.3082353 C15.9936306,31.1717647 14.6178344,32.9223529 13.7006369,34.8423529 L13.4713376,34.4470588 C12.4968153,35.5764706 11.1210191,34.2211765 10.5477707,33.3741176 C10.089172,32.5270588 10.2038217,31.9058824 10.3184713,31.0023529 C10.433121,30.1552941 10.3757962,29.3647059 10.6624204,28.4611765 C11.0063694,27.3882353 11.4076433,26.3152941 11.8089172,25.2423529 C12.1528662,24.1694118 12.5541401,23.04 12.955414,21.9670588 C13.2420382,21.2894118 13.7579618,20.4423529 13.9299363,19.7082353 C14.1019108,19.1435294 13.9299363,18.7482353 14.6178344,18.3529412 C15.2484076,18.0141176 15.9363057,18.0141176 16.6242038,18.1270588 C17.4840764,18.2964706 18.9745223,19.1435294 18.1146497,20.4423529 C17.7707006,20.8941176 17.0828025,21.4023529 16.6815287,21.9670588 C16.2229299,22.5317647 16.2802548,22.8141176 16.0509554,23.4917647 C15.9363057,23.8870588 15.5350318,24.2823529 15.3057325,24.6776471 C14.9617834,25.2423529 14.7898089,25.9764706 14.5605096,26.6541176 C14.4458599,27.0494118 14.5031847,27.3882353 14.4458599,27.7835294 C14.3312102,28.8564706 13.9872611,29.9858824 13.8726115,31.0588235 C13.9299363,30.8329412 14.2738854,30.4941176 14.3312102,30.5505882 C14.388535,30.6070588 13.8152866,31.5105882 13.8726115,31.5105882 L16.9681529,27.0494118 C16.2802548,27.9529412 15.7643312,28.5741176 15.7643312,28.5741176 C15.5923567,28.4611765 21.8980892,20.5552941 22.6433121,19.8776471 C24.1910828,18.4658824 26.1401274,18.5223529 26.8853503,20.9505882 C27.7452229,23.5482353 24.9936306,25.2423529 23.7324841,27.1623529 C23.044586,28.1788235 22.4713376,29.4776471 21.955414,30.5505882 C21.611465,31.2282353 20.8089172,32.7529412 20.6942675,33.8823529 C20.8089172,33.0917647 21.3821656,32.1882353 21.611465,31.6235294 C22.0127389,30.5505882 22.6433121,29.6470588 23.4458599,28.8564706 C23.1019108,29.5341176 22.6433121,30.1552941 22.3566879,30.7764706 L22.6433121,30.4376471 C22.7579618,30.4376471 22.1847134,32.1882353 22.1273885,32.3011765 C21.8980892,32.9223529 21.7261146,33.6 21.6687898,34.2776471 C21.611465,34.3341176 21.6687898,35.1811765 21.6687898,35.1811765 L21.7261146,35.2376471 C21.7261146,35.1811765 22.0700637,35.1247059 22.1847134,35.0682353 C22.9872611,34.7858824 23.7898089,34.0517647 24.4203822,33.5435294 C25.6815287,32.5835294 26.8853503,31.4541176 28.089172,30.4376471 C29.0063694,29.5905882 30.1528662,28.8 30.8980892,27.8964706 C31.2420382,27.4447059 31.9299363,26.5976471 32.2165605,27.84 C32.388535,29.0823529 30.3821656,30.8329412 29.7515924,31.68 Z" id="Path"></path>
                            <path d="M61.7388535,13.0447059 C61.7961783,12.9882353 61.8535032,12.9882353 61.910828,12.9882353 C62.0254777,13.0447059 60.7643312,14.9647059 60.5923567,14.8517647 C60.477707,14.8517647 61.0509554,13.9482353 60.9936306,13.9482353 C59.1592357,16.6588235 57.6687898,19.5388235 56.4076433,22.4752941 C57.0382166,21.1764706 58.9299363,17.2235294 59.3312102,16.9411765 C58.9872611,17.3929412 56.5796178,22.5317647 56.3503185,23.04 C55.433121,25.1294118 54.6305732,27.3317647 54,29.4776471 C53.4267516,31.6235294 52.9681529,33.7694118 52.3375796,35.8588235 C51.8216561,37.6658824 51.0764331,39.7552941 50.8471338,41.4494118 C50.9044586,41.2235294 50.9617834,41.0541176 51.133758,40.8282353 C51.0764331,40.8847059 51.0764331,43.3129412 51.133758,43.7082353 C51.2484076,44.3294118 51.133758,44.4423529 51.6496815,44.3858824 C52.566879,44.2729412 53.5987261,42.8047059 54.1146497,42.24 C54.4585987,41.7882353 55.1464968,40.5458824 55.7770701,40.32 C56.1783439,40.0941176 56.2929936,40.1505882 56.522293,40.6588235 C56.866242,41.3929412 56.2929936,42.8047059 56.0636943,43.5388235 C55.7197452,44.4423529 55.2611465,45.12 54.7452229,45.8541176 C53.9426752,46.9835294 53.0828025,47.8305882 51.5923567,47.7741176 C50.1592357,47.6611765 48.8980892,47.04 48.0382166,45.9105882 C46.6624204,44.0470588 46.4904459,41.5058824 46.7770701,39.3035294 C46.8917197,38.4564706 47.1783439,37.7788235 47.4076433,37.0447059 C47.4649682,36.7623529 47.4649682,35.2376471 47.6369427,35.1811765 C47.6942675,35.2376471 47.6942675,35.2941176 47.6942675,35.3505882 C47.7515924,35.2376471 47.7515924,35.1247059 47.7515924,35.0117647 C47.6369427,35.1247059 47.7515924,33.8823529 47.866242,33.6 C48.0382166,32.9223529 48.2101911,32.2447059 48.4394904,31.5670588 C48.7834395,30.3247059 48.8980892,29.0823529 49.3566879,27.84 C47.866242,30.1552941 46.3757962,32.5835294 44.7707006,34.7858824 C43.1656051,36.8188235 41.4458599,38.6258824 39.7261146,40.4894118 C39.7261146,40.4894118 39.1528662,41.28 38.866242,41.3929412 C39.0382166,41.28 39.4968153,40.7152941 39.4968153,40.7152941 L38.4649682,41.6752941 C39.0382166,41.28 38.1783439,42.1270588 38.0063694,42.24 C37.7197452,42.5223529 37.3757962,42.6352941 36.9745223,42.6917647 C36.6305732,42.7482353 36.1719745,42.6352941 35.8280255,42.5223529 C33.6496815,41.8447059 31.6433121,39.9811765 30.5541401,38.0611765 C29.9808917,36.9882353 29.9235669,35.8588235 29.9808917,34.6729412 C30.0955414,33.5435294 30.2675159,32.4141176 30.4394904,31.3411765 C30.5541401,31.0023529 31.0127389,28.7435294 31.2420382,28.7435294 C31.2420382,28.7435294 31.1273885,29.4211765 31.1847134,29.4211765 C31.4140127,28.4611765 31.5859873,27.5576471 31.8726115,26.6541176 L31.5286624,27.3317647 C31.4140127,26.5411765 32.1592357,25.1858824 32.388535,24.4517647 C32.6178344,23.7176471 32.7898089,22.9835294 33.0764331,22.2494118 C33.6496815,20.3858824 34.3375796,18.5788235 35.1974522,16.7717647 C36.0573248,14.8517647 36.8025478,12.8752941 37.7197452,11.0117647 C38.1783439,10.1082353 38.5796178,9.09176471 39.2675159,8.30117647 C39.6687898,7.84941176 39.8980892,7.73647059 40.1847134,7.11529412 C40.9299363,5.53411765 41.8471338,3.72705882 42.9363057,2.31529412 C43.1656051,2.03294118 43.3375796,1.80705882 43.6815287,1.58117647 C45.2292994,0.790588235 47.0636943,2.42823529 47.6942675,3.72705882 C48.0955414,4.85647059 47.7515924,5.25176471 47.2356688,5.92941176 C47.4076433,5.81647059 47.5796178,5.70352941 47.5796178,5.76 C47.5796178,6.09882353 45.4585987,8.92235294 45.2292994,8.86588235 C45.2292994,8.86588235 45.6878981,8.07529412 45.9745223,7.68 C44.7707006,9.31764706 43.6815287,11.0682353 42.7070064,12.8752941 C42.8789809,12.6494118 43.0509554,12.48 43.1082803,12.4235294 C42.477707,13.1011765 39.4394904,20.6682353 39.0955414,21.3458824 C37.8917197,24.2823529 36.8025478,27.2752941 36.0573248,30.3811765 L36.2292994,28.8 L36.1719745,29.1388235 C36.1719745,28.9694118 36.2292994,28.8 36.2292994,28.6870588 L35.8853503,29.9858824 L36.1146497,29.4776471 C35.7707006,32.1317647 34.7388535,34.8988235 35.1401274,37.6658824 C35.1974522,38.0047059 35.3121019,38.6823529 35.7133758,38.9082353 C36.9745223,39.4729412 40.4713376,34.9552941 41.044586,34.2211765 C42.7643312,32.2447059 44.656051,30.1552941 46.089172,28.1788235 C45.9745223,28.2917647 45.5159236,29.0258824 45.2866242,28.9694118 C45.2866242,28.9694118 47.2929936,25.92 47.522293,25.5247059 C48.3821656,24.3952941 49.1847134,23.2094118 49.9299363,21.9670588 L55.089172,14.2870588 C55.9490446,13.0447059 56.9808917,10.8988235 58.1273885,10.1082353 C59.5605096,9.14823529 62.1401274,10.3905882 62.3694268,12.0282353 C62.3121019,12.6494118 62.0254777,12.8188235 61.7388535,13.0447059 Z M37.3757962,23.3788235 C37.089172,24.1129412 36.9745223,24.8470588 36.8025478,25.5811765 C37.6050955,22.8141176 38.6942675,20.16 39.8980892,17.3929412 C41.5031847,13.8917647 43.2802548,10.5035294 45.5159236,7.39764706 C43.2802548,10.3905882 41.1592357,13.6094118 39.7261146,17.0541176 C38.866242,19.1435294 38.0063694,21.2329412 37.3757962,23.3788235 Z M41.7898089,14.5129412 C40.5286624,16.9976471 39.4394904,19.5388235 38.4649682,22.08 C39.0382166,20.6682353 40.6433121,16.8847059 41.7898089,14.5129412 Z M46.3757962,6.21176471 C46.433121,6.21176471 46.4904459,6.15529412 46.4904459,6.09882353 C46.4904459,6.21176471 46.433121,6.21176471 46.3757962,6.21176471 Z M49.6433121,30.8329412 C48.955414,32.64 48.3821656,34.4470588 48.0382166,36.4235294 C47.6369427,38.7952941 47.4649682,41.5058824 47.9235669,43.9341176 C47.522293,41.7882353 48.0382166,38.9647059 48.4968153,36.8188235 C48.955414,34.7294118 49.0127389,32.9223529 49.6433121,30.8329412 Z M55.6050955,24.5082353 L54.6305732,26.88 C54.8598726,26.4847059 55.0318471,25.9764706 55.2038217,25.5247059 L55.6050955,24.5082353 Z" id="Shape"></path>
                            <path d="M89.3121019,13.1576471 C89.3694268,13.1011765 89.4267516,13.0447059 89.5414013,13.0447059 C89.656051,13.1011765 88.5095541,14.9082353 88.2802548,14.7952941 C88.2229299,14.7952941 88.3949045,14.5694118 88.5095541,14.4 C86.9044586,16.7152941 85.8152866,19.2 84.8407643,21.7976471 C85.4713376,20.16 86.7324841,17.1105882 87.1910828,16.8282353 C86.8471338,17.2235294 84.8407643,22.3058824 84.7261146,22.8141176 C83.9808917,24.9035294 83.4076433,27.0494118 83.0636943,29.1388235 C82.7197452,31.3411765 82.4904459,33.4870588 82.2038217,35.6329412 C81.9745223,37.3270588 81.5732484,39.3035294 81.7452229,40.8847059 C81.7452229,40.6588235 81.7452229,40.4894118 81.8598726,40.2635294 C81.9171975,40.2635294 82.2611465,42.5788235 82.6050955,42.7482353 C82.7770701,42.8611765 82.9490446,42.6917647 83.0636943,42.6917647 C84.0382166,42.5223529 85.0700637,41.0541176 85.5859873,40.4329412 C85.9299363,40.0376471 86.6178344,38.7952941 87.133758,38.5694118 C89.0254777,37.7223529 86.7898089,43.4823529 86.2165605,44.1035294 C85.3566879,45.1764706 84.5541401,46.08 83.0636943,46.08 C81.8025478,46.08 80.5987261,45.6282353 79.6242038,44.8376471 C77.9617834,43.3129412 77.2165605,40.9976471 77.1019108,38.8517647 C77.1019108,37.8917647 77.2738854,37.1576471 77.4458599,36.2541176 C77.4458599,36.0282353 77.3312102,34.5035294 77.5031847,34.4470588 C77.5031847,34.5035294 77.5605096,34.56 77.5605096,34.6164706 C77.5605096,34.5035294 77.5031847,34.3905882 77.5605096,34.3341176 C77.4458599,34.3341176 77.388535,33.3741176 77.388535,33.3741176 C77.4458599,32.6964706 77.6178344,32.0752941 77.7324841,31.3976471 C77.9617834,30.4376471 78.0764331,29.4776471 78.133758,28.4611765 C78.133758,28.1223529 79.1082803,23.6611765 79.6242038,23.7176471 C79.7388535,23.7176471 79.566879,24.0564706 79.6242038,24.1129412 L80.0254777,22.6447059 C77.2165605,27.1058824 74.3503185,31.68 71.1974522,36.0282353 C70.1656051,37.3270588 68.388535,40.2070588 66.4968153,40.32 C64.7770701,40.4329412 63.1719745,38.6258824 62.3121019,37.3270588 C62.3121019,37.3270588 61.6815287,36.7058824 61.6242038,36.4235294 C61.6815287,36.5929412 62.1401274,37.0447059 62.1401274,37.0447059 L61.5095541,35.9717647 C61.6815287,36.48 61.2229299,35.6329412 61.1656051,35.6329412 C60.9363057,35.2941176 60.8216561,34.8423529 60.8216561,34.5035294 C60.5350318,33.6 60.477707,32.6964706 60.477707,31.7929412 C60.5350318,29.9294118 61.0509554,28.1788235 61.4522293,26.3152941 C61.7961783,24.4517647 62.4267516,22.7011765 63.1146497,20.9505882 C63.2866242,20.6117647 64.7197452,17.1105882 65.0636943,17.1670588 C65.0636943,17.1670588 64.7770701,17.8447059 64.8343949,17.9011765 C65.1783439,17.0541176 65.5796178,16.2635294 65.9808917,15.4164706 C65.8089172,15.6423529 65.6369427,15.8682353 65.6369427,15.8682353 C65.6942675,15.0211765 66.6687898,13.9482353 67.0127389,13.2141176 L68.6178344,10.1647059 C69.8216561,8.07529412 71.3121019,6.15529412 72.8598726,4.29176471 C74.1783439,2.65411765 75.8407643,0.96 77.9044586,0.225882353 C78.9363057,-0.112941176 80.1401274,0.0564705882 81.1719745,0.282352941 C83.1210191,0.677647059 85.1273885,2.03294118 86.6178344,3.27529412 C87.1910828,3.78352941 88.3375796,4.63058824 88.2802548,5.53411765 C88.2802548,6.26823529 87.3630573,7.00235294 86.7898089,7.34117647 C85.4713376,8.18823529 85.0700637,7.68 84.7261146,6.49411765 C84.7261146,6.55058824 84.8980892,7.05882353 84.7834395,7.11529412 C84.6687898,7.17176471 84.2101911,5.47764706 84.1528662,5.30823529 C84.0382166,4.96941176 83.9235669,4.63058824 83.8089172,4.29176471 C83.9808917,4.57411765 84.1528662,4.68705882 84.2101911,4.8 C83.9808917,4.17882353 83.6942675,3.78352941 83.3503185,3.55764706 C82.8343949,3.33176471 82.2038217,3.44470588 81.343949,3.78352941 C80.1974522,4.17882353 79.1082803,4.91294118 78.2484076,5.76 C75.7261146,8.01882353 73.8343949,10.9552941 72.2292994,13.9482353 C73.2611465,12.1411765 74.4076433,10.3905882 75.6687898,8.75294118 C76.2993631,7.90588235 76.9872611,7.11529412 77.7898089,6.43764706 C78.133758,6.09882353 78.9936306,5.59058824 79.4522293,5.19529412 C78.8789809,5.87294118 77.8471338,6.49411765 77.2738854,7.05882353 C76.5859873,7.79294118 76.0127389,8.58352941 75.4394904,9.37411765 C74.1783439,11.0682353 73.089172,12.9317647 72.0573248,14.7952941 C69.9363057,18.7482353 68.2738854,22.9835294 67.1273885,27.2752941 C66.611465,29.2517647 66.0955414,31.2847059 65.866242,33.3176471 C65.8089172,33.7694118 65.4649682,35.5764706 65.9808917,35.8588235 C66.7834395,36.3105882 69.0191083,33.6564706 69.4203822,33.2611765 C70.6242038,32.0188235 71.8280255,30.7764706 72.9171975,29.5341176 C72.6878981,29.76 72.5159236,29.9858824 72.4012739,29.9294118 C72.343949,29.9294118 74.4076433,26.9364706 74.6369427,26.7105882 L77.1592357,23.1529412 C78.9363057,20.6117647 80.7133758,17.9576471 82.433121,15.4164706 C82.8343949,14.7952941 83.1783439,14.1176471 83.522293,13.44 C83.8089172,12.8752941 84.2101911,12.5364706 84.5541401,12.1976471 C84.8980892,11.8588235 84.955414,11.1811765 85.3566879,10.7294118 C86.6751592,9.09176471 88.8535032,10.2211765 89.7707006,11.6329412 C90.2292994,12.3670588 89.656051,12.7058824 89.3121019,13.1576471 Z M65.522293,33.8258824 L65.522293,34.0517647 L65.6369427,33.0917647 C65.7515924,31.3976471 66.0955414,29.6470588 66.5541401,27.9529412 C67.4140127,24.5647059 68.4458599,21.0635294 69.7070064,17.7882353 C70.910828,14.7388235 72.2866242,11.7458824 74.0636943,8.92235294 C74.9235669,7.45411765 76.0700637,5.87294118 77.5031847,4.63058824 C75.8407643,5.92941176 74.5796178,7.79294118 73.7197452,9.37411765 C72.0573248,12.1411765 70.566879,14.9082353 69.3057325,17.8447059 C67.8152866,21.2329412 66.7261146,24.96 66.2101911,28.6305882 C65.866242,30.3247059 65.5796178,32.0752941 65.522293,33.8258824 Z M70.0509554,18.24 L69.9363057,18.5223529 L70.0509554,18.3529412 L70.0509554,18.24 Z M77.6751592,4.46117647 L78.3057325,4.00941176 C78.133758,4.12235294 77.9044586,4.29176471 77.6751592,4.46117647 Z M78.0191083,39.6423529 C77.9617834,39.0776471 78.0191083,38.5129412 78.0764331,37.9482353 C78.1910828,36.9882353 78.4203822,36.0282353 78.477707,35.0117647 C78.5350318,34.1647059 78.477707,33.3176471 78.5923567,32.5270588 C78.4203822,32.8658824 78.3057325,33.2611765 78.2484076,33.5435294 C77.9617834,34.56 77.9044586,35.52 77.9044586,36.5929412 C77.8471338,37.6658824 77.9044586,38.6258824 78.0191083,39.6423529 Z M83.5796178,4.12235294 L83.3503185,3.72705882 C83.4076433,3.78352941 83.522293,3.95294118 83.5796178,4.12235294 Z M83.5796178,4.12235294 L83.7515924,4.29176471 C83.7515924,4.29176471 83.6369427,4.23529412 83.5796178,4.12235294 Z M84.8407643,21.7976471 L84.6687898,22.1929412 L84.8407643,21.7976471 Z" id="Shape"></path>
                        </g>
                        <g id="Group" transform="translate(70.000000, 51.000000)" fill="#000000">
                            <polygon id="Path" points="3.82857143 2.64705882 5.25714286 2.64705882 3.25714286 5.05882353 4.4 7.47058824 2.97142857 7.47058824 1.88571429 5.11764706 1.37142857 7.47058824 0.114285714 7.47058824 1.14285714 2.58823529 2.4 2.58823529 1.94285714 4.82352941"></polygon>
                            <path d="M5.6,2.64705882 L6.85714286,2.64705882 L7.08571429,4.88235294 C7.14285714,5.23529412 7.14285714,5.64705882 7.14285714,6.17647059 L7.14285714,6.17647059 C7.2,6 7.25714286,5.88235294 7.31428571,5.64705882 C7.37142857,5.47058824 7.48571429,5.23529412 7.6,5 L8.68571429,2.64705882 L10.0571429,2.64705882 L7.2,8.23529412 C6.68571429,9.17647059 6,9.70588235 5.14285714,9.70588235 C4.91428571,9.70588235 4.68571429,9.70588235 4.51428571,9.64705882 L4.51428571,8.58823529 C4.68571429,8.64705882 4.85714286,8.64705882 5.02857143,8.64705882 C5.25714286,8.64705882 5.48571429,8.58823529 5.65714286,8.41176471 C5.82857143,8.29411765 6,8.05882353 6.17142857,7.76470588 L6.28571429,7.52941176 L5.6,2.64705882 Z" id="Path"></path>
                            <path d="M13.9428571,7.47058824 L12.6857143,7.47058824 L13.2571429,4.64705882 C13.3142857,4.47058824 13.3142857,4.29411765 13.3142857,4.11764706 C13.3142857,3.76470588 13.1428571,3.58823529 12.8571429,3.58823529 C12.5714286,3.58823529 12.3428571,3.76470588 12.1714286,4.05882353 C11.9428571,4.41176471 11.7714286,4.82352941 11.6571429,5.47058824 L11.2571429,7.47058824 L10,7.47058824 L11.0285714,2.58823529 L12,2.58823529 L11.8857143,3.47058824 L11.8857143,3.47058824 C12.2857143,2.82352941 12.8,2.47058824 13.3714286,2.47058824 C13.7714286,2.47058824 14.0571429,2.58823529 14.2857143,2.82352941 C14.5142857,3.05882353 14.6285714,3.41176471 14.6285714,3.88235294 C14.6285714,4.11764706 14.5714286,4.35294118 14.5142857,4.64705882 L13.9428571,7.47058824 Z" id="Path"></path>
                            <path d="M15.6571429,2.64705882 L16.9142857,2.64705882 L17.1428571,4.88235294 C17.2,5.23529412 17.2,5.64705882 17.2,6.17647059 L17.2,6.17647059 C17.2571429,6 17.3142857,5.88235294 17.3714286,5.64705882 C17.4285714,5.47058824 17.5428571,5.23529412 17.6571429,5 L18.7428571,2.64705882 L20.1142857,2.64705882 L17.2571429,8.23529412 C16.7428571,9.17647059 16.0571429,9.70588235 15.2,9.70588235 C14.9714286,9.70588235 14.7428571,9.70588235 14.5714286,9.64705882 L14.5714286,8.58823529 C14.7428571,8.64705882 14.9142857,8.64705882 15.0857143,8.64705882 C15.3142857,8.64705882 15.5428571,8.58823529 15.7142857,8.41176471 C15.8857143,8.29411765 16.0571429,8.05882353 16.2285714,7.76470588 L16.3428571,7.52941176 L15.6571429,2.64705882 Z" id="Path"></path>
                            <path d="M21.0285714,2.64705882 L22.2857143,2.64705882 L21.7142857,5.47058824 C21.6571429,5.64705882 21.6571429,5.82352941 21.6571429,6 C21.6571429,6.35294118 21.8285714,6.52941176 22.1142857,6.52941176 C22.4,6.52941176 22.6285714,6.35294118 22.8,6.05882353 C23.0285714,5.70588235 23.2,5.29411765 23.3142857,4.64705882 L23.7142857,2.64705882 L24.9714286,2.64705882 L23.9428571,7.52941176 L22.9714286,7.52941176 L23.0857143,6.64705882 L23.0857143,6.64705882 C22.6857143,7.29411765 22.1714286,7.64705882 21.6,7.64705882 C21.2,7.64705882 20.9142857,7.52941176 20.6857143,7.29411765 C20.4571429,7.05882353 20.4,6.70588235 20.4,6.23529412 C20.4,5.94117647 20.4571429,5.64705882 20.5142857,5.29411765 L21.0285714,2.64705882 Z M25.2571429,0.529411765 C25.1428571,0.941176471 25.0285714,1.23529412 24.8571429,1.41176471 C24.6857143,1.64705882 24.4571429,1.76470588 24.1142857,1.88235294 C23.8285714,2 23.4285714,2.05882353 23.0285714,2.05882353 C22.4571429,2.05882353 22.0571429,1.94117647 21.7142857,1.70588235 C21.4285714,1.47058824 21.2571429,1.11764706 21.2571429,0.705882353 C21.2571429,0.647058824 21.2571429,0.588235294 21.2571429,0.529411765 L22.4,0.529411765 L22.4,0.647058824 L22.4,0.764705882 C22.4,1.17647059 22.6285714,1.35294118 23.1428571,1.35294118 C23.4285714,1.35294118 23.6571429,1.29411765 23.7714286,1.17647059 C23.9428571,1.05882353 24.0571429,0.823529412 24.1142857,0.529411765 L25.2571429,0.529411765 L25.2571429,0.529411765 Z" id="Shape"></path>
                            <path d="M28.1714286,2.64705882 L29.4285714,2.64705882 L29.6571429,4.88235294 C29.7142857,5.23529412 29.7142857,5.64705882 29.7142857,6.17647059 L29.7142857,6.17647059 C29.7714286,6 29.8285714,5.88235294 29.8857143,5.64705882 C29.9428571,5.47058824 30.0571429,5.23529412 30.1714286,5 L31.2571429,2.64705882 L32.6285714,2.64705882 L29.7714286,8.23529412 C29.2571429,9.17647059 28.5714286,9.70588235 27.7142857,9.70588235 C27.4857143,9.70588235 27.2571429,9.70588235 27.0857143,9.64705882 L27.0857143,8.58823529 C27.2571429,8.64705882 27.4285714,8.64705882 27.6,8.64705882 C27.8285714,8.64705882 28.0571429,8.58823529 28.2285714,8.41176471 C28.4,8.29411765 28.5714286,8.05882353 28.7428571,7.76470588 L28.8571429,7.52941176 L28.1714286,2.64705882 Z" id="Path"></path>
                            <polygon id="Path" points="36.2285714 2.64705882 37.6571429 2.64705882 35.6571429 5.05882353 36.8 7.47058824 35.3714286 7.47058824 34.2857143 5.11764706 33.7714286 7.47058824 32.5142857 7.47058824 33.5428571 2.58823529 34.8 2.58823529 34.3428571 4.82352941"></polygon>
                            <path d="M40.9714286,2.52941176 C41.3714286,2.52941176 41.7142857,2.70588235 41.9428571,3 C42.1714286,3.29411765 42.2857143,3.76470588 42.2857143,4.29411765 C42.2857143,4.82352941 42.1714286,5.35294118 42,5.88235294 C41.8285714,6.41176471 41.5428571,6.82352941 41.2,7.11764706 C40.8571429,7.41176471 40.5142857,7.58823529 40.1142857,7.58823529 C39.8857143,7.58823529 39.6571429,7.52941176 39.4857143,7.41176471 C39.3142857,7.29411765 39.1428571,7.11764706 39.0285714,6.88235294 L38.9714286,6.88235294 C38.9142857,7.35294118 38.8571429,7.76470588 38.8,8.17647059 L38.5142857,9.64705882 L37.2571429,9.64705882 L38.6857143,2.64705882 L39.6571429,2.64705882 L39.6,3.41176471 L39.6571429,3.41176471 C40.0571429,2.82352941 40.5142857,2.52941176 40.9714286,2.52941176 Z M40.4571429,3.58823529 C40.2857143,3.58823529 40.0571429,3.70588235 39.8857143,3.88235294 C39.7142857,4.05882353 39.5428571,4.35294118 39.4285714,4.64705882 C39.3142857,5 39.2571429,5.35294118 39.2571429,5.70588235 C39.2571429,5.94117647 39.3142857,6.11764706 39.4285714,6.23529412 C39.5428571,6.35294118 39.6571429,6.47058824 39.8857143,6.47058824 C40.0571429,6.47058824 40.2285714,6.35294118 40.4,6.17647059 C40.5714286,6 40.6857143,5.70588235 40.8,5.35294118 C40.9142857,5 40.9714286,4.64705882 40.9714286,4.29411765 C41.0285714,3.82352941 40.8571429,3.58823529 40.4571429,3.58823529 Z" id="Shape"></path>
                            <path d="M44.6285714,7.58823529 C44.2285714,7.58823529 43.8857143,7.41176471 43.6571429,7.11764706 C43.4285714,6.82352941 43.3142857,6.35294118 43.3142857,5.82352941 C43.3142857,5.23529412 43.4285714,4.70588235 43.6,4.17647059 C43.8285714,3.64705882 44.0571429,3.23529412 44.4,2.94117647 C44.7428571,2.64705882 45.0857143,2.52941176 45.4857143,2.52941176 C45.7714286,2.52941176 46,2.58823529 46.1714286,2.70588235 C46.3428571,2.82352941 46.5142857,3 46.6285714,3.23529412 L46.6857143,3.23529412 L46.9142857,2.58823529 L47.8857143,2.58823529 L46.8571429,7.47058824 L45.8857143,7.47058824 L45.9428571,6.82352941 L45.9428571,6.82352941 C45.6,7.35294118 45.1428571,7.58823529 44.6285714,7.58823529 Z M45.0857143,6.52941176 C45.2571429,6.52941176 45.4857143,6.41176471 45.6571429,6.23529412 C45.8285714,6.05882353 46,5.76470588 46.1142857,5.47058824 C46.2285714,5.11764706 46.2857143,4.76470588 46.2857143,4.35294118 C46.2857143,4.11764706 46.2285714,4 46.1142857,3.82352941 C46,3.70588235 45.8857143,3.64705882 45.6571429,3.64705882 C45.4857143,3.64705882 45.2571429,3.76470588 45.0857143,3.94117647 C44.9142857,4.17647059 44.8,4.41176471 44.6857143,4.76470588 C44.5714286,5.11764706 44.5142857,5.47058824 44.5142857,5.76470588 C44.5142857,6 44.5714286,6.23529412 44.6285714,6.35294118 C44.8,6.47058824 44.9142857,6.52941176 45.0857143,6.52941176 Z" id="Shape"></path>
                            <path d="M49.6571429,7.47058824 L48.4,7.47058824 L49.4285714,2.58823529 L50.6857143,2.58823529 L49.6571429,7.47058824 Z M48.7428571,1.47058824 C48.7428571,1.23529412 48.8,1.05882353 48.9142857,0.941176471 C49.0285714,0.823529412 49.2,0.764705882 49.4285714,0.764705882 C49.8285714,0.764705882 50,0.941176471 50,1.23529412 C50,1.47058824 49.9428571,1.58823529 49.8285714,1.76470588 C49.7142857,1.88235294 49.5428571,1.94117647 49.3142857,1.94117647 C48.9142857,1.94117647 48.7428571,1.76470588 48.7428571,1.47058824 Z M50.4571429,1.47058824 C50.4571429,1.23529412 50.5142857,1.05882353 50.6285714,0.941176471 C50.7428571,0.823529412 50.9142857,0.764705882 51.1428571,0.764705882 C51.3142857,0.764705882 51.4857143,0.823529412 51.5428571,0.882352941 C51.6571429,0.941176471 51.7142857,1.05882353 51.7142857,1.23529412 C51.7142857,1.47058824 51.6571429,1.58823529 51.5428571,1.76470588 C51.4285714,1.88235294 51.2571429,1.94117647 51.0285714,1.94117647 C50.6285714,1.94117647 50.4571429,1.76470588 50.4571429,1.47058824 Z" id="Shape"></path>
                            <polygon id="Path" points="53.3714286 2.64705882 52.9714286 4.52941176 54.4571429 4.52941176 54.8571429 2.64705882 56.1142857 2.64705882 55.0857143 7.52941176 53.8285714 7.52941176 54.2285714 5.52941176 52.7428571 5.52941176 52.3428571 7.52941176 51.0857143 7.52941176 52.1142857 2.64705882"></polygon>
                            <path d="M58.5714286,7.58823529 C58,7.58823529 57.5428571,7.41176471 57.2571429,7.11764706 C56.9714286,6.82352941 56.8,6.35294118 56.8,5.82352941 C56.8,5.23529412 56.9142857,4.64705882 57.1428571,4.11764706 C57.3714286,3.58823529 57.6571429,3.23529412 58,2.94117647 C58.4,2.64705882 58.8,2.52941176 59.3142857,2.52941176 C59.8285714,2.52941176 60.2857143,2.64705882 60.6857143,2.82352941 L60.2857143,3.82352941 C60.1142857,3.76470588 60,3.70588235 59.8285714,3.64705882 C59.6571429,3.58823529 59.5428571,3.58823529 59.3142857,3.58823529 C59.0857143,3.58823529 58.8571429,3.70588235 58.6857143,3.88235294 C58.5142857,4.05882353 58.3428571,4.29411765 58.2285714,4.64705882 C58.1142857,4.94117647 58.0571429,5.29411765 58.0571429,5.70588235 C58.0571429,6 58.1142857,6.17647059 58.2285714,6.35294118 C58.3428571,6.47058824 58.5142857,6.58823529 58.7428571,6.58823529 C58.9714286,6.58823529 59.1428571,6.52941176 59.3142857,6.47058824 C59.4857143,6.41176471 59.7142857,6.29411765 59.8857143,6.23529412 L59.8857143,7.29411765 C59.6,7.47058824 59.0857143,7.58823529 58.5714286,7.58823529 Z" id="Path"></path>
                            <path d="M62.8,4.58823529 C63.0285714,4.52941176 63.3714286,4.47058824 63.7142857,4.47058824 C64.1714286,4.47058824 64.5714286,4.58823529 64.8,4.82352941 C65.0857143,5.05882353 65.2,5.41176471 65.2,5.76470588 C65.2,6.11764706 65.0857143,6.41176471 64.9142857,6.70588235 C64.7428571,6.94117647 64.4571429,7.17647059 64.1714286,7.29411765 C63.8285714,7.41176471 63.4285714,7.52941176 62.9714286,7.52941176 C62.4,7.52941176 62,7.41176471 61.7142857,7.17647059 C61.4285714,6.94117647 61.2571429,6.58823529 61.2571429,6.11764706 C61.2571429,5.94117647 61.3142857,5.64705882 61.3714286,5.35294118 L61.9428571,2.58823529 L63.2,2.58823529 L62.8,4.58823529 Z M63.2571429,5.41176471 C63.0857143,5.41176471 62.8571429,5.41176471 62.5714286,5.47058824 C62.5142857,5.76470588 62.4571429,6 62.4571429,6.05882353 C62.4571429,6.23529412 62.5142857,6.35294118 62.6285714,6.47058824 C62.7428571,6.58823529 62.9142857,6.58823529 63.0857143,6.58823529 C63.3142857,6.58823529 63.5428571,6.52941176 63.6571429,6.41176471 C63.8285714,6.29411765 63.8857143,6.11764706 63.8857143,5.88235294 C63.8857143,5.58823529 63.7142857,5.41176471 63.2571429,5.41176471 Z" id="Shape"></path>
                            <polygon id="Path" points="69.6571429 2.64705882 71.0857143 2.64705882 69.0857143 5.05882353 70.2285714 7.47058824 68.8 7.47058824 67.7142857 5.11764706 67.2 7.47058824 65.9428571 7.47058824 66.9714286 2.58823529 68.2285714 2.58823529 67.7714286 4.82352941"></polygon>
                            <path d="M73.2571429,7.58823529 C72.6857143,7.58823529 72.2285714,7.41176471 71.8857143,7.11764706 C71.5428571,6.76470588 71.3714286,6.35294118 71.3714286,5.70588235 C71.3714286,5.11764706 71.4857143,4.52941176 71.7142857,4.05882353 C71.9428571,3.58823529 72.2857143,3.17647059 72.6857143,2.94117647 C73.0857143,2.70588235 73.5428571,2.52941176 74.0571429,2.52941176 C74.5714286,2.52941176 74.9714286,2.64705882 75.2,2.88235294 C75.4857143,3.11764706 75.6,3.47058824 75.6,3.88235294 C75.6,4.41176471 75.3714286,4.82352941 74.9142857,5.11764706 C74.4571429,5.41176471 73.7714286,5.58823529 72.9142857,5.58823529 L72.6857143,5.58823529 L72.6857143,5.70588235 L72.6857143,5.76470588 C72.6857143,6 72.7428571,6.23529412 72.9142857,6.41176471 C73.0857143,6.58823529 73.2571429,6.64705882 73.5428571,6.64705882 C73.7714286,6.64705882 74,6.64705882 74.2285714,6.58823529 C74.4571429,6.52941176 74.6857143,6.41176471 74.9714286,6.29411765 L74.9714286,7.29411765 C74.4571429,7.47058824 73.8857143,7.58823529 73.2571429,7.58823529 Z M73.9428571,3.47058824 C73.7142857,3.47058824 73.4857143,3.58823529 73.2571429,3.82352941 C73.0285714,4.05882353 72.9142857,4.35294118 72.8,4.64705882 L72.9714286,4.64705882 C73.4285714,4.64705882 73.7714286,4.58823529 74,4.41176471 C74.2285714,4.29411765 74.3428571,4.05882353 74.3428571,3.82352941 C74.4,3.58823529 74.2857143,3.47058824 73.9428571,3.47058824 Z" id="Shape"></path>
                        </g>
                        <g id="Group" transform="translate(60.000000, 6.000000)">
                            <g fill="#000000">
                                <path d="M12.6366667,1.02 C8.44333333,0.68 7.48,3.68333333 7.14,6.06333333 C4.08,4.64666667 1.07666667,5.83666667 1.19,7.87666667 C1.24666667,8.72666667 1.81333333,9.35 2.49333333,9.86 L2.49333333,9.86 C2.72,10.03 3.62666667,10.5966667 3.62666667,10.5966667 C4.08,10.8233333 4.42,10.9366667 4.87333333,11.1066667 C5.1,11.1633333 5.27,11.2766667 5.49666667,11.3333333 C5.72333333,11.39 5.95,11.4466667 6.12,11.5033333 C7.59333333,11.9566667 8.89666667,12.41 8.89666667,14.3366667 C12.5233333,10.71 15.5266667,8.27333333 15.9233333,4.81666667 L15.9233333,4.81666667 C15.98,3.96666667 16.15,1.36 12.6366667,1.02 Z" id="Path"></path>
                                <g id="Shape">
                                    <path d="M8.16,16.2066667 L8.16,14.45 C8.16,13.1466667 7.42333333,12.75 5.89333333,12.2966667 C5.72333333,12.24 5.55333333,12.1833333 5.32666667,12.1266667 L5.27,12.1266667 C5.04333333,12.07 4.87333333,11.9566667 4.64666667,11.9 C4.19333333,11.73 3.79666667,11.56 3.34333333,11.3333333 L3.28666667,11.3333333 C3.11666667,11.22 2.32333333,10.71 2.09666667,10.54 L1.87,10.37 C1.02,9.69 0.566666667,8.89666667 0.51,7.99 C0.453333333,7.02666667 0.906666667,6.12 1.75666667,5.55333333 C3.00333333,4.70333333 4.81666667,4.53333333 6.63,5.1 C7.36666667,1.64333333 9.46333333,0.0566666667 12.75,0.34 C14.1666667,0.453333333 15.2433333,0.963333333 15.9233333,1.81333333 C16.6033333,2.60666667 16.83,3.74 16.66,5.04333333 L16.66,5.1 C16.32,8.27333333 13.94,10.5966667 10.9366667,13.5433333 C10.4266667,13.9966667 9.97333333,14.5066667 9.46333333,15.0166667 L8.16,16.2066667 Z M4.02333333,10.03 C4.42,10.2566667 4.70333333,10.37 5.15666667,10.4833333 C5.38333333,10.54 5.55333333,10.6533333 5.72333333,10.71 L5.78,10.71 C5.95,10.7666667 6.12,10.8233333 6.29,10.88 C7.31,11.1633333 8.72666667,11.6166667 9.29333333,12.92 C9.46333333,12.75 9.63333333,12.58 9.86,12.41 C12.6366667,9.69 14.8466667,7.53666667 15.13,4.81666667 L15.13,4.76 C15.2433333,3.85333333 15.13,3.11666667 14.7333333,2.66333333 C14.3366667,2.15333333 13.6,1.81333333 12.5233333,1.75666667 L12.5233333,1.75666667 C9.74666667,1.53 8.27333333,2.89 7.82,6.17666667 L7.70666667,7.14 L6.8,6.74333333 C4.98666667,5.89333333 3.34333333,6.12 2.49333333,6.68666667 C2.04,6.97 1.87,7.36666667 1.87,7.82 C1.92666667,8.33 2.26666667,8.84 2.89,9.29333333 L2.94666667,9.35 C3.17333333,9.52 3.68333333,9.86 4.02333333,10.03 Z"></path>
                                    <path d="M7.87666667,16.83 L7.87666667,14.45 C7.87666667,13.3733333 7.36666667,13.0333333 5.83666667,12.58 C5.66666667,12.5233333 5.49666667,12.4666667 5.32666667,12.41 L5.21333333,12.41 C5.1,12.3533333 4.98666667,12.3533333 4.87333333,12.2966667 C4.76,12.24 4.70333333,12.24 4.59,12.1833333 C4.08,12.0133333 3.74,11.8433333 3.28666667,11.6166667 L3.23,11.6166667 L2.94666667,11.39 C2.60666667,11.1633333 2.15333333,10.88 1.98333333,10.7666667 L1.75666667,10.5966667 C0.85,9.86 0.34,9.01 0.283333333,7.99 C0.226666667,6.91333333 0.736666667,5.89333333 1.64333333,5.32666667 C2.89,4.47666667 4.64666667,4.25 6.46,4.76 C7.25333333,1.41666667 9.46333333,-0.226666667 12.8066667,0.0566666667 C14.28,0.17 15.47,0.736666667 16.15,1.64333333 C16.83,2.49333333 17.1133333,3.68333333 16.9433333,5.1 L16.9433333,5.1 C16.6033333,8.38666667 14.2233333,10.7666667 11.1633333,13.7133333 L11.1066667,13.77 C10.7666667,14.0533333 10.4833333,14.3933333 10.1433333,14.7333333 C9.97333333,14.9033333 9.80333333,15.0733333 9.63333333,15.2433333 L7.87666667,16.83 Z M5.32666667,11.8433333 L5.44,11.8433333 C5.66666667,11.9 5.83666667,11.9566667 6.00666667,12.0133333 C7.42333333,12.4666667 8.44333333,12.8633333 8.44333333,14.45 L8.44333333,15.5833333 L9.29333333,14.8466667 C9.46333333,14.6766667 9.63333333,14.5066667 9.80333333,14.3366667 C10.1433333,13.9966667 10.4266667,13.6566667 10.7666667,13.3733333 C13.7133333,10.4833333 16.0933333,8.16 16.3766667,5.1 L16.3766667,5.1 C16.5466667,3.79666667 16.32,2.77666667 15.6966667,2.04 C15.0733333,1.24666667 14.0533333,0.793333333 12.6933333,0.68 C9.52,0.396666667 7.59333333,1.92666667 6.85666667,5.21333333 L6.8,5.49666667 L6.51666667,5.38333333 C4.81666667,4.81666667 3.06,4.98666667 1.87,5.78 C1.13333333,6.29 0.68,7.08333333 0.736666667,7.99 C0.793333333,8.84 1.19,9.52 1.98333333,10.1433333 L2.21,10.3133333 C2.38,10.4266667 2.83333333,10.7666667 3.17333333,10.9366667 L3.45666667,11.05 C3.91,11.2766667 4.25,11.4466667 4.76,11.6166667 C4.87333333,11.6166667 4.98666667,11.6733333 5.1,11.73 C5.15666667,11.7866667 5.21333333,11.8433333 5.32666667,11.8433333 Z M9.18,13.43 L9.01,13.0333333 C8.44333333,11.7866667 6.97,11.39 6.17666667,11.1633333 L5.61,10.9933333 C5.55333333,10.9933333 5.44,10.9366667 5.38333333,10.88 C5.27,10.8233333 5.21333333,10.7666667 5.1,10.7666667 C4.64666667,10.6533333 4.30666667,10.54 3.91,10.3133333 C3.57,10.1433333 3.06,9.80333333 2.77666667,9.63333333 L2.66333333,9.57666667 C2.04,9.12333333 1.64333333,8.55666667 1.58666667,7.93333333 C1.58666667,7.31 1.81333333,6.85666667 2.32333333,6.51666667 C3.17333333,5.95 4.87333333,5.61 6.91333333,6.57333333 L7.48,6.8 L7.53666667,6.23333333 C7.99,2.83333333 9.57666667,1.30333333 12.5233333,1.58666667 C13.6,1.64333333 14.45,1.98333333 14.96,2.60666667 C15.4133333,3.11666667 15.5266667,3.85333333 15.4133333,4.93 L15.4133333,4.93 C15.13,7.76333333 12.92,9.91666667 10.0866667,12.6933333 L10.03,12.75 C9.80333333,12.92 9.69,13.09 9.52,13.2033333 L9.18,13.43 Z M5.78,10.4266667 L5.89333333,10.4266667 L6.40333333,10.5966667 C7.19666667,10.8233333 8.67,11.22 9.40666667,12.41 C9.52,12.2966667 9.63333333,12.24 9.74666667,12.1266667 C12.4666667,9.46333333 14.62,7.31 14.9033333,4.70333333 L14.9033333,4.70333333 C15.0166667,3.79666667 14.9033333,3.17333333 14.5633333,2.77666667 C14.1666667,2.26666667 13.4866667,2.04 12.5233333,1.98333333 C9.86,1.75666667 8.55666667,3.00333333 8.10333333,6.17666667 L7.93333333,7.53666667 L6.68666667,6.97 C4.98666667,6.17666667 3.45666667,6.34666667 2.66333333,6.91333333 C2.32333333,7.14 2.15333333,7.42333333 2.15333333,7.82 C2.21,8.21666667 2.49333333,8.67 3.06,9.06666667 L3.17333333,9.18 C3.34333333,9.29333333 3.85333333,9.63333333 4.19333333,9.80333333 L4.19333333,9.80333333 C4.59,10.03 4.81666667,10.1433333 5.27,10.2 C5.44,10.2566667 5.55333333,10.3133333 5.66666667,10.37 C5.66666667,10.37 5.72333333,10.4266667 5.78,10.4266667 Z"></path>
                                </g>
                            </g>
                            <path d="M15.6966667,3.57 L3.00333333,10.2566667 C2.04,9.69 1.24666667,8.95333333 1.19,7.93333333 C1.02,5.89333333 4.08,4.70333333 7.14,6.12 C7.48,3.74 8.5,0.68 12.6366667,1.07666667 C14.6766667,1.24666667 15.81,2.04 15.6966667,3.57 Z" id="Path" fill="#01A2E8"></path>
                            <path d="M15.9233333,4.25 C15.9233333,8.04666667 12.6933333,10.5966667 8.89666667,14.45 C8.89666667,12.58 7.59333333,12.07 6.12,11.6166667 C5.95,11.56 5.72333333,11.5033333 5.49666667,11.4466667 C5.32666667,11.39 5.1,11.3333333 4.87333333,11.22 C4.42,11.05 4.08,10.9366667 3.62666667,10.71 L15.9233333,4.25 Z" id="Path" fill="#FFF303"></path>
                        </g>
                    </g>
                </g>
            </g>
        </g>
    </g>
</svg>