<?xml version="1.0" encoding="UTF-8"?>
<svg width="150px" height="61px" viewBox="0 0 150 61" version="1.1" xmlns="http://www.w3.org/2000/svg" xmlns:xlink="http://www.w3.org/1999/xlink">
    <title>nlogo</title>
    <g id="Symbols" stroke="none" stroke-width="1" fill="none" fill-rule="evenodd">
        <g id="Footer-768" transform="translate(-309.000000, -40.000000)" fill-rule="nonzero">
            <g id="nlogo">
                <g transform="translate(309.000000, 40.000000)">
                    <path d="M29.7073171,28.2183908 C30.0487805,30 29.7073171,32.0689655 29.1382114,33.8505747 C27.203252,39.9425287 21.6260163,44.1954023 16.0487805,46.7241379 C13.7154472,47.816092 11.0406504,48.7356322 8.4796748,49.2528736 C6.88617886,49.5402299 5.3495935,49.6551724 3.81300813,49.3678161 C3.01626016,49.2528736 0.796747967,49.0804598 0.284552846,48.3333333 C-0.227642276,47.7011494 0.341463415,47.7586207 0.967479675,47.6436782 C2.44715447,47.4137931 3.8699187,47.183908 5.23577236,46.7241379 C8.4796748,45.7471264 11.6097561,44.2528736 14.4552846,42.5287356 C17.1869919,40.862069 19.6910569,38.9655172 21.796748,36.6091954 C22.7642276,35.4597701 23.6747967,34.2528736 24.300813,32.8735632 C24.5853659,32.183908 25.2113821,30.1149425 24.9268293,29.8275862 C24.8130081,29.7701149 24.6422764,28.7931034 24.6422764,28.2183908 C24.699187,28.5632184 24.8699187,28.9655172 24.9268293,29.1954023 C24.8699187,28.6206897 24.7560976,28.045977 24.5284553,27.4712644 L24.5284553,27.6436782 C24.3577236,27.4137931 23.7886179,26.6666667 23.7317073,26.6666667 C23.2764228,26.2068966 22.7073171,25.9770115 22.0813008,25.9195402 C20.8292683,25.7471264 19.9756098,26.4367816 18.8943089,26.7241379 C17.5853659,27.0689655 13.8292683,24.6551724 15.3089431,23.5057471 C15.9918699,22.9885057 17.0162602,22.7586207 17.8130081,22.2413793 C19.0650407,21.3218391 20.3170732,20.3448276 21.4552846,19.1954023 C22.7073171,17.9885057 23.7317073,16.6666667 24.7560976,15.2873563 C24.9837398,14.9425287 26.6341463,12.0689655 26.9186992,12.1264368 C26.9186992,12.1264368 26.5203252,13.045977 26.5203252,13.1034483 C27.0894309,12.0114943 27.6585366,10.9195402 28.0569106,9.82758621 L28.0569106,9.77011494 L28.1138211,9.71264368 L28.1707317,9.54022989 C28.8536585,7.98850575 29.4796748,4.82758621 28.1138211,4.48275862 C27.203252,4.25287356 26.1219512,5.57471264 25.5528455,6.14942529 C22.6504065,9.02298851 20.1463415,12.4712644 17.9268293,15.9195402 C16.6747967,17.8735632 15.4796748,19.8275862 14.2845528,21.8390805 C13.5447154,23.045977 12.5772358,24.0229885 12.0650407,25.2298851 C10.4715447,28.9655172 8.82113821,32.5862069 7.56910569,36.4942529 C6.94308943,38.5057471 6.54471545,40.5172414 6.20325203,42.5862069 L6.03252033,42.2988506 C4.6097561,43.8505747 2.50406504,42.7586207 1.82113821,41.091954 C1.08130081,39.3678161 1.4796748,36.8965517 1.53658537,35.1149425 C1.6504065,32.9310345 1.76422764,30.7471264 2.27642276,28.6206897 C2.50406504,27.7586207 2.78861789,26.954023 3.07317073,26.1494253 C3.1300813,25.9195402 3.30081301,24.3678161 3.41463415,24.3103448 C3.41463415,24.3678161 3.41463415,24.4252874 3.47154472,24.4827586 C3.47154472,24.3678161 3.52845528,24.2528736 3.52845528,24.137931 C3.30081301,24.6551724 3.47154472,23.3333333 3.52845528,23.2758621 C3.64227642,22.7011494 3.81300813,22.1264368 3.98373984,21.6091954 C4.26829268,20.5747126 4.55284553,19.6551724 4.72357724,18.6206897 C4.83739837,18.2758621 6.08943089,13.6781609 6.60162602,13.7931034 C6.71544715,13.8505747 6.48780488,14.137931 6.54471545,14.1954023 L6.88617886,13.045977 C6.71544715,12.9885057 9.16260163,7.52873563 9.3902439,7.06896552 C10.300813,5.34482759 10.9837398,3.67816092 12.4634146,2.4137931 C13.3739837,1.66666667 14.5121951,-0.517241379 16.1626016,0.114942529 C16.902439,0.402298851 17.699187,1.55172414 17.7560976,2.35632184 C17.7560976,2.98850575 17.4715447,3.10344828 17.1300813,3.44827586 C17.1869919,3.3908046 17.300813,3.33333333 17.3577236,3.33333333 C17.4715447,3.3908046 16.1056911,5.11494253 15.9918699,5.05747126 C15.9349593,5.05747126 16.1626016,4.71264368 16.2764228,4.42528736 C14.4552846,6.95402299 13.0325203,9.71264368 11.7804878,12.6436782 C12.2926829,11.5517241 14.398374,7.18390805 14.7398374,7.01149425 C14.5121951,7.18390805 12.0650407,12.4137931 11.8373984,12.8735632 C10.9837398,14.9425287 10.1869919,17.0114943 9.61788618,19.137931 C9.04878049,21.2068966 8.6504065,23.2758621 8.08130081,25.3448276 C7.62601626,27.0114943 6.94308943,28.8505747 6.71544715,30.5172414 C6.77235772,30.4022989 6.82926829,30.2873563 6.94308943,30.2298851 C7,30.1724138 6.71544715,32.6436782 6.71544715,32.816092 L6.48780488,34.7701149 C8.70731707,27.2413793 12.3495935,20.1149425 16.6747967,13.6781609 C15.0243902,16.0344828 13.4878049,18.5057471 12.0650407,21.0344828 C11.3821138,22.2988506 10.7560976,23.6206897 10.1300813,24.8850575 C9.67479675,25.8045977 8.70731707,27.2988506 8.53658537,28.2183908 C8.6504065,27.3563218 9.33333333,26.3218391 9.73170732,25.5172414 C10.1300813,24.5402299 10.5853659,23.6206897 11.097561,22.7011494 C11.9512195,20.9770115 12.8617886,19.3103448 13.8292683,17.6436782 C15.9918699,14.1954023 18.3252033,10.8045977 20.8861789,7.64367816 C22.1382114,6.09195402 23.4471545,4.59770115 24.8130081,3.2183908 C26.0081301,2.29885057 27.4878049,0.689655172 29.0243902,0.402298851 C31.8699187,-0.0574712644 33.6910569,2.93103448 33.9186992,5.40229885 C34.8292683,12.816092 28.4552846,20.4597701 22.0243902,23.2758621 C25.4390244,22.9885057 28.9105691,24.5977011 29.7073171,28.2183908 Z M4.43902439,28.3908046 C4.49593496,28.1034483 4.49593496,27.7586207 4.49593496,27.5287356 C4.26829268,28.045977 3.8699187,28.6206897 3.75609756,29.0804598 C3.47154472,30.1724138 3.30081301,31.7241379 3.41463415,32.816092 C3.35772358,32.0689655 3.52845528,30.9195402 3.81300813,30.1724138 C4.04065041,29.6551724 4.32520325,29.0804598 4.43902439,28.3908046 Z M11.0406504,14.7126437 C10.9837398,14.8275862 10.9268293,14.9425287 10.9268293,15 L11.0406504,14.7126437 Z M11.8943089,12.7586207 C11.8373984,12.816092 11.7804878,12.9310345 11.7804878,12.9885057 L11.8943089,12.7586207 Z M25.2682927,33.1034483 L25.0406504,33.6781609 C24.1869919,35.4597701 23.2195122,36.8965517 21.9105691,38.3908046 L20.203252,40.2298851 C20.8292683,39.7701149 21.5691057,39.4827586 22.3089431,38.8505747 C23.0487805,38.1609195 23.9593496,37.1264368 24.300813,36.1494253 C24.6422764,35.3448276 25.2113821,33.9655172 25.2682927,33.1034483 Z M20.3739837,8.73563218 L20.7154472,8.3908046 L20.3739837,8.73563218 Z M28.6829268,17.1264368 C29.1382114,16.6091954 29.5365854,16.091954 29.9918699,15.6321839 C31.2439024,14.1954023 31.8699187,12.816092 32.3821138,11.091954 C31.8699187,12.2413793 31.1300813,13.3333333 30.6178862,14.2528736 C30.0487805,15.2298851 29.3658537,16.2068966 28.6829268,17.1264368 Z" id="Shape" fill="#FFFFFF"></path>
                    <path d="M67.0406504,5.28735632 C66.5853659,5.40229885 66.1300813,5.34482759 65.7317073,5.51724138 C65.5609756,5.40229885 65.4471545,5.40229885 65.2195122,5.51724138 C65.2764228,5.63218391 65.2195122,5.74712644 65.1626016,5.74712644 C64.3089431,6.14942529 63.2845528,6.43678161 62.3170732,6.55172414 C61.2926829,6.7816092 60.2682927,7.06896552 59.2439024,7.24137931 C58.8455285,7.29885057 58.3902439,7.29885057 57.9918699,7.47126437 C57.4796748,7.64367816 57.5934959,7.70114943 57.2520325,7.81609195 C56.3414634,8.16091954 55.3739837,8.16091954 54.4634146,8.27586207 C53.9512195,8.3908046 53.3821138,8.50574713 52.8699187,8.67816092 L51.9593496,8.85057471 C51.9593496,9.02298851 51.8455285,9.13793103 51.7317073,9.25287356 C51.7317073,9.08045977 51.7317073,9.02298851 51.8455285,8.85057471 C51.5609756,8.90804598 50.9918699,10.9770115 50.8780488,11.2643678 L49.796748,14.0229885 C49.2845528,15.3448276 48.7723577,16.6666667 48.3170732,17.9885057 C48.9430894,16.2643678 49.7398374,14.1954023 50.195122,13.1034483 C49.1138211,15.7471264 46.3252033,23.7356322 45.9837398,24.5977011 C48.203252,24.3678161 50.4796748,24.1954023 52.6422764,23.908046 C53.8373984,23.7356322 54.9186992,23.6206897 56.1138211,23.5632184 L56.796748,23.5632184 C56.9674797,23.5057471 57.0813008,23.2758621 57.195122,23.3333333 C57.8211382,23.5632184 57.6504065,24.0229885 57.2520325,24.3678161 C56.5691057,24.9425287 55.5447154,24.7126437 54.7479675,24.9425287 C54.3495935,25.0574713 54.5203252,25.1724138 54.0650407,25.3448276 C53.6097561,25.6321839 52.8130081,25.6896552 52.300813,25.8045977 C51.3333333,25.9195402 50.4227642,26.091954 49.4552846,26.2643678 C48.7154472,26.3793103 48.3739837,26.7816092 47.5203252,26.8965517 C46.8373984,27.0114943 45.5853659,26.8965517 45.0162602,27.2988506 C44.7317073,27.5287356 44.4471545,28.9655172 44.2764228,29.3678161 L43.6504065,31.2643678 C42.9105691,33.7931034 42,36.2068966 41.1463415,38.6781609 C40.6341463,40 40.1788618,41.3793103 39.7235772,42.7011494 C39.4390244,43.6206897 38.9837398,44.4252874 38.9268293,45.4022989 C38.9268293,45.5747126 39.1544715,44.4252874 39.2682927,44.5977011 C39.4390244,44.7701149 39.2113821,45.3448276 39.2682927,45.5747126 C41.4878049,45.1724138 43.8780488,43.6206897 45.8699187,42.5287356 C47.804878,41.4942529 49.6829268,40.2873563 51.6178862,39.3103448 C52.5284553,38.8505747 53.0406504,39.0804598 52.6422764,40.1149425 C52.300813,41.091954 51.3333333,42.0689655 50.5365854,42.816092 C49.398374,43.8505747 48.3170732,44.8850575 47.1219512,45.862069 C44.6747967,47.7011494 41.0894309,50.4597701 37.902439,49.0804598 C35.9105691,48.2758621 33.804878,46.3218391 34.0325203,43.9655172 C34.1463415,42.9885057 34.7154472,42.2988506 35.1707317,41.4942529 C35.2845528,41.2643678 35.7398374,39.1954023 35.9674797,39.137931 C35.9674797,39.137931 35.796748,39.6551724 35.7398374,39.8275862 L35.9674797,39.0804598 C35.9105691,39.0229885 36.1382114,38.2758621 36.1382114,38.1609195 L36.7073171,36.7241379 C37.0487805,35.8045977 37.4471545,34.9425287 37.7886179,33.9655172 C38.5284553,32.183908 38.8699187,30.2873563 39.6097561,28.5057471 C38.2439024,28.5057471 36.0243902,26.6091954 37.902439,25.7471264 C37.9593496,25.7471264 38.0162602,25.7471264 38.0162602,25.6896552 C38.699187,25.4597701 39.5528455,25.5172414 40.2357724,25.4597701 C40.5203252,25.4022989 40.8617886,25.2298851 41.0894309,25.2298851 C41.1463415,25.2298851 41.203252,24.8275862 41.3170732,24.8850575 C41.3170732,24.8850575 41.203252,25.2873563 41.1463415,25.3448276 C41.3739837,25.2873563 41.7723577,23.908046 41.8861789,23.3908046 C41.8292683,23.5632184 41.7154472,23.6781609 41.6585366,23.8505747 C41.7154472,23.8505747 45.8130081,11.3793103 46.1544715,10.2298851 C44.504065,10.4597701 41.4878049,10.1724138 41.7723577,7.81609195 C41.8292683,7.24137931 42.0569106,6.95402299 42.6829268,6.72413793 C44.0487805,6.20689655 46.9512195,6.95402299 47.804878,5.68965517 C48.4878049,4.77011494 47.9186992,3.50574713 49.1138211,3.10344828 C49.9674797,2.81609195 51.1626016,3.33333333 51.8455285,3.85057471 C52.2439024,4.13793103 52.4715447,4.54022989 52.8130081,4.88505747 C52.9268293,5.05747126 52.9837398,5.17241379 52.9837398,5.40229885 L53.9512195,5.22988506 C56.2845528,5 58.6178862,4.82758621 61.0081301,4.48275862 C63.2276423,4.25287356 65.4471545,3.85057471 67.6666667,3.79310345 C67.8943089,3.79310345 68.2926829,3.79310345 68.4634146,3.73563218 C68.6341463,3.73563218 68.804878,3.50574713 68.8617886,3.50574713 C69.0894309,3.50574713 69.4308943,3.50574713 69.4878049,3.90804598 C69.601626,4.77011494 67.6097561,5.11494253 67.0406504,5.28735632 Z M45.3577236,16.091954 C44.8455285,17.4137931 44.2195122,18.7356322 43.8211382,20.0574713 L41.4308943,26.7241379 C42.1138211,25.1724138 42.796748,23.7931034 43.4796748,22.183908 C44.2764228,20.2298851 44.7317073,17.9885057 45.3577236,16.091954 Z M46.4390244,22.8735632 L45.7560976,24.5402299 C45.9268293,24.5402299 45.9837398,24.3678161 45.9837398,24.137931 L46.4390244,22.8735632 Z M50.1382114,13.045977 L50.3089431,12.7011494 L50.1382114,13.045977 Z M50.3658537,12.5287356 C50.3658537,12.5287356 50.4227642,12.4137931 50.4227642,12.3563218 C50.4227642,12.4137931 50.3658537,12.4712644 50.3658537,12.5287356 Z M50.5365854,12.2413793 C50.4796748,12.2413793 50.4796748,12.2988506 50.4227642,12.3563218 C50.4796748,12.2988506 50.4796748,12.2413793 50.5365854,12.2413793 Z" id="Shape" fill="#FFFFFF"></path>
                    <path d="M72.8980892,32.2117647 C71.9808917,33.5105882 71.1783439,34.7529412 70.1464968,35.9952941 C69.1146497,37.4070588 67.7961783,39.6094118 65.9044586,40.0611765 C65.5031847,40.1176471 63.4968153,39.6094118 63.5541401,39.2705882 L63.6687898,39.2705882 C63.2675159,39.0447059 63.6687898,39.5529412 63.0382166,39.0447059 C62.5796178,38.7058824 62.2356688,38.2541176 61.9490446,37.8023529 C61.3757962,37.0117647 60.6305732,36.3341176 60.4012739,35.4305882 C60.343949,35.1482353 60.2292994,33.2847059 60.6878981,33.2847059 C60.8025478,33.2847059 60.6878981,33.5670588 60.7452229,33.5670588 L60.9171975,32.6070588 C60.8598726,32.72 60.8598726,32.7764706 60.7452229,32.8329412 C60.5159236,32.7764706 61.5477707,29.1058824 61.6624204,28.7670588 C62.0636943,27.6941176 62.2929936,26.4517647 63.3248408,25.8305882 C64.1273885,25.3223529 65.1019108,25.4352941 66.133758,25.8305882 C66.5350318,26 67.7961783,26.5082353 67.7961783,27.0164706 C67.7961783,27.3552941 67.5095541,27.3552941 67.3949045,27.5247059 C67.4522293,27.4682353 67.566879,27.4682353 67.6242038,27.4682353 C67.7961783,27.5811765 66.9936306,28.6541176 66.8789809,28.5976471 C66.7643312,28.5976471 66.9363057,28.3152941 66.9936306,28.2023529 C65.9617834,29.84 65.1592357,31.6470588 64.5286624,33.4541176 C64.8152866,32.7764706 66.133758,29.84 66.2484076,29.8964706 C66.4203822,29.9529412 62.7515924,36.1647059 64.5859873,37.0682353 C65.4458599,37.4635294 66.8789809,36.1647059 67.4522293,35.7129412 C68.4840764,34.9223529 69.8025478,33.9623529 70.5477707,33.0588235 C70.433121,33.1717647 70.3184713,33.1717647 70.2038217,33.1717647 C69.9745223,32.8894118 72.611465,29.5011765 73.1273885,29.1623529 C73.4713376,28.88 74.2165605,28.7105882 74.3312102,29.3882353 C74.388535,30.4047059 73.4140127,31.5341176 72.8980892,32.2117647 Z M63.8980892,35.2047059 L63.7834395,35.6 L63.8980892,35.2611765 L63.8980892,35.2047059 C63.955414,35.1482353 63.955414,35.1482353 63.8980892,35.2047059 Z M65.044586,20.8047059 C65.1019108,20.8047059 65.1019108,20.8611765 65.044586,20.8047059 C65.1592357,20.8047059 65.1592357,20.8047059 65.1592357,20.7482353 C65.1019108,20.8047059 65.1019108,20.8047059 65.044586,20.8047059 Z M65.8471338,19.4494118 C65.7324841,19.6752941 65.6178344,19.7882353 65.6178344,19.7882353 L65.8471338,19.4494118 Z" id="Shape" fill="#FFFFFF"></path>
                    <path d="M89.7515924,33.68 C88.6050955,35.1482353 87.5159236,36.6729412 86.2547771,38.0282353 C85.2802548,38.9882353 83.7324841,40.6823529 82.2420382,40.2305882 C81.8980892,40.1176471 79.9490446,39.1011765 80.0063694,38.8188235 L80.1783439,38.9317647 L79.8343949,38.5929412 C80.1210191,38.9882353 79.4904459,38.48 79.4904459,38.48 C79.2038217,38.1976471 79.0318471,37.8023529 78.8598726,37.4635294 C78.5732484,36.8988235 78.5159236,36.3341176 78.5159236,35.7694118 C78.5159236,35.2047059 78.6305732,34.64 78.6878981,34.0752941 C78.8025478,32.8894118 78.8598726,31.8164706 79.2038217,30.6870588 C79.3184713,30.4047059 80.4076433,27.5247059 80.8089172,27.6376471 C80.9235669,27.6376471 80.6369427,27.9764706 80.6942675,28.0329412 L81.4394904,26.5647059 C81.3248408,26.6776471 81.2675159,26.7905882 81.1528662,26.8470588 C81.0955414,26.7905882 81.7834395,25.6047059 81.955414,25.3223529 C80.9235669,26.5082353 80.0636943,27.7505882 79.089172,28.9929412 C78.4012739,29.8964706 77.5414013,30.4611765 77.0828025,31.3082353 C75.9936306,33.1717647 74.6178344,34.9223529 73.7006369,36.8423529 L73.4713376,36.4470588 C72.4968153,37.5764706 71.1210191,36.2211765 70.5477707,35.3741176 C70.089172,34.5270588 70.2038217,33.9058824 70.3184713,33.0023529 C70.433121,32.1552941 70.3757962,31.3647059 70.6624204,30.4611765 C71.0063694,29.3882353 71.4076433,28.3152941 71.8089172,27.2423529 C72.1528662,26.1694118 72.5541401,25.04 72.955414,23.9670588 C73.2420382,23.2894118 73.7579618,22.4423529 73.9299363,21.7082353 C74.1019108,21.1435294 73.9299363,20.7482353 74.6178344,20.3529412 C75.2484076,20.0141176 75.9363057,20.0141176 76.6242038,20.1270588 C77.4840764,20.2964706 78.9745223,21.1435294 78.1146497,22.4423529 C77.7707006,22.8941176 77.0828025,23.4023529 76.6815287,23.9670588 C76.2229299,24.5317647 76.2802548,24.8141176 76.0509554,25.4917647 C75.9363057,25.8870588 75.5350318,26.2823529 75.3057325,26.6776471 C74.9617834,27.2423529 74.7898089,27.9764706 74.5605096,28.6541176 C74.4458599,29.0494118 74.5031847,29.3882353 74.4458599,29.7835294 C74.3312102,30.8564706 73.9872611,31.9858824 73.8726115,33.0588235 C73.9299363,32.8329412 74.2738854,32.4941176 74.3312102,32.5505882 C74.388535,32.6070588 73.8152866,33.5105882 73.8726115,33.5105882 L76.9681529,29.0494118 C76.2802548,29.9529412 75.7643312,30.5741176 75.7643312,30.5741176 C75.5923567,30.4611765 81.8980892,22.5552941 82.6433121,21.8776471 C84.1910828,20.4658824 86.1401274,20.5223529 86.8853503,22.9505882 C87.7452229,25.5482353 84.9936306,27.2423529 83.7324841,29.1623529 C83.044586,30.1788235 82.4713376,31.4776471 81.955414,32.5505882 C81.611465,33.2282353 80.8089172,34.7529412 80.6942675,35.8823529 C80.8089172,35.0917647 81.3821656,34.1882353 81.611465,33.6235294 C82.0127389,32.5505882 82.6433121,31.6470588 83.4458599,30.8564706 C83.1019108,31.5341176 82.6433121,32.1552941 82.3566879,32.7764706 L82.6433121,32.4376471 C82.7579618,32.4376471 82.1847134,34.1882353 82.1273885,34.3011765 C81.8980892,34.9223529 81.7261146,35.6 81.6687898,36.2776471 C81.611465,36.3341176 81.6687898,37.1811765 81.6687898,37.1811765 L81.7261146,37.2376471 C81.7261146,37.1811765 82.0700637,37.1247059 82.1847134,37.0682353 C82.9872611,36.7858824 83.7898089,36.0517647 84.4203822,35.5435294 C85.6815287,34.5835294 86.8853503,33.4541176 88.089172,32.4376471 C89.0063694,31.5905882 90.1528662,30.8 90.8980892,29.8964706 C91.2420382,29.4447059 91.9299363,28.5976471 92.2165605,29.84 C92.388535,31.0823529 90.3821656,32.8329412 89.7515924,33.68 Z" id="Path" fill="#FFFFFF"></path>
                    <path d="M121.738854,15.0447059 C121.796178,14.9882353 121.853503,14.9882353 121.910828,14.9882353 C122.025478,15.0447059 120.764331,16.9647059 120.592357,16.8517647 C120.477707,16.8517647 121.050955,15.9482353 120.993631,15.9482353 C119.159236,18.6588235 117.66879,21.5388235 116.407643,24.4752941 C117.038217,23.1764706 118.929936,19.2235294 119.33121,18.9411765 C118.987261,19.3929412 116.579618,24.5317647 116.350318,25.04 C115.433121,27.1294118 114.630573,29.3317647 114,31.4776471 C113.426752,33.6235294 112.968153,35.7694118 112.33758,37.8588235 C111.821656,39.6658824 111.076433,41.7552941 110.847134,43.4494118 C110.904459,43.2235294 110.961783,43.0541176 111.133758,42.8282353 C111.076433,42.8847059 111.076433,45.3129412 111.133758,45.7082353 C111.248408,46.3294118 111.133758,46.4423529 111.649682,46.3858824 C112.566879,46.2729412 113.598726,44.8047059 114.11465,44.24 C114.458599,43.7882353 115.146497,42.5458824 115.77707,42.32 C116.178344,42.0941176 116.292994,42.1505882 116.522293,42.6588235 C116.866242,43.3929412 116.292994,44.8047059 116.063694,45.5388235 C115.719745,46.4423529 115.261146,47.12 114.745223,47.8541176 C113.942675,48.9835294 113.082803,49.8305882 111.592357,49.7741176 C110.159236,49.6611765 108.898089,49.04 108.038217,47.9105882 C106.66242,46.0470588 106.490446,43.5058824 106.77707,41.3035294 C106.89172,40.4564706 107.178344,39.7788235 107.407643,39.0447059 C107.464968,38.7623529 107.464968,37.2376471 107.636943,37.1811765 C107.694268,37.2376471 107.694268,37.2941176 107.694268,37.3505882 C107.751592,37.2376471 107.751592,37.1247059 107.751592,37.0117647 C107.636943,37.1247059 107.751592,35.8823529 107.866242,35.6 C108.038217,34.9223529 108.210191,34.2447059 108.43949,33.5670588 C108.783439,32.3247059 108.898089,31.0823529 109.356688,29.84 C107.866242,32.1552941 106.375796,34.5835294 104.770701,36.7858824 C103.165605,38.8188235 101.44586,40.6258824 99.7261146,42.4894118 C99.7261146,42.4894118 99.1528662,43.28 98.866242,43.3929412 C99.0382166,43.28 99.4968153,42.7152941 99.4968153,42.7152941 L98.4649682,43.6752941 C99.0382166,43.28 98.1783439,44.1270588 98.0063694,44.24 C97.7197452,44.5223529 97.3757962,44.6352941 96.9745223,44.6917647 C96.6305732,44.7482353 96.1719745,44.6352941 95.8280255,44.5223529 C93.6496815,43.8447059 91.6433121,41.9811765 90.5541401,40.0611765 C89.9808917,38.9882353 89.9235669,37.8588235 89.9808917,36.6729412 C90.0955414,35.5435294 90.2675159,34.4141176 90.4394904,33.3411765 C90.5541401,33.0023529 91.0127389,30.7435294 91.2420382,30.7435294 C91.2420382,30.7435294 91.1273885,31.4211765 91.1847134,31.4211765 C91.4140127,30.4611765 91.5859873,29.5576471 91.8726115,28.6541176 L91.5286624,29.3317647 C91.4140127,28.5411765 92.1592357,27.1858824 92.388535,26.4517647 C92.6178344,25.7176471 92.7898089,24.9835294 93.0764331,24.2494118 C93.6496815,22.3858824 94.3375796,20.5788235 95.1974522,18.7717647 C96.0573248,16.8517647 96.8025478,14.8752941 97.7197452,13.0117647 C98.1783439,12.1082353 98.5796178,11.0917647 99.2675159,10.3011765 C99.6687898,9.84941176 99.8980892,9.73647059 100.184713,9.11529412 C100.929936,7.53411765 101.847134,5.72705882 102.936306,4.31529412 C103.165605,4.03294118 103.33758,3.80705882 103.681529,3.58117647 C105.229299,2.79058824 107.063694,4.42823529 107.694268,5.72705882 C108.095541,6.85647059 107.751592,7.25176471 107.235669,7.92941176 C107.407643,7.81647059 107.579618,7.70352941 107.579618,7.76 C107.579618,8.09882353 105.458599,10.9223529 105.229299,10.8658824 C105.229299,10.8658824 105.687898,10.0752941 105.974522,9.68 C104.770701,11.3176471 103.681529,13.0682353 102.707006,14.8752941 C102.878981,14.6494118 103.050955,14.48 103.10828,14.4235294 C102.477707,15.1011765 99.4394904,22.6682353 99.0955414,23.3458824 C97.8917197,26.2823529 96.8025478,29.2752941 96.0573248,32.3811765 L96.2292994,30.8 L96.1719745,31.1388235 C96.1719745,30.9694118 96.2292994,30.8 96.2292994,30.6870588 L95.8853503,31.9858824 L96.1146497,31.4776471 C95.7707006,34.1317647 94.7388535,36.8988235 95.1401274,39.6658824 C95.1974522,40.0047059 95.3121019,40.6823529 95.7133758,40.9082353 C96.9745223,41.4729412 100.471338,36.9552941 101.044586,36.2211765 C102.764331,34.2447059 104.656051,32.1552941 106.089172,30.1788235 C105.974522,30.2917647 105.515924,31.0258824 105.286624,30.9694118 C105.286624,30.9694118 107.292994,27.92 107.522293,27.5247059 C108.382166,26.3952941 109.184713,25.2094118 109.929936,23.9670588 L115.089172,16.2870588 C115.949045,15.0447059 116.980892,12.8988235 118.127389,12.1082353 C119.56051,11.1482353 122.140127,12.3905882 122.369427,14.0282353 C122.312102,14.6494118 122.025478,14.8188235 121.738854,15.0447059 Z M97.3757962,25.3788235 C97.089172,26.1129412 96.9745223,26.8470588 96.8025478,27.5811765 C97.6050955,24.8141176 98.6942675,22.16 99.8980892,19.3929412 C101.503185,15.8917647 103.280255,12.5035294 105.515924,9.39764706 C103.280255,12.3905882 101.159236,15.6094118 99.7261146,19.0541176 C98.866242,21.1435294 98.0063694,23.2329412 97.3757962,25.3788235 Z M101.789809,16.5129412 C100.528662,18.9976471 99.4394904,21.5388235 98.4649682,24.08 C99.0382166,22.6682353 100.643312,18.8847059 101.789809,16.5129412 Z M106.375796,8.21176471 C106.433121,8.21176471 106.490446,8.15529412 106.490446,8.09882353 C106.490446,8.21176471 106.433121,8.21176471 106.375796,8.21176471 Z M109.643312,32.8329412 C108.955414,34.64 108.382166,36.4470588 108.038217,38.4235294 C107.636943,40.7952941 107.464968,43.5058824 107.923567,45.9341176 C107.522293,43.7882353 108.038217,40.9647059 108.496815,38.8188235 C108.955414,36.7294118 109.012739,34.9223529 109.643312,32.8329412 Z M115.605096,26.5082353 L114.630573,28.88 C114.859873,28.4847059 115.031847,27.9764706 115.203822,27.5247059 L115.605096,26.5082353 Z" id="Shape" fill="#FFFFFF"></path>
                    <path d="M149.312102,15.1576471 C149.369427,15.1011765 149.426752,15.0447059 149.541401,15.0447059 C149.656051,15.1011765 148.509554,16.9082353 148.280255,16.7952941 C148.22293,16.7952941 148.394904,16.5694118 148.509554,16.4 C146.904459,18.7152941 145.815287,21.2 144.840764,23.7976471 C145.471338,22.16 146.732484,19.1105882 147.191083,18.8282353 C146.847134,19.2235294 144.840764,24.3058824 144.726115,24.8141176 C143.980892,26.9035294 143.407643,29.0494118 143.063694,31.1388235 C142.719745,33.3411765 142.490446,35.4870588 142.203822,37.6329412 C141.974522,39.3270588 141.573248,41.3035294 141.745223,42.8847059 C141.745223,42.6588235 141.745223,42.4894118 141.859873,42.2635294 C141.917197,42.2635294 142.261146,44.5788235 142.605096,44.7482353 C142.77707,44.8611765 142.949045,44.6917647 143.063694,44.6917647 C144.038217,44.5223529 145.070064,43.0541176 145.585987,42.4329412 C145.929936,42.0376471 146.617834,40.7952941 147.133758,40.5694118 C149.025478,39.7223529 146.789809,45.4823529 146.216561,46.1035294 C145.356688,47.1764706 144.55414,48.08 143.063694,48.08 C141.802548,48.08 140.598726,47.6282353 139.624204,46.8376471 C137.961783,45.3129412 137.216561,42.9976471 137.101911,40.8517647 C137.101911,39.8917647 137.273885,39.1576471 137.44586,38.2541176 C137.44586,38.0282353 137.33121,36.5035294 137.503185,36.4470588 C137.503185,36.5035294 137.56051,36.56 137.56051,36.6164706 C137.56051,36.5035294 137.503185,36.3905882 137.56051,36.3341176 C137.44586,36.3341176 137.388535,35.3741176 137.388535,35.3741176 C137.44586,34.6964706 137.617834,34.0752941 137.732484,33.3976471 C137.961783,32.4376471 138.076433,31.4776471 138.133758,30.4611765 C138.133758,30.1223529 139.10828,25.6611765 139.624204,25.7176471 C139.738854,25.7176471 139.566879,26.0564706 139.624204,26.1129412 L140.025478,24.6447059 C137.216561,29.1058824 134.350318,33.68 131.197452,38.0282353 C130.165605,39.3270588 128.388535,42.2070588 126.496815,42.32 C124.77707,42.4329412 123.171975,40.6258824 122.312102,39.3270588 C122.312102,39.3270588 121.681529,38.7058824 121.624204,38.4235294 C121.681529,38.5929412 122.140127,39.0447059 122.140127,39.0447059 L121.509554,37.9717647 C121.681529,38.48 121.22293,37.6329412 121.165605,37.6329412 C120.936306,37.2941176 120.821656,36.8423529 120.821656,36.5035294 C120.535032,35.6 120.477707,34.6964706 120.477707,33.7929412 C120.535032,31.9294118 121.050955,30.1788235 121.452229,28.3152941 C121.796178,26.4517647 122.426752,24.7011765 123.11465,22.9505882 C123.286624,22.6117647 124.719745,19.1105882 125.063694,19.1670588 C125.063694,19.1670588 124.77707,19.8447059 124.834395,19.9011765 C125.178344,19.0541176 125.579618,18.2635294 125.980892,17.4164706 C125.808917,17.6423529 125.636943,17.8682353 125.636943,17.8682353 C125.694268,17.0211765 126.66879,15.9482353 127.012739,15.2141176 L128.617834,12.1647059 C129.821656,10.0752941 131.312102,8.15529412 132.859873,6.29176471 C134.178344,4.65411765 135.840764,2.96 137.904459,2.22588235 C138.936306,1.88705882 140.140127,2.05647059 141.171975,2.28235294 C143.121019,2.67764706 145.127389,4.03294118 146.617834,5.27529412 C147.191083,5.78352941 148.33758,6.63058824 148.280255,7.53411765 C148.280255,8.26823529 147.363057,9.00235294 146.789809,9.34117647 C145.471338,10.1882353 145.070064,9.68 144.726115,8.49411765 C144.726115,8.55058824 144.898089,9.05882353 144.783439,9.11529412 C144.66879,9.17176471 144.210191,7.47764706 144.152866,7.30823529 C144.038217,6.96941176 143.923567,6.63058824 143.808917,6.29176471 C143.980892,6.57411765 144.152866,6.68705882 144.210191,6.8 C143.980892,6.17882353 143.694268,5.78352941 143.350318,5.55764706 C142.834395,5.33176471 142.203822,5.44470588 141.343949,5.78352941 C140.197452,6.17882353 139.10828,6.91294118 138.248408,7.76 C135.726115,10.0188235 133.834395,12.9552941 132.229299,15.9482353 C133.261146,14.1411765 134.407643,12.3905882 135.66879,10.7529412 C136.299363,9.90588235 136.987261,9.11529412 137.789809,8.43764706 C138.133758,8.09882353 138.993631,7.59058824 139.452229,7.19529412 C138.878981,7.87294118 137.847134,8.49411765 137.273885,9.05882353 C136.585987,9.79294118 136.012739,10.5835294 135.43949,11.3741176 C134.178344,13.0682353 133.089172,14.9317647 132.057325,16.7952941 C129.936306,20.7482353 128.273885,24.9835294 127.127389,29.2752941 C126.611465,31.2517647 126.095541,33.2847059 125.866242,35.3176471 C125.808917,35.7694118 125.464968,37.5764706 125.980892,37.8588235 C126.783439,38.3105882 129.019108,35.6564706 129.420382,35.2611765 C130.624204,34.0188235 131.828025,32.7764706 132.917197,31.5341176 C132.687898,31.76 132.515924,31.9858824 132.401274,31.9294118 C132.343949,31.9294118 134.407643,28.9364706 134.636943,28.7105882 L137.159236,25.1529412 C138.936306,22.6117647 140.713376,19.9576471 142.433121,17.4164706 C142.834395,16.7952941 143.178344,16.1176471 143.522293,15.44 C143.808917,14.8752941 144.210191,14.5364706 144.55414,14.1976471 C144.898089,13.8588235 144.955414,13.1811765 145.356688,12.7294118 C146.675159,11.0917647 148.853503,12.2211765 149.770701,13.6329412 C150.229299,14.3670588 149.656051,14.7058824 149.312102,15.1576471 Z M125.522293,35.8258824 L125.522293,36.0517647 L125.636943,35.0917647 C125.751592,33.3976471 126.095541,31.6470588 126.55414,29.9529412 C127.414013,26.5647059 128.44586,23.0635294 129.707006,19.7882353 C130.910828,16.7388235 132.286624,13.7458824 134.063694,10.9223529 C134.923567,9.45411765 136.070064,7.87294118 137.503185,6.63058824 C135.840764,7.92941176 134.579618,9.79294118 133.719745,11.3741176 C132.057325,14.1411765 130.566879,16.9082353 129.305732,19.8447059 C127.815287,23.2329412 126.726115,26.96 126.210191,30.6305882 C125.866242,32.3247059 125.579618,34.0752941 125.522293,35.8258824 Z M130.050955,20.24 L129.936306,20.5223529 L130.050955,20.3529412 L130.050955,20.24 Z M137.675159,6.46117647 L138.305732,6.00941176 C138.133758,6.12235294 137.904459,6.29176471 137.675159,6.46117647 Z M138.019108,41.6423529 C137.961783,41.0776471 138.019108,40.5129412 138.076433,39.9482353 C138.191083,38.9882353 138.420382,38.0282353 138.477707,37.0117647 C138.535032,36.1647059 138.477707,35.3176471 138.592357,34.5270588 C138.420382,34.8658824 138.305732,35.2611765 138.248408,35.5435294 C137.961783,36.56 137.904459,37.52 137.904459,38.5929412 C137.847134,39.6658824 137.904459,40.6258824 138.019108,41.6423529 Z M143.579618,6.12235294 L143.350318,5.72705882 C143.407643,5.78352941 143.522293,5.95294118 143.579618,6.12235294 Z M143.579618,6.12235294 L143.751592,6.29176471 C143.751592,6.29176471 143.636943,6.23529412 143.579618,6.12235294 Z M144.840764,23.7976471 L144.66879,24.1929412 L144.840764,23.7976471 Z" id="Shape" fill="#FFFFFF"></path>
                    <polygon id="Path" fill="#FFFFFF" points="73.8285714 53.6470588 75.2571429 53.6470588 73.2571429 56.0588235 74.4 58.4705882 72.9714286 58.4705882 71.8857143 56.1176471 71.3714286 58.4705882 70.1142857 58.4705882 71.1428571 53.5882353 72.4 53.5882353 71.9428571 55.8235294"></polygon>
                    <path d="M75.6,53.6470588 L76.8571429,53.6470588 L77.0857143,55.8823529 C77.1428571,56.2352941 77.1428571,56.6470588 77.1428571,57.1764706 L77.1428571,57.1764706 C77.2,57 77.2571429,56.8823529 77.3142857,56.6470588 C77.3714286,56.4705882 77.4857143,56.2352941 77.6,56 L78.6857143,53.6470588 L80.0571429,53.6470588 L77.2,59.2352941 C76.6857143,60.1764706 76,60.7058824 75.1428571,60.7058824 C74.9142857,60.7058824 74.6857143,60.7058824 74.5142857,60.6470588 L74.5142857,59.5882353 C74.6857143,59.6470588 74.8571429,59.6470588 75.0285714,59.6470588 C75.2571429,59.6470588 75.4857143,59.5882353 75.6571429,59.4117647 C75.8285714,59.2941176 76,59.0588235 76.1714286,58.7647059 L76.2857143,58.5294118 L75.6,53.6470588 Z" id="Path" fill="#FFFFFF"></path>
                    <path d="M83.9428571,58.4705882 L82.6857143,58.4705882 L83.2571429,55.6470588 C83.3142857,55.4705882 83.3142857,55.2941176 83.3142857,55.1176471 C83.3142857,54.7647059 83.1428571,54.5882353 82.8571429,54.5882353 C82.5714286,54.5882353 82.3428571,54.7647059 82.1714286,55.0588235 C81.9428571,55.4117647 81.7714286,55.8235294 81.6571429,56.4705882 L81.2571429,58.4705882 L80,58.4705882 L81.0285714,53.5882353 L82,53.5882353 L81.8857143,54.4705882 L81.8857143,54.4705882 C82.2857143,53.8235294 82.8,53.4705882 83.3714286,53.4705882 C83.7714286,53.4705882 84.0571429,53.5882353 84.2857143,53.8235294 C84.5142857,54.0588235 84.6285714,54.4117647 84.6285714,54.8823529 C84.6285714,55.1176471 84.5714286,55.3529412 84.5142857,55.6470588 L83.9428571,58.4705882 Z" id="Path" fill="#FFFFFF"></path>
                    <path d="M85.6571429,53.6470588 L86.9142857,53.6470588 L87.1428571,55.8823529 C87.2,56.2352941 87.2,56.6470588 87.2,57.1764706 L87.2,57.1764706 C87.2571429,57 87.3142857,56.8823529 87.3714286,56.6470588 C87.4285714,56.4705882 87.5428571,56.2352941 87.6571429,56 L88.7428571,53.6470588 L90.1142857,53.6470588 L87.2571429,59.2352941 C86.7428571,60.1764706 86.0571429,60.7058824 85.2,60.7058824 C84.9714286,60.7058824 84.7428571,60.7058824 84.5714286,60.6470588 L84.5714286,59.5882353 C84.7428571,59.6470588 84.9142857,59.6470588 85.0857143,59.6470588 C85.3142857,59.6470588 85.5428571,59.5882353 85.7142857,59.4117647 C85.8857143,59.2941176 86.0571429,59.0588235 86.2285714,58.7647059 L86.3428571,58.5294118 L85.6571429,53.6470588 Z" id="Path" fill="#FFFFFF"></path>
                    <path d="M91.0285714,53.6470588 L92.2857143,53.6470588 L91.7142857,56.4705882 C91.6571429,56.6470588 91.6571429,56.8235294 91.6571429,57 C91.6571429,57.3529412 91.8285714,57.5294118 92.1142857,57.5294118 C92.4,57.5294118 92.6285714,57.3529412 92.8,57.0588235 C93.0285714,56.7058824 93.2,56.2941176 93.3142857,55.6470588 L93.7142857,53.6470588 L94.9714286,53.6470588 L93.9428571,58.5294118 L92.9714286,58.5294118 L93.0857143,57.6470588 L93.0857143,57.6470588 C92.6857143,58.2941176 92.1714286,58.6470588 91.6,58.6470588 C91.2,58.6470588 90.9142857,58.5294118 90.6857143,58.2941176 C90.4571429,58.0588235 90.4,57.7058824 90.4,57.2352941 C90.4,56.9411765 90.4571429,56.6470588 90.5142857,56.2941176 L91.0285714,53.6470588 Z M95.2571429,51.5294118 C95.1428571,51.9411765 95.0285714,52.2352941 94.8571429,52.4117647 C94.6857143,52.6470588 94.4571429,52.7647059 94.1142857,52.8823529 C93.8285714,53 93.4285714,53.0588235 93.0285714,53.0588235 C92.4571429,53.0588235 92.0571429,52.9411765 91.7142857,52.7058824 C91.4285714,52.4705882 91.2571429,52.1176471 91.2571429,51.7058824 C91.2571429,51.6470588 91.2571429,51.5882353 91.2571429,51.5294118 L92.4,51.5294118 L92.4,51.6470588 L92.4,51.7647059 C92.4,52.1764706 92.6285714,52.3529412 93.1428571,52.3529412 C93.4285714,52.3529412 93.6571429,52.2941176 93.7714286,52.1764706 C93.9428571,52.0588235 94.0571429,51.8235294 94.1142857,51.5294118 L95.2571429,51.5294118 L95.2571429,51.5294118 Z" id="Shape" fill="#FFFFFF"></path>
                    <path d="M98.1714286,53.6470588 L99.4285714,53.6470588 L99.6571429,55.8823529 C99.7142857,56.2352941 99.7142857,56.6470588 99.7142857,57.1764706 L99.7142857,57.1764706 C99.7714286,57 99.8285714,56.8823529 99.8857143,56.6470588 C99.9428571,56.4705882 100.057143,56.2352941 100.171429,56 L101.257143,53.6470588 L102.628571,53.6470588 L99.7714286,59.2352941 C99.2571429,60.1764706 98.5714286,60.7058824 97.7142857,60.7058824 C97.4857143,60.7058824 97.2571429,60.7058824 97.0857143,60.6470588 L97.0857143,59.5882353 C97.2571429,59.6470588 97.4285714,59.6470588 97.6,59.6470588 C97.8285714,59.6470588 98.0571429,59.5882353 98.2285714,59.4117647 C98.4,59.2941176 98.5714286,59.0588235 98.7428571,58.7647059 L98.8571429,58.5294118 L98.1714286,53.6470588 Z" id="Path" fill="#FFFFFF"></path>
                    <polygon id="Path" fill="#FFFFFF" points="106.228571 53.6470588 107.657143 53.6470588 105.657143 56.0588235 106.8 58.4705882 105.371429 58.4705882 104.285714 56.1176471 103.771429 58.4705882 102.514286 58.4705882 103.542857 53.5882353 104.8 53.5882353 104.342857 55.8235294"></polygon>
                    <path d="M110.971429,53.5294118 C111.371429,53.5294118 111.714286,53.7058824 111.942857,54 C112.171429,54.2941176 112.285714,54.7647059 112.285714,55.2941176 C112.285714,55.8235294 112.171429,56.3529412 112,56.8823529 C111.828571,57.4117647 111.542857,57.8235294 111.2,58.1176471 C110.857143,58.4117647 110.514286,58.5882353 110.114286,58.5882353 C109.885714,58.5882353 109.657143,58.5294118 109.485714,58.4117647 C109.314286,58.2941176 109.142857,58.1176471 109.028571,57.8823529 L108.971429,57.8823529 C108.914286,58.3529412 108.857143,58.7647059 108.8,59.1764706 L108.514286,60.6470588 L107.257143,60.6470588 L108.685714,53.6470588 L109.657143,53.6470588 L109.6,54.4117647 L109.657143,54.4117647 C110.057143,53.8235294 110.514286,53.5294118 110.971429,53.5294118 Z M110.457143,54.5882353 C110.285714,54.5882353 110.057143,54.7058824 109.885714,54.8823529 C109.714286,55.0588235 109.542857,55.3529412 109.428571,55.6470588 C109.314286,56 109.257143,56.3529412 109.257143,56.7058824 C109.257143,56.9411765 109.314286,57.1176471 109.428571,57.2352941 C109.542857,57.3529412 109.657143,57.4705882 109.885714,57.4705882 C110.057143,57.4705882 110.228571,57.3529412 110.4,57.1764706 C110.571429,57 110.685714,56.7058824 110.8,56.3529412 C110.914286,56 110.971429,55.6470588 110.971429,55.2941176 C111.028571,54.8235294 110.857143,54.5882353 110.457143,54.5882353 Z" id="Shape" fill="#FFFFFF"></path>
                    <path d="M114.628571,58.5882353 C114.228571,58.5882353 113.885714,58.4117647 113.657143,58.1176471 C113.428571,57.8235294 113.314286,57.3529412 113.314286,56.8235294 C113.314286,56.2352941 113.428571,55.7058824 113.6,55.1764706 C113.828571,54.6470588 114.057143,54.2352941 114.4,53.9411765 C114.742857,53.6470588 115.085714,53.5294118 115.485714,53.5294118 C115.771429,53.5294118 116,53.5882353 116.171429,53.7058824 C116.342857,53.8235294 116.514286,54 116.628571,54.2352941 L116.685714,54.2352941 L116.914286,53.5882353 L117.885714,53.5882353 L116.857143,58.4705882 L115.885714,58.4705882 L115.942857,57.8235294 L115.942857,57.8235294 C115.6,58.3529412 115.142857,58.5882353 114.628571,58.5882353 Z M115.085714,57.5294118 C115.257143,57.5294118 115.485714,57.4117647 115.657143,57.2352941 C115.828571,57.0588235 116,56.7647059 116.114286,56.4705882 C116.228571,56.1176471 116.285714,55.7647059 116.285714,55.3529412 C116.285714,55.1176471 116.228571,55 116.114286,54.8235294 C116,54.7058824 115.885714,54.6470588 115.657143,54.6470588 C115.485714,54.6470588 115.257143,54.7647059 115.085714,54.9411765 C114.914286,55.1764706 114.8,55.4117647 114.685714,55.7647059 C114.571429,56.1176471 114.514286,56.4705882 114.514286,56.7647059 C114.514286,57 114.571429,57.2352941 114.628571,57.3529412 C114.8,57.4705882 114.914286,57.5294118 115.085714,57.5294118 Z" id="Shape" fill="#FFFFFF"></path>
                    <path d="M119.657143,58.4705882 L118.4,58.4705882 L119.428571,53.5882353 L120.685714,53.5882353 L119.657143,58.4705882 Z M118.742857,52.4705882 C118.742857,52.2352941 118.8,52.0588235 118.914286,51.9411765 C119.028571,51.8235294 119.2,51.7647059 119.428571,51.7647059 C119.828571,51.7647059 120,51.9411765 120,52.2352941 C120,52.4705882 119.942857,52.5882353 119.828571,52.7647059 C119.714286,52.8823529 119.542857,52.9411765 119.314286,52.9411765 C118.914286,52.9411765 118.742857,52.7647059 118.742857,52.4705882 Z M120.457143,52.4705882 C120.457143,52.2352941 120.514286,52.0588235 120.628571,51.9411765 C120.742857,51.8235294 120.914286,51.7647059 121.142857,51.7647059 C121.314286,51.7647059 121.485714,51.8235294 121.542857,51.8823529 C121.657143,51.9411765 121.714286,52.0588235 121.714286,52.2352941 C121.714286,52.4705882 121.657143,52.5882353 121.542857,52.7647059 C121.428571,52.8823529 121.257143,52.9411765 121.028571,52.9411765 C120.628571,52.9411765 120.457143,52.7647059 120.457143,52.4705882 Z" id="Shape" fill="#FFFFFF"></path>
                    <polygon id="Path" fill="#FFFFFF" points="123.371429 53.6470588 122.971429 55.5294118 124.457143 55.5294118 124.857143 53.6470588 126.114286 53.6470588 125.085714 58.5294118 123.828571 58.5294118 124.228571 56.5294118 122.742857 56.5294118 122.342857 58.5294118 121.085714 58.5294118 122.114286 53.6470588"></polygon>
                    <path d="M128.571429,58.5882353 C128,58.5882353 127.542857,58.4117647 127.257143,58.1176471 C126.971429,57.8235294 126.8,57.3529412 126.8,56.8235294 C126.8,56.2352941 126.914286,55.6470588 127.142857,55.1176471 C127.371429,54.5882353 127.657143,54.2352941 128,53.9411765 C128.4,53.6470588 128.8,53.5294118 129.314286,53.5294118 C129.828571,53.5294118 130.285714,53.6470588 130.685714,53.8235294 L130.285714,54.8235294 C130.114286,54.7647059 130,54.7058824 129.828571,54.6470588 C129.657143,54.5882353 129.542857,54.5882353 129.314286,54.5882353 C129.085714,54.5882353 128.857143,54.7058824 128.685714,54.8823529 C128.514286,55.0588235 128.342857,55.2941176 128.228571,55.6470588 C128.114286,55.9411765 128.057143,56.2941176 128.057143,56.7058824 C128.057143,57 128.114286,57.1764706 128.228571,57.3529412 C128.342857,57.4705882 128.514286,57.5882353 128.742857,57.5882353 C128.971429,57.5882353 129.142857,57.5294118 129.314286,57.4705882 C129.485714,57.4117647 129.714286,57.2941176 129.885714,57.2352941 L129.885714,58.2941176 C129.6,58.4705882 129.085714,58.5882353 128.571429,58.5882353 Z" id="Path" fill="#FFFFFF"></path>
                    <path d="M132.8,55.5882353 C133.028571,55.5294118 133.371429,55.4705882 133.714286,55.4705882 C134.171429,55.4705882 134.571429,55.5882353 134.8,55.8235294 C135.085714,56.0588235 135.2,56.4117647 135.2,56.7647059 C135.2,57.1176471 135.085714,57.4117647 134.914286,57.7058824 C134.742857,57.9411765 134.457143,58.1764706 134.171429,58.2941176 C133.828571,58.4117647 133.428571,58.5294118 132.971429,58.5294118 C132.4,58.5294118 132,58.4117647 131.714286,58.1764706 C131.428571,57.9411765 131.257143,57.5882353 131.257143,57.1176471 C131.257143,56.9411765 131.314286,56.6470588 131.371429,56.3529412 L131.942857,53.5882353 L133.2,53.5882353 L132.8,55.5882353 Z M133.257143,56.4117647 C133.085714,56.4117647 132.857143,56.4117647 132.571429,56.4705882 C132.514286,56.7647059 132.457143,57 132.457143,57.0588235 C132.457143,57.2352941 132.514286,57.3529412 132.628571,57.4705882 C132.742857,57.5882353 132.914286,57.5882353 133.085714,57.5882353 C133.314286,57.5882353 133.542857,57.5294118 133.657143,57.4117647 C133.828571,57.2941176 133.885714,57.1176471 133.885714,56.8823529 C133.885714,56.5882353 133.714286,56.4117647 133.257143,56.4117647 Z" id="Shape" fill="#FFFFFF"></path>
                    <polygon id="Path" fill="#FFFFFF" points="139.657143 53.6470588 141.085714 53.6470588 139.085714 56.0588235 140.228571 58.4705882 138.8 58.4705882 137.714286 56.1176471 137.2 58.4705882 135.942857 58.4705882 136.971429 53.5882353 138.228571 53.5882353 137.771429 55.8235294"></polygon>
                    <path d="M143.257143,58.5882353 C142.685714,58.5882353 142.228571,58.4117647 141.885714,58.1176471 C141.542857,57.7647059 141.371429,57.3529412 141.371429,56.7058824 C141.371429,56.1176471 141.485714,55.5294118 141.714286,55.0588235 C141.942857,54.5882353 142.285714,54.1764706 142.685714,53.9411765 C143.085714,53.7058824 143.542857,53.5294118 144.057143,53.5294118 C144.571429,53.5294118 144.971429,53.6470588 145.2,53.8823529 C145.485714,54.1176471 145.6,54.4705882 145.6,54.8823529 C145.6,55.4117647 145.371429,55.8235294 144.914286,56.1176471 C144.457143,56.4117647 143.771429,56.5882353 142.914286,56.5882353 L142.685714,56.5882353 L142.685714,56.7058824 L142.685714,56.7647059 C142.685714,57 142.742857,57.2352941 142.914286,57.4117647 C143.085714,57.5882353 143.257143,57.6470588 143.542857,57.6470588 C143.771429,57.6470588 144,57.6470588 144.228571,57.5882353 C144.457143,57.5294118 144.685714,57.4117647 144.971429,57.2941176 L144.971429,58.2941176 C144.457143,58.4705882 143.885714,58.5882353 143.257143,58.5882353 Z M143.942857,54.4705882 C143.714286,54.4705882 143.485714,54.5882353 143.257143,54.8235294 C143.028571,55.0588235 142.914286,55.3529412 142.8,55.6470588 L142.971429,55.6470588 C143.428571,55.6470588 143.771429,55.5882353 144,55.4117647 C144.228571,55.2941176 144.342857,55.0588235 144.342857,54.8235294 C144.4,54.5882353 144.285714,54.4705882 143.942857,54.4705882 Z" id="Shape" fill="#FFFFFF"></path>
                    <g id="Group" transform="translate(60.000000, 6.000000)">
                        <g fill="#000000">
                            <path d="M12.6366667,1.02 C8.44333333,0.68 7.48,3.68333333 7.14,6.06333333 C4.08,4.64666667 1.07666667,5.83666667 1.19,7.87666667 C1.24666667,8.72666667 1.81333333,9.35 2.49333333,9.86 L2.49333333,9.86 C2.72,10.03 3.62666667,10.5966667 3.62666667,10.5966667 C4.08,10.8233333 4.42,10.9366667 4.87333333,11.1066667 C5.1,11.1633333 5.27,11.2766667 5.49666667,11.3333333 C5.72333333,11.39 5.95,11.4466667 6.12,11.5033333 C7.59333333,11.9566667 8.89666667,12.41 8.89666667,14.3366667 C12.5233333,10.71 15.5266667,8.27333333 15.9233333,4.81666667 L15.9233333,4.81666667 C15.98,3.96666667 16.15,1.36 12.6366667,1.02 Z" id="Path"></path>
                            <g id="Shape">
                                <path d="M8.16,16.2066667 L8.16,14.45 C8.16,13.1466667 7.42333333,12.75 5.89333333,12.2966667 C5.72333333,12.24 5.55333333,12.1833333 5.32666667,12.1266667 L5.27,12.1266667 C5.04333333,12.07 4.87333333,11.9566667 4.64666667,11.9 C4.19333333,11.73 3.79666667,11.56 3.34333333,11.3333333 L3.28666667,11.3333333 C3.11666667,11.22 2.32333333,10.71 2.09666667,10.54 L1.87,10.37 C1.02,9.69 0.566666667,8.89666667 0.51,7.99 C0.453333333,7.02666667 0.906666667,6.12 1.75666667,5.55333333 C3.00333333,4.70333333 4.81666667,4.53333333 6.63,5.1 C7.36666667,1.64333333 9.46333333,0.0566666667 12.75,0.34 C14.1666667,0.453333333 15.2433333,0.963333333 15.9233333,1.81333333 C16.6033333,2.60666667 16.83,3.74 16.66,5.04333333 L16.66,5.1 C16.32,8.27333333 13.94,10.5966667 10.9366667,13.5433333 C10.4266667,13.9966667 9.97333333,14.5066667 9.46333333,15.0166667 L8.16,16.2066667 Z M4.02333333,10.03 C4.42,10.2566667 4.70333333,10.37 5.15666667,10.4833333 C5.38333333,10.54 5.55333333,10.6533333 5.72333333,10.71 L5.78,10.71 C5.95,10.7666667 6.12,10.8233333 6.29,10.88 C7.31,11.1633333 8.72666667,11.6166667 9.29333333,12.92 C9.46333333,12.75 9.63333333,12.58 9.86,12.41 C12.6366667,9.69 14.8466667,7.53666667 15.13,4.81666667 L15.13,4.76 C15.2433333,3.85333333 15.13,3.11666667 14.7333333,2.66333333 C14.3366667,2.15333333 13.6,1.81333333 12.5233333,1.75666667 L12.5233333,1.75666667 C9.74666667,1.53 8.27333333,2.89 7.82,6.17666667 L7.70666667,7.14 L6.8,6.74333333 C4.98666667,5.89333333 3.34333333,6.12 2.49333333,6.68666667 C2.04,6.97 1.87,7.36666667 1.87,7.82 C1.92666667,8.33 2.26666667,8.84 2.89,9.29333333 L2.94666667,9.35 C3.17333333,9.52 3.68333333,9.86 4.02333333,10.03 Z"></path>
                                <path d="M7.87666667,16.83 L7.87666667,14.45 C7.87666667,13.3733333 7.36666667,13.0333333 5.83666667,12.58 C5.66666667,12.5233333 5.49666667,12.4666667 5.32666667,12.41 L5.21333333,12.41 C5.1,12.3533333 4.98666667,12.3533333 4.87333333,12.2966667 C4.76,12.24 4.70333333,12.24 4.59,12.1833333 C4.08,12.0133333 3.74,11.8433333 3.28666667,11.6166667 L3.23,11.6166667 L2.94666667,11.39 C2.60666667,11.1633333 2.15333333,10.88 1.98333333,10.7666667 L1.75666667,10.5966667 C0.85,9.86 0.34,9.01 0.283333333,7.99 C0.226666667,6.91333333 0.736666667,5.89333333 1.64333333,5.32666667 C2.89,4.47666667 4.64666667,4.25 6.46,4.76 C7.25333333,1.41666667 9.46333333,-0.226666667 12.8066667,0.0566666667 C14.28,0.17 15.47,0.736666667 16.15,1.64333333 C16.83,2.49333333 17.1133333,3.68333333 16.9433333,5.1 L16.9433333,5.1 C16.6033333,8.38666667 14.2233333,10.7666667 11.1633333,13.7133333 L11.1066667,13.77 C10.7666667,14.0533333 10.4833333,14.3933333 10.1433333,14.7333333 C9.97333333,14.9033333 9.80333333,15.0733333 9.63333333,15.2433333 L7.87666667,16.83 Z M5.32666667,11.8433333 L5.44,11.8433333 C5.66666667,11.9 5.83666667,11.9566667 6.00666667,12.0133333 C7.42333333,12.4666667 8.44333333,12.8633333 8.44333333,14.45 L8.44333333,15.5833333 L9.29333333,14.8466667 C9.46333333,14.6766667 9.63333333,14.5066667 9.80333333,14.3366667 C10.1433333,13.9966667 10.4266667,13.6566667 10.7666667,13.3733333 C13.7133333,10.4833333 16.0933333,8.16 16.3766667,5.1 L16.3766667,5.1 C16.5466667,3.79666667 16.32,2.77666667 15.6966667,2.04 C15.0733333,1.24666667 14.0533333,0.793333333 12.6933333,0.68 C9.52,0.396666667 7.59333333,1.92666667 6.85666667,5.21333333 L6.8,5.49666667 L6.51666667,5.38333333 C4.81666667,4.81666667 3.06,4.98666667 1.87,5.78 C1.13333333,6.29 0.68,7.08333333 0.736666667,7.99 C0.793333333,8.84 1.19,9.52 1.98333333,10.1433333 L2.21,10.3133333 C2.38,10.4266667 2.83333333,10.7666667 3.17333333,10.9366667 L3.45666667,11.05 C3.91,11.2766667 4.25,11.4466667 4.76,11.6166667 C4.87333333,11.6166667 4.98666667,11.6733333 5.1,11.73 C5.15666667,11.7866667 5.21333333,11.8433333 5.32666667,11.8433333 Z M9.18,13.43 L9.01,13.0333333 C8.44333333,11.7866667 6.97,11.39 6.17666667,11.1633333 L5.61,10.9933333 C5.55333333,10.9933333 5.44,10.9366667 5.38333333,10.88 C5.27,10.8233333 5.21333333,10.7666667 5.1,10.7666667 C4.64666667,10.6533333 4.30666667,10.54 3.91,10.3133333 C3.57,10.1433333 3.06,9.80333333 2.77666667,9.63333333 L2.66333333,9.57666667 C2.04,9.12333333 1.64333333,8.55666667 1.58666667,7.93333333 C1.58666667,7.31 1.81333333,6.85666667 2.32333333,6.51666667 C3.17333333,5.95 4.87333333,5.61 6.91333333,6.57333333 L7.48,6.8 L7.53666667,6.23333333 C7.99,2.83333333 9.57666667,1.30333333 12.5233333,1.58666667 C13.6,1.64333333 14.45,1.98333333 14.96,2.60666667 C15.4133333,3.11666667 15.5266667,3.85333333 15.4133333,4.93 L15.4133333,4.93 C15.13,7.76333333 12.92,9.91666667 10.0866667,12.6933333 L10.03,12.75 C9.80333333,12.92 9.69,13.09 9.52,13.2033333 L9.18,13.43 Z M5.78,10.4266667 L5.89333333,10.4266667 L6.40333333,10.5966667 C7.19666667,10.8233333 8.67,11.22 9.40666667,12.41 C9.52,12.2966667 9.63333333,12.24 9.74666667,12.1266667 C12.4666667,9.46333333 14.62,7.31 14.9033333,4.70333333 L14.9033333,4.70333333 C15.0166667,3.79666667 14.9033333,3.17333333 14.5633333,2.77666667 C14.1666667,2.26666667 13.4866667,2.04 12.5233333,1.98333333 C9.86,1.75666667 8.55666667,3.00333333 8.10333333,6.17666667 L7.93333333,7.53666667 L6.68666667,6.97 C4.98666667,6.17666667 3.45666667,6.34666667 2.66333333,6.91333333 C2.32333333,7.14 2.15333333,7.42333333 2.15333333,7.82 C2.21,8.21666667 2.49333333,8.67 3.06,9.06666667 L3.17333333,9.18 C3.34333333,9.29333333 3.85333333,9.63333333 4.19333333,9.80333333 L4.19333333,9.80333333 C4.59,10.03 4.81666667,10.1433333 5.27,10.2 C5.44,10.2566667 5.55333333,10.3133333 5.66666667,10.37 C5.66666667,10.37 5.72333333,10.4266667 5.78,10.4266667 Z"></path>
                            </g>
                        </g>
                        <path d="M15.6966667,3.57 L3.00333333,10.2566667 C2.04,9.69 1.24666667,8.95333333 1.19,7.93333333 C1.02,5.89333333 4.08,4.70333333 7.14,6.12 C7.48,3.74 8.5,0.68 12.6366667,1.07666667 C14.6766667,1.24666667 15.81,2.04 15.6966667,3.57 Z" id="Path" fill="#01A2E8"></path>
                        <path d="M15.9233333,4.25 C15.9233333,8.04666667 12.6933333,10.5966667 8.89666667,14.45 C8.89666667,12.58 7.59333333,12.07 6.12,11.6166667 C5.95,11.56 5.72333333,11.5033333 5.49666667,11.4466667 C5.32666667,11.39 5.1,11.3333333 4.87333333,11.22 C4.42,11.05 4.08,10.9366667 3.62666667,10.71 L15.9233333,4.25 Z" id="Path" fill="#FFF303"></path>
                    </g>
                </g>
            </g>
        </g>
    </g>
</svg>