<?xml version="1.0" encoding="UTF-8"?>
<svg width="18px" height="17px" viewBox="0 0 18 17" version="1.1" xmlns="http://www.w3.org/2000/svg" xmlns:xlink="http://www.w3.org/1999/xlink">
    <title>Shape</title>
    <g id="UI" stroke="none" stroke-width="1" fill="none" fill-rule="evenodd">
        <g transform="translate(-1913.000000, -3203.000000)" fill="#000000" fill-rule="nonzero" id="Group-8-Copy-6">
            <g transform="translate(1853.000000, 3148.000000)">
                <g id="Group-14" transform="translate(16.000000, 55.000000)">
                    <g id="Group-11">
                        <g id="star-(2)-copy-6" transform="translate(44.000000, 0.000000)">
                            <path d="M17.7829864,6.53171423 C17.7829864,6.27118253 17.5835489,6.10927039 17.1843746,6.04582983 L11.819739,5.27499929 L9.41522241,0.469571115 C9.27994332,0.180888825 9.10524838,0.0366216641 8.89154935,0.0366216641 C8.67788774,0.0366216641 8.5033051,0.180888825 8.36791372,0.469571115 L5.96328488,5.27499929 L0.598387245,6.04582983 C0.199512324,6.10927039 0,6.27118253 0,6.53171423 C0,6.67964356 0.0890880548,6.84862109 0.267226732,7.03872082 L4.15730531,10.7773858 L3.2382385,16.0578968 C3.22397692,16.1565164 3.21690228,16.2271333 3.21690228,16.2691928 C3.21690228,16.4170481 3.25425937,16.5419687 3.32904842,16.6441394 C3.40380004,16.7464581 3.51594618,16.7973585 3.66563657,16.7973585 C3.79395331,16.7973585 3.9363819,16.7552991 4.0931095,16.6707363 L8.89143705,14.1780217 L13.6899892,16.6704774 C13.839717,16.7550402 13.982183,16.7973585 14.1173124,16.7973585 C14.4097308,16.7973585 14.5557903,16.6216485 14.5557903,16.2694517 C14.5557903,16.1780455 14.5521969,16.1076505 14.5450474,16.0580078 L13.6260554,10.7776817 L17.5052787,7.03897976 C17.690492,6.85564949 17.7829864,6.68659797 17.7829864,6.53171423 Z M12.1511241,10.302155 L12.9203882,14.7485429 L8.89143705,12.6466443 L4.85170552,14.7485429 L5.63189977,10.302155 L2.36165696,7.16530601 L6.87160872,6.51055504 L8.89139962,2.47610538 L10.9111157,6.51055504 L15.4214417,7.16530601 L12.1511241,10.302155 Z" id="Shape"></path>
                        </g>
                    </g>
                </g>
            </g>
        </g>
    </g>
</svg>