<svg viewBox="0 0 24 24" version="1.1" xmlns="http://www.w3.org/2000/svg">
    <path d="M18.989723,1.4945765 L22.5054235,5.01027854 C23.1646642,5.6713727 23.1646642,6.74125396 22.5054235,7.40234812 L7.96953593,21.9382421 C7.69705365,22.2100794 7.3426487,22.3846394 6.96106012,22.4349607 L2.74496954,22.9866793 C2.67730033,22.9955789 2.60912005,22.9999997 2.54086813,22.9999997 C2.09695289,22.9989461 1.67495908,22.8069122 1.38256234,22.4728971 C1.09016559,22.138882 0.955646996,21.6951922 1.01333022,21.2550392 L1.56504855,17.0389467 C1.61546272,16.6573862 1.79000869,16.3030094 2.06176693,16.0304705 L13.3147706,4.77572586 C13.3207215,4.76949362 13.3267617,4.76331536 13.3328913,4.7571927 L13.351228,4.74014571 L16.5976544,1.4945765 C17.2587483,0.835335453 18.3286291,0.835335453 18.989723,1.4945765 Z M14.092228,7.03814571 L3.67739072,17.4531653 L3.2455551,20.7544534 L6.54684169,20.3226176 L16.961228,9.90714571 L14.092228,7.03814571 Z M17.7934739,3.33707593 L15.612228,5.51714571 L18.482228,8.38714571 L20.6629248,6.20652817 L17.7934739,3.33707593 Z"></path>
</svg>