<svg viewBox="0 0 24 24" version="1.1" xmlns="http://www.w3.org/2000/svg">
    <g transform="translate(2.000000, 1.000000)">
        <path d="M19.3448276,4.55172414 L17.0689655,4.55172414 L15.9310345,4.55172414 L15.9310345,1.13793103 C15.9310345,0.509489655 15.4215448,0 14.7931034,0 L5.68965517,0 C5.06121379,0 4.55172414,0.509489655 4.55172414,1.13793103 L4.55172414,4.55172414 L3.4137931,4.55172414 L1.13793103,4.55172414 C0.509489655,4.55172414 0,5.06121379 0,5.68965517 C0,6.31809655 0.509489655,6.82758621 1.13793103,6.82758621 L2.27586207,6.82758621 L2.27586207,20.862069 C2.27586207,21.4905103 2.78535172,22 3.4137931,22 L17.0689655,22 C17.6974069,22 18.2068966,21.4905103 18.2068966,20.862069 L18.2068966,6.82758621 L19.3448276,6.82758621 C19.973269,6.82758621 20.4827586,6.31809655 20.4827586,5.68965517 C20.4827586,5.06121379 19.973269,4.55172414 19.3448276,4.55172414 Z M6.82758621,2.27586207 L13.6551724,2.27586207 L13.6551724,4.55172414 L12.5172414,4.55172414 L7.96551724,4.55172414 L6.82758621,4.55172414 L6.82758621,2.27586207 Z M15.9310345,19.7241379 L4.55172414,19.7241379 L4.55172414,6.82758621 L5.68965517,6.82758621 L7.96551724,6.82758621 L12.5172414,6.82758621 L14.7931034,6.82758621 L15.9310345,6.82758621 L15.9310345,19.7241379 Z"></path>
    </g>
</svg>