<?xml version="1.0" standalone="no"?>
<!DOCTYPE svg PUBLIC "-//W3C//DTD SVG 20010904//EN"
 "http://www.w3.org/TR/2001/REC-SVG-20010904/DTD/svg10.dtd">
<svg version="1.0" xmlns="http://www.w3.org/2000/svg"
 width="672.000000pt" height="672.000000pt" viewBox="0 0 672.000000 672.000000"
 preserveAspectRatio="xMidYMid meet">
<metadata>
Created by potrace 1.11, written by Peter Selinger 2001-2013
</metadata>
<g transform="translate(0.000000,672.000000) scale(0.100000,-0.100000)"
fill="#000000" stroke="none">
<path d="M2939 6716 c-2 -2 -35 -6 -74 -10 -125 -12 -152 -15 -181 -21 -16 -3
-45 -8 -64 -11 -19 -3 -84 -16 -145 -29 -60 -14 -121 -27 -135 -29 -14 -3 -38
-10 -55 -16 -16 -7 -38 -13 -47 -15 -37 -8 -237 -80 -312 -113 -92 -40 -239
-116 -278 -143 -14 -11 -29 -19 -33 -19 -3 0 -21 -11 -39 -25 -18 -14 -38 -25
-44 -25 -7 0 -12 -3 -12 -7 0 -5 -17 -19 -38 -33 -82 -54 -342 -296 -342 -318
0 -4 -9 -14 -20 -22 -11 -8 -20 -20 -20 -26 0 -7 -4 -14 -8 -16 -10 -4 -122
-163 -122 -173 0 -4 -9 -20 -21 -36 -32 -46 -141 -267 -192 -394 -56 -136
-149 -443 -162 -532 -2 -15 -7 -39 -10 -53 -3 -14 -7 -43 -10 -65 -3 -22 -7
-51 -10 -65 -11 -59 -15 -89 -22 -165 -10 -106 -10 -792 0 -875 4 -36 10 -83
12 -105 2 -22 6 -49 8 -60 5 -21 18 -103 22 -142 2 -11 6 -29 9 -40 3 -10 8
-34 11 -53 16 -92 95 -362 132 -450 8 -19 19 -44 24 -55 23 -56 102 -215 125
-255 33 -56 114 -181 128 -197 6 -7 16 -18 21 -25 116 -149 229 -265 357 -369
95 -76 211 -158 279 -197 120 -69 162 -92 229 -124 119 -58 180 -84 260 -113
41 -14 84 -30 95 -35 71 -29 337 -98 445 -115 14 -2 34 -6 45 -8 11 -3 38 -8
61 -11 l40 -7 0 -551 c-1 -302 2 -554 5 -559 3 -5 232 -8 558 -7 l553 3 0 502
c0 276 -3 506 -6 512 -4 5 -3 12 2 15 4 2 7 22 5 44 l-2 39 1105 0 c607 0
1108 3 1112 7 4 4 7 754 7 1667 l1 1659 -1112 0 -1111 0 0 -555 0 -555 81 0
c45 -1 294 -1 554 0 412 0 472 -2 473 -15 0 -8 1 -251 1 -540 0 -289 -1 -531
-1 -538 -1 -11 -104 -13 -553 -12 -304 1 -557 3 -561 4 -5 0 -6 5 -3 9 7 11 7
52 5 260 -1 95 1 176 5 179 3 3 1 13 -4 23 -5 10 -7 19 -5 21 5 6 6 62 4 177
-1 51 1 95 4 98 4 4 2 14 -3 24 -5 10 -7 19 -5 21 5 6 6 63 3 184 l-3 100
-552 3 c-304 1 -553 -1 -554 -5 0 -5 -2 -251 -3 -548 -2 -297 -4 -543 -4 -547
-1 -4 -12 -5 -24 -2 -13 2 -47 8 -76 14 -43 8 -90 19 -142 35 -3 1 -18 5 -35
10 -16 4 -39 13 -50 19 -11 5 -22 11 -25 12 -33 8 -195 88 -235 116 -130 93
-238 185 -291 251 -31 37 -97 140 -133 207 -35 65 -107 245 -116 290 -2 8 -8
33 -13 55 -6 22 -13 56 -16 75 -3 19 -7 44 -10 55 -28 135 -29 680 -2 815 3
14 8 43 11 65 3 22 7 49 10 60 11 58 16 82 22 100 4 11 8 25 9 31 1 6 10 38
20 70 9 33 18 64 20 69 7 31 60 161 96 235 203 415 516 662 951 751 55 11 130
23 166 26 36 3 593 6 1236 7 644 2 1190 6 1215 10 70 11 222 54 276 77 139 61
290 182 355 284 48 75 56 90 78 150 44 117 59 223 61 415 l1 180 -1629 0
c-896 0 -1631 -2 -1633 -4z"/>
</g>
</svg>
