<svg style="position:absolute"><symbol viewBox="0 0 24 24" id="account-add" xmlns="http://www.w3.org/2000/svg"><path d="M12 1c6.075 0 11 4.925 11 11s-4.925 11-11 11S1 18.075 1 12 5.925 1 12 1Zm0 2a9 9 0 1 0 0 18 9 9 0 0 0 0-18Zm0 4a1 1 0 0 1 .993.883L13 8v3h3a1 1 0 0 1 .117 1.993L16 13h-3v3a1 1 0 0 1-1.993.117L11 16v-3H8a1 1 0 0 1-.117-1.993L8 11h3V8a1 1 0 0 1 1-1Z"/></symbol><symbol viewBox="0 0 24 24" id="account-address" xmlns="http://www.w3.org/2000/svg"><path d="M13.898 9.814a4.089 4.089 0 0 0-4.084-4.085 4.089 4.089 0 0 0-4.085 4.085 4.089 4.089 0 0 0 4.085 4.084 4.089 4.089 0 0 0 4.084-4.084Zm-4.084 2.364a2.367 2.367 0 0 1-2.365-2.364 2.367 2.367 0 0 1 2.365-2.365 2.367 2.367 0 0 1 2.364 2.365 2.367 2.367 0 0 1-2.364 2.364Zm9.498-.45-5.778 5.94c-.33.333-.582.742-.73 1.186l-.012.04-.931 4.094 4.105-.92.04-.013a3.046 3.046 0 0 0 1.191-.733l5.777-5.94-3.662-3.654Zm-3.334 8.381a1.361 1.361 0 0 1-.102.09l-1.214-1.215c.03-.036.06-.07.093-.103l4.575-4.705 1.227 1.224-4.58 4.71Zm-6.164.656V23l-.54-.437a36.228 36.228 0 0 1-4.086-3.993C2.41 15.38 1 12.515 1 10.057v-.243C1 4.954 4.954 1 9.814 1c4.86 0 8.813 3.954 8.813 8.814v.191l-2.12 2.169c.253-.716.4-1.429.4-2.117v-.243A7.102 7.102 0 0 0 9.814 2.72 7.102 7.102 0 0 0 2.72 9.814v.243c0 4.154 5.351 9.181 7.094 10.708Z"/></symbol><symbol viewBox="0 0 24 24" id="account-bag" xmlns="http://www.w3.org/2000/svg"><path d="M12.133 1c2.817 0 5.108 2.297 5.108 5.12V7.43h2.168c.419 0 .775.291.867.69l.019.112 1.128 10.985a3.475 3.475 0 0 1-.87 2.67A3.388 3.388 0 0 1 18.044 23H5.927c-.96 0-1.884-.414-2.536-1.136a3.448 3.448 0 0 1-.874-2.645L3.675 8.23c.048-.455.43-.8.886-.8h2.464V6.121c0-2.751 2.176-5.003 4.893-5.116Zm6.472 8.216H5.363L4.289 19.402c-.045.453.11.915.424 1.264.314.348.757.548 1.214.548h12.116c.46 0 .884-.188 1.192-.528.315-.349.463-.807.416-1.29l-1.046-10.18Zm-6.472-6.43a3.334 3.334 0 0 0-3.325 3.335l-.001 1.308h6.652V6.121a3.335 3.335 0 0 0-3.143-3.33Z"/><path d="M15.993 12.46a.886.886 0 0 0-1.253 0l-3.958 3.958-1.522-1.522a.886.886 0 1 0-1.253 1.253l2.148 2.149a.884.884 0 0 0 1.254 0l4.584-4.585a.886.886 0 0 0 0-1.253Z"/></symbol><symbol viewBox="0 0 24 24" id="account-list" xmlns="http://www.w3.org/2000/svg"><path d="M20.25 1A2.753 2.753 0 0 1 23 3.75v16.5A2.753 2.753 0 0 1 20.25 23H3.75A2.753 2.753 0 0 1 1 20.25V3.75A2.753 2.753 0 0 1 3.75 1Zm0 1.833H3.75a.918.918 0 0 0-.917.917v16.5c0 .506.412.917.917.917h16.5c.505 0 .917-.411.917-.917V3.75a.918.918 0 0 0-.917-.917ZM6.152 16.657a.949.949 0 0 1 .999.192.947.947 0 0 1 .192.303.77.77 0 0 1 .074.348.907.907 0 0 1-.917.917.911.911 0 0 1-.917-.917c0-.12.028-.238.074-.348.046-.11.11-.211.192-.303.092-.082.193-.146.303-.192Zm11.348-.074a.916.916 0 1 1 0 1.834h-7.333a.916.916 0 1 1 0-1.834ZM6.152 11.157a.917.917 0 0 1 .696 0c.11.046.211.11.303.192l.11.138c.037.055.064.11.082.165.028.055.046.11.055.165.01.064.019.128.019.183 0 .238-.101.477-.266.65a.964.964 0 0 1-.651.267.964.964 0 0 1-.65-.266.964.964 0 0 1-.267-.651c0-.055.01-.12.019-.183a.582.582 0 0 1 .055-.165.695.695 0 0 1 .082-.165l.11-.138c.092-.082.193-.146.303-.192Zm11.348-.074a.917.917 0 0 1 0 1.834h-7.333a.917.917 0 0 1 0-1.834ZM6.152 5.657a.876.876 0 0 1 .531-.055c.055.009.11.027.165.055.055.018.11.045.165.082l.138.11a.947.947 0 0 1 .192.303c.046.11.074.229.074.348 0 .238-.101.477-.266.65l-.138.11a.695.695 0 0 1-.165.083.582.582 0 0 1-.165.055c-.064.01-.128.019-.183.019a.964.964 0 0 1-.65-.266.947.947 0 0 1-.193-.303.912.912 0 0 1-.074-.348c0-.12.028-.238.074-.348.046-.12.11-.211.192-.303.092-.082.193-.147.303-.192ZM17.5 5.583a.917.917 0 0 1 0 1.834h-7.333a.917.917 0 0 1 0-1.834Z"/></symbol><symbol viewBox="0 0 24 24" id="account-upload" xmlns="http://www.w3.org/2000/svg"><path d="M4.006 1A1 1 0 0 0 3 2.004v19.992A1 1 0 0 0 4.006 23h15.99A1 1 0 0 0 21 21.996V6.018a1 1 0 0 0-.2-.597l-3.004-4.015A1 1 0 0 0 16.999 1H4.006ZM5 3h11.497L19 6.35V21H5V3Zm6.988 3.985a1 1 0 0 0-.693.295l-4 4a1 1 0 1 0 1.417 1.41l2.286-2.286v5.584a1 1 0 1 0 2.002 0v-5.594l2.294 2.296a1 1 0 1 0 1.41-1.41l-4-4a1 1 0 0 0-.716-.295Z"/></symbol><symbol viewBox="0 0 9 14" id="arrow-slider" xmlns="http://www.w3.org/2000/svg"><path d="M2.827 7.003 8.16 1.765a.752.752 0 0 0 .227-.541.753.753 0 0 0-.227-.542L7.69.224A.78.78 0 0 0 7.141 0a.78.78 0 0 0-.552.224L.241 6.46a.753.753 0 0 0-.227.543c0 .206.08.399.227.543l6.342 6.23a.78.78 0 0 0 .551.224.78.78 0 0 0 .552-.224l.467-.458a.757.757 0 0 0 0-1.083L2.827 7.003"/></symbol><symbol viewBox="0 0 19 22" id="bag" xmlns="http://www.w3.org/2000/svg"><path d="M9.663 0c2.817 0 5.108 2.297 5.108 5.12V6.43h2.168c.418 0 .775.291.867.69l.019.112 1.128 10.985a3.475 3.475 0 0 1-.87 2.67A3.388 3.388 0 0 1 15.574 22H3.457c-.96 0-1.884-.414-2.536-1.136a3.448 3.448 0 0 1-.874-2.645L1.205 7.23c.048-.455.43-.8.886-.8h2.464V5.121C4.556 2.37 6.732.118 9.449.005Zm6.472 8.216H2.893L1.819 18.402c-.045.453.11.915.424 1.264.314.348.757.548 1.214.548h12.116c.46 0 .884-.188 1.191-.528.316-.349.464-.807.417-1.29l-1.046-10.18Zm-6.472-6.43a3.334 3.334 0 0 0-3.326 3.335v1.308h6.652V5.121a3.335 3.335 0 0 0-3.143-3.33Z"/></symbol><symbol viewBox="0 0 14 14" id="brand" xmlns="http://www.w3.org/2000/svg"><path d="M13.595 6.727 7.149.281c-.198-.217-.395-.298-.596-.278H1.416C1.021.003.684.162.425.42c-.26.26-.419.616-.419.992v5.136c0 .198.078.395.28.596l6.445 6.446c.515.515 1.368.535 1.883 0l2.48-2.479 2.478-2.48c.538-.537.538-1.39.023-1.905ZM4.213 4.21A1.474 1.474 0 1 1 2.13 2.125 1.474 1.474 0 0 1 4.213 4.21Z" fill="#000" fill-rule="nonzero"/></symbol><symbol viewBox="0 0 10 10" id="close" xmlns="http://www.w3.org/2000/svg"><path d="m6.101 5 3.74-3.739a.544.544 0 0 0 0-.773L9.512.16A.542.542 0 0 0 9.126 0a.542.542 0 0 0-.387.16L5 3.899 1.261.16A.542.542 0 0 0 .874 0a.542.542 0 0 0-.386.16L.16.488a.547.547 0 0 0 0 .773L3.899 5 .16 8.739a.544.544 0 0 0-.16.387c0 .146.057.283.16.386l.328.328c.103.103.24.16.386.16a.542.542 0 0 0 .387-.16l3.74-3.739L8.738 9.84c.103.103.24.16.387.16a.543.543 0 0 0 .387-.16l.327-.328a.543.543 0 0 0 .16-.386.544.544 0 0 0-.16-.387L6.101 5Z"/></symbol><symbol viewBox="0 0 24 21" id="compare" xmlns="http://www.w3.org/2000/svg"><path d="M5.3 20.3c.1-1.1.9-1.3 2.4-1.3h3.6V4.9h-.1c-.7-.3-1.2-.8-1.5-1.5v-.1H5.3l3 7.6v.3c0 2.3-1.9 4.1-4.1 4.1-2.3 0-4.1-1.8-4.1-4.1v-.3l3.4-8.6c.2-.2.5-.4.8-.4h5.4v-.1C10 .8 11 .2 12 .2c1 0 1.9.6 2.3 1.6v.1h5.4c.3 0 .6.2.7.4l3.4 8.6v.3c0 2.3-1.9 4.1-4.1 4.1-2.3 0-4.1-1.8-4.1-4.1v-.3l3-7.6h-4.4v.1c-.2.7-.8 1.2-1.5 1.5h-.1V19h3.6c1.5 0 2.3.2 2.4 1.3H5.3Zm11.8-8.2c.4 1.1 1.4 1.8 2.6 1.8 1.2 0 2.2-.7 2.6-1.8l.1-.2h-5.3v.2Zm-15.4 0c.4 1.1 1.4 1.8 2.6 1.8 1.2 0 2.2-.7 2.6-1.8l.1-.2H1.6l.1.2Zm15.6-1.7h4.8l-2.4-6-2.4 6Zm-15.4 0h4.8l-2.4-6-2.4 6ZM12 1.6c-.6 0-1 .5-1 1 0 .6.5 1 1 1s1-.5 1-1c0-.6-.4-1-1-1Z"/></symbol><symbol viewBox="0 0 12 10" id="double-arrow" xmlns="http://www.w3.org/2000/svg"><path d="m1.023 0 5 5-5 5L0 8.977 3.977 5 0 1.023 1.023 0Zm6 0 5 5-5 5L6 8.977 9.977 5 6 1.023 7.023 0Z" fill="#999" fill-rule="evenodd"/></symbol><symbol viewBox="0 0 9 6" id="dropdown-arrow" xmlns="http://www.w3.org/2000/svg"><path d="m9 .92-4.5 4.5L0 .92.92 0 4.5 3.58 8.08 0z"/></symbol><symbol viewBox="0 0 22 22" id="facebook" xmlns="http://www.w3.org/2000/svg"><path d="M16.484 0H5.494C2.475 0 0 2.473 0 5.495v10.99c0 3.02 2.473 5.494 5.495 5.494h10.99c3.021 0 5.494-2.474 5.494-5.495V5.494C21.979 2.474 19.506 0 16.484 0Zm3.663 16.484a3.667 3.667 0 0 1-3.663 3.663H5.494a3.668 3.668 0 0 1-3.662-3.663V5.494a3.667 3.667 0 0 1 3.663-3.662h10.99a3.667 3.667 0 0 1 3.662 3.663v10.99Z"/><path d="M8.22 11.391h1.316v5.415c0 .107.087.194.194.194h2.23a.194.194 0 0 0 .194-.194v-5.39h1.512a.194.194 0 0 0 .192-.17l.23-1.994a.194.194 0 0 0-.193-.216h-1.741v-1.25c0-.376.202-.568.603-.568h1.138a.194.194 0 0 0 .194-.193v-1.83a.194.194 0 0 0-.194-.194h-1.57L12.255 5c-.272 0-1.219.053-1.967.741-.828.763-.713 1.675-.685 1.834v1.46H8.22a.194.194 0 0 0-.194.194v1.969c0 .107.087.193.194.193Z"/></symbol><symbol viewBox="0 0 24 24" id="filter" xmlns="http://www.w3.org/2000/svg"><path d="M.846 7.073c0 .567.434 1 1 1H3.28a3.522 3.522 0 0 0 3.368 2.501c1.6 0 2.935-1.067 3.368-2.5h11.405c.566 0 1-.434 1-1.001s-.433-1-1-1H9.982A3.522 3.522 0 0 0 6.615 3.57a3.522 3.522 0 0 0-3.368 2.501H1.813c-.533 0-.967.467-.967 1Zm5.769-1.5c.834 0 1.5.666 1.5 1.5 0 .833-.666 1.5-1.5 1.5s-1.5-.667-1.5-1.5c0-.834.666-1.5 1.5-1.5ZM.846 18.237c0 .567.434 1 1 1h10.871a3.522 3.522 0 0 0 3.368 2.502c1.6 0 2.934-1.068 3.368-2.502h1.968c.566 0 1-.433 1-1s-.433-1-1-1h-1.968a3.522 3.522 0 0 0-3.368-2.501 3.522 3.522 0 0 0-3.368 2.5H1.847c-.567 0-1 .434-1 1.001Zm15.24-1.5c.833 0 1.5.666 1.5 1.5s-.667 1.5-1.5 1.5c-.834 0-1.501-.666-1.501-1.5s.667-1.5 1.5-1.5Z"/></symbol><symbol viewBox="0 0 22 19" id="heart" xmlns="http://www.w3.org/2000/svg"><path d="M10.522 18.6c-.287-.191-2.487-1.53-4.783-3.635C2.487 12 .765 8.322.765 5.93.765 2.678 3.443 0 6.695 0c1.435 0 2.87.574 4.018 1.53l.287.192.287-.192A5.987 5.987 0 0 1 15.304 0c3.253 0 5.93 2.678 5.93 5.93 0 2.392-1.625 6.07-4.973 9.035-2.296 2.105-4.687 3.54-4.783 3.635l-.478.287-.478-.287ZM6.696 1.817c-2.296 0-4.209 1.913-4.209 4.21 0 1.816 1.53 5.208 4.304 7.695 1.53 1.339 3.061 2.487 3.922 3.06l.191.096.192-.095c.765-.574 2.391-1.626 3.921-3.061 2.774-2.487 4.305-5.879 4.305-7.696 0-2.296-1.913-4.209-4.209-4.209-1.435 0-2.678.67-3.443 1.913l-.766 1.148-.765-1.148C9.47 2.487 8.13 1.817 6.696 1.817Z"/></symbol><symbol viewBox="0 0 22 22" id="instagram" xmlns="http://www.w3.org/2000/svg"><path d="M16.484 0c3.022 0 5.495 2.473 5.495 5.495v10.99c0 3.02-2.473 5.494-5.495 5.494H5.494C2.475 21.98 0 19.505 0 16.484V5.494C0 2.474 2.473 0 5.495 0Zm0 1.832H5.494a3.667 3.667 0 0 0-3.662 3.663v10.99a3.668 3.668 0 0 0 3.663 3.662h10.99a3.667 3.667 0 0 0 3.662-3.663V5.494a3.667 3.667 0 0 0-3.663-3.662ZM10.99 5.495a5.495 5.495 0 1 1 0 10.989 5.495 5.495 0 0 1 0-10.99Zm0 1.831a3.663 3.663 0 1 0 0 7.326 3.663 3.663 0 0 0 0-7.326Zm5.953-3.663a1.374 1.374 0 1 1 0 2.747 1.374 1.374 0 0 1 0-2.747Z"/></symbol><symbol viewBox="0 0 150 61" id="logo-black" xmlns="http://www.w3.org/2000/svg"><g fill-rule="nonzero" fill="none"><g fill="#000"><path d="M29.707 28.218c.342 1.782 0 3.851-.569 5.633-1.935 6.092-7.512 10.344-13.09 12.873-2.333 1.092-5.007 2.012-7.568 2.529-1.594.287-3.13.402-4.667.115-.797-.115-3.016-.288-3.528-1.035-.513-.632.056-.574.682-.69 1.48-.23 2.903-.46 4.269-.919 3.244-.977 6.374-2.471 9.22-4.195 2.731-1.667 5.235-3.563 7.34-5.92.968-1.15 1.879-2.356 2.505-3.735.284-.69.91-2.76.626-3.046-.114-.058-.285-1.035-.285-1.61.057.345.228.748.285.977a6.304 6.304 0 0 0-.399-1.724v.173c-.17-.23-.74-.977-.796-.977-.456-.46-1.025-.69-1.65-.747-1.253-.173-2.106.517-3.188.804-1.309.345-5.065-2.069-3.585-3.218.683-.517 1.707-.747 2.504-1.265 1.252-.92 2.504-1.896 3.642-3.046 1.252-1.206 2.277-2.528 3.301-3.908.228-.344 1.878-3.218 2.163-3.16 0 0-.399.919-.399.976.57-1.092 1.139-2.183 1.537-3.275V9.77l.057-.057.057-.173c.683-1.551 1.309-4.712-.057-5.057-.91-.23-1.992 1.092-2.561 1.666-2.903 2.874-5.407 6.322-7.626 9.77a204.91 204.91 0 0 0-3.642 5.92c-.74 1.207-1.708 2.184-2.22 3.39-1.593 3.737-3.244 7.357-4.496 11.265-.626 2.012-1.024 4.023-1.366 6.092l-.17-.287c-1.423 1.552-3.529.46-4.212-1.207-.74-1.724-.341-4.195-.284-5.977.113-2.184.227-4.368.74-6.494.227-.862.512-1.667.796-2.472.057-.23.228-1.781.342-1.839 0 .058 0 .115.057.173 0-.115.056-.23.056-.345-.227.517-.056-.805 0-.862.114-.575.285-1.15.456-1.667.284-1.034.569-1.954.74-2.988.113-.345 1.365-4.943 1.878-4.828.113.058-.114.345-.057.402l.341-1.149c-.17-.057 2.277-5.517 2.504-5.977.91-1.724 1.594-3.39 3.073-4.655.911-.747 2.05-2.931 3.7-2.3.74.288 1.536 1.438 1.593 2.242 0 .633-.284.747-.626 1.092a.43.43 0 0 1 .228-.115c.114.058-1.252 1.782-1.366 1.724-.057 0 .17-.344.284-.632-1.82 2.529-3.243 5.288-4.496 8.219.513-1.092 2.618-5.46 2.96-5.633-.228.173-2.675 5.403-2.903 5.863-.853 2.069-1.65 4.137-2.22 6.264-.568 2.069-.967 4.138-1.536 6.207-.455 1.666-1.138 3.506-1.366 5.172.057-.115.114-.23.228-.287.057-.058-.228 2.414-.228 2.586l-.227 1.954c2.22-7.529 5.862-14.655 10.187-21.092a88.37 88.37 0 0 0-4.61 7.356c-.683 1.265-1.309 2.587-1.935 3.851-.455.92-1.423 2.414-1.593 3.333.113-.862.796-1.896 1.195-2.7.398-.978.853-1.897 1.366-2.817a86.431 86.431 0 0 1 2.731-5.057c2.163-3.449 4.496-6.84 7.057-10a58.499 58.499 0 0 1 3.927-4.426c1.195-.92 2.675-2.528 4.211-2.816 2.846-.46 4.667 2.529 4.895 5 .91 7.414-5.464 15.058-11.895 17.874 3.415-.287 6.887 1.322 7.683 4.942Zm-25.268.173c.057-.288.057-.632.057-.862-.228.517-.626 1.092-.74 1.551-.284 1.092-.455 2.644-.341 3.736-.057-.747.113-1.896.398-2.644.228-.517.512-1.092.626-1.781Zm6.602-13.678c-.057.115-.114.23-.114.287l.114-.287Zm.853-1.954a.437.437 0 0 0-.114.23l.114-.23Zm13.374 20.344-.227.575c-.854 1.782-1.821 3.219-3.13 4.713l-1.708 1.839c.626-.46 1.366-.747 2.106-1.38.74-.69 1.65-1.724 1.992-2.7.341-.805.91-2.184.967-3.047ZM20.374 8.736l.341-.345-.341.345Zm8.309 8.39c.455-.517.854-1.034 1.309-1.494 1.252-1.437 1.878-2.816 2.39-4.54-.512 1.15-1.252 2.241-1.764 3.16-.57.978-1.252 1.955-1.935 2.874ZM67.04 5.287c-.455.115-.91.058-1.308.23-.171-.115-.285-.115-.512 0 .056.115 0 .23-.057.23a9.537 9.537 0 0 1-2.846.805c-1.024.23-2.049.517-3.073.69-.398.057-.854.057-1.252.23-.512.172-.399.23-.74.344-.91.345-1.878.345-2.789.46-.512.115-1.08.23-1.593.402l-.91.173c0 .172-.114.287-.228.402 0-.173 0-.23.114-.402-.285.057-.854 2.126-.968 2.413l-1.081 2.759c-.512 1.322-1.025 2.644-1.48 3.966a134.11 134.11 0 0 1 1.878-4.886c-1.081 2.644-3.87 10.633-4.211 11.495 2.22-.23 4.496-.403 6.658-.69a35.49 35.49 0 0 1 3.472-.345h.683c.17-.057.284-.287.398-.23.626.23.455.69.057 1.035-.683.575-1.707.345-2.504.575-.398.114-.228.23-.683.402-.455.287-1.252.345-1.764.46-.968.115-1.878.287-2.846.46-.74.114-1.081.517-1.935.632-.683.114-1.935 0-2.504.402-.284.23-.569 1.667-.74 2.069l-.626 1.896c-.74 2.53-1.65 4.943-2.504 7.414-.512 1.322-.967 2.701-1.422 4.023-.285.92-.74 1.724-.797 2.701 0 .173.227-.977.341-.804.171.172-.057.747 0 .977 2.22-.403 4.61-1.954 6.602-3.046 1.935-1.035 3.813-2.242 5.748-3.219.91-.46 1.423-.23 1.024.805-.341.977-1.309 1.954-2.105 2.701-1.139 1.035-2.22 2.07-3.415 3.046-2.447 1.84-6.033 4.598-9.22 3.218-1.991-.804-4.097-2.758-3.87-5.114.114-.977.683-1.667 1.139-2.472.114-.23.569-2.299.796-2.356l-.227.69.227-.748c-.056-.057.171-.804.171-.92l.57-1.436c.34-.92.74-1.781 1.08-2.758.74-1.782 1.082-3.679 1.822-5.46-1.366 0-3.586-1.897-1.708-2.759.057 0 .114 0 .114-.057.683-.23 1.537-.173 2.22-.23.284-.058.626-.23.853-.23.057 0 .114-.402.228-.345 0 0-.114.402-.17.46.227-.058.625-1.437.74-1.954-.058.172-.172.287-.228.46.056 0 4.154-12.472 4.495-13.621-1.65.23-4.666-.058-4.382-2.414.057-.575.285-.862.91-1.092 1.367-.517 4.27.23 5.123-1.034.683-.92.114-2.184 1.309-2.587.853-.287 2.049.23 2.732.748.398.287.626.69.967 1.034.114.172.17.287.17.517l.968-.172c2.334-.23 4.667-.402 7.057-.747 2.22-.23 4.44-.632 6.659-.69.227 0 .626 0 .796-.057.171 0 .342-.23.399-.23.227 0 .569 0 .626.402.114.862-1.878 1.207-2.447 1.38ZM45.359 16.092c-.512 1.322-1.138 2.644-1.537 3.965l-2.39 6.667c.683-1.552 1.366-2.93 2.049-4.54.796-1.954 1.252-4.195 1.878-6.092Zm1.081 6.782-.683 1.666c.17 0 .228-.172.228-.402l.455-1.264Zm3.7-9.828.17-.345-.17.345Zm.227-.517s.057-.115.057-.173c0 .058-.057.115-.057.173Zm.17-.288c-.056 0-.056.058-.113.115.057-.057.057-.115.114-.115Z"/></g><g fill="#000"><path d="M72.898 32.212c-.917 1.299-1.72 2.54-2.752 3.783-1.031 1.412-2.35 3.614-4.242 4.066-.4.057-2.407-.452-2.35-.79h.115c-.401-.226 0 .282-.63-.226-.46-.34-.803-.79-1.09-1.243-.573-.79-1.318-1.468-1.548-2.371-.057-.283-.172-2.146.287-2.146.115 0 0 .282.057.282l.172-.96c-.057.113-.057.17-.172.226-.23-.057.803-3.727.917-4.066.402-1.073.631-2.315 1.663-2.936.802-.509 1.777-.396 2.809 0 .401.169 1.662.677 1.662 1.185 0 .34-.286.34-.401.509.057-.057.172-.057.23-.057.171.113-.631 1.186-.746 1.13-.115 0 .057-.283.115-.396-1.032 1.638-1.835 3.445-2.465 5.252.286-.678 1.605-3.614 1.72-3.558.171.057-3.497 6.269-1.663 7.172.86.396 2.293-.903 2.866-1.355 1.032-.79 2.35-1.75 3.096-2.654-.115.113-.23.113-.344.113-.23-.283 2.407-3.67 2.923-4.01.344-.282 1.09-.451 1.204.226.058 1.017-.917 2.146-1.433 2.824Zm-9 2.993-.115.395.115-.339v-.056c.057-.057.057-.057 0 0Zm1.147-14.4c.057 0 .057.056 0 0 .114 0 .114 0 .114-.057-.057.057-.057.057-.114.057Zm.802-1.356c-.115.226-.23.34-.23.34l.23-.34Z"/><path d="M89.752 33.68c-1.147 1.468-2.236 2.993-3.497 4.348-.975.96-2.523 2.654-4.013 2.203-.344-.113-2.293-1.13-2.236-1.412l.172.113-.344-.34c.287.396-.344-.112-.344-.112-.286-.282-.458-.678-.63-1.016-.287-.565-.344-1.13-.344-1.695 0-.564.115-1.129.172-1.694.115-1.186.172-2.259.516-3.388.114-.282 1.204-3.162 1.605-3.05.115 0-.172.34-.115.396l.745-1.468c-.114.113-.171.226-.286.282-.057-.056.63-1.242.802-1.525-1.031 1.186-1.891 2.429-2.866 3.67-.688.904-1.548 1.47-2.006 2.316-1.09 1.864-2.465 3.614-3.382 5.534l-.23-.395c-.974 1.13-2.35-.226-2.923-1.073-.459-.847-.344-1.468-.23-2.372.115-.847.058-1.637.344-2.54.344-1.074.746-2.147 1.147-3.22a74.197 74.197 0 0 1 1.146-3.275c.287-.678.803-1.525.975-2.259.172-.564 0-.96.688-1.355.63-.339 1.318-.339 2.006-.226.86.17 2.35 1.017 1.49 2.315-.343.452-1.031.96-1.432 1.525-.46.565-.402.847-.631 1.525-.115.395-.516.79-.745 1.186-.344.564-.516 1.298-.745 1.976-.115.395-.058.734-.115 1.13-.115 1.072-.459 2.202-.573 3.275.057-.226.4-.565.458-.508.058.056-.516.96-.458.96l3.095-4.462a50.827 50.827 0 0 1-1.204 1.525c-.172-.113 6.134-8.019 6.88-8.696 1.547-1.412 3.496-1.356 4.241 1.073.86 2.597-1.891 4.291-3.153 6.211-.687 1.017-1.26 2.316-1.777 3.389-.344.677-1.146 2.202-1.26 3.331.114-.79.687-1.694.916-2.258.402-1.073 1.032-1.977 1.835-2.768-.344.678-.803 1.3-1.09 1.92l.287-.338c.115 0-.458 1.75-.516 1.863a7.645 7.645 0 0 0-.458 1.977c-.058.056 0 .903 0 .903l.057.057c0-.057.344-.113.459-.17.802-.282 1.605-1.016 2.235-1.524 1.262-.96 2.465-2.09 3.67-3.106.916-.847 2.063-1.638 2.808-2.542.344-.451 1.032-1.298 1.319-.056.172 1.242-1.835 2.993-2.465 3.84Z"/><path d="M121.739 15.045c.057-.057.115-.057.172-.057.114.057-1.147 1.977-1.319 1.864-.114 0 .459-.904.402-.904-1.835 2.71-3.325 5.59-4.586 8.527.63-1.299 2.522-5.251 2.923-5.534-.344.452-2.751 5.59-2.98 6.099A54.299 54.299 0 0 0 114 31.478c-.573 2.146-1.032 4.291-1.662 6.38-.516 1.808-1.262 3.897-1.49 5.591.056-.225.114-.395.286-.62-.058.056-.058 2.484 0 2.88.114.62 0 .733.516.677.917-.113 1.949-1.581 2.465-2.146.344-.452 1.031-1.694 1.662-1.92.401-.226.516-.17.745.339.344.734-.229 2.146-.458 2.88-.344.903-.803 1.581-1.319 2.315-.802 1.13-1.662 1.977-3.153 1.92-1.433-.113-2.694-.734-3.554-1.863-1.376-1.864-1.548-4.405-1.26-6.607.114-.848.4-1.525.63-2.26.057-.282.057-1.806.229-1.863.057.057.057.113.057.17.058-.113.058-.226.058-.34-.115.114 0-1.129.114-1.411.172-.678.344-1.355.573-2.033.344-1.242.46-2.485.918-3.727-1.49 2.315-2.981 4.744-4.586 6.946-1.605 2.033-3.325 3.84-5.045 5.703 0 0-.573.791-.86.904.172-.113.63-.678.63-.678l-1.031.96c.573-.395-.287.452-.459.565-.286.282-.63.395-1.031.452-.344.056-.803-.057-1.147-.17-2.178-.677-4.185-2.54-5.274-4.46-.573-1.074-.63-2.203-.573-3.39a58.47 58.47 0 0 1 .458-3.33c.115-.34.574-2.598.803-2.598 0 0-.115.677-.057.677.229-.96.401-1.863.688-2.767l-.344.678c-.115-.79.63-2.146.86-2.88.229-.734.4-1.468.687-2.203a40.032 40.032 0 0 1 2.121-5.477c.86-1.92 1.606-3.897 2.523-5.76.458-.904.86-1.92 1.548-2.71.4-.453.63-.566.917-1.187.745-1.58 1.662-3.388 2.751-4.8.23-.282.402-.508.746-.734 1.547-.79 3.382.847 4.012 2.146.402 1.13.058 1.525-.458 2.202.172-.113.344-.225.344-.169 0 .339-2.121 3.162-2.35 3.106 0 0 .458-.79.745-1.186a44.218 44.218 0 0 0-3.268 5.195c.172-.226.344-.395.401-.451-.63.677-3.669 8.244-4.012 8.922-1.204 2.936-2.293 5.93-3.039 9.035l.172-1.581-.057.339c0-.17.057-.339.057-.452l-.344 1.299.23-.508c-.344 2.654-1.376 5.42-.975 8.188.057.339.172 1.016.573 1.242 1.262.565 4.758-3.953 5.332-4.687 1.72-1.976 3.611-4.066 5.044-6.042-.114.113-.573.847-.802.79 0 0 2.006-3.049 2.235-3.444a38.899 38.899 0 0 0 2.408-3.558l5.16-7.68c.859-1.242 1.89-3.388 3.037-4.179 1.434-.96 4.013.283 4.242 1.92-.057.621-.344.79-.63 1.017ZM97.376 25.379c-.287.734-.401 1.468-.573 2.202.802-2.767 1.891-5.421 3.095-8.188 1.605-3.501 3.382-6.89 5.618-9.995-2.236 2.993-4.357 6.211-5.79 9.656-.86 2.09-1.72 4.179-2.35 6.325Zm4.414-8.866c-1.261 2.485-2.35 5.026-3.325 7.567.573-1.412 2.178-5.195 3.325-7.567Zm4.586-8.301c.057 0 .114-.057.114-.113 0 .113-.057.113-.114.113Zm3.267 24.62c-.688 1.808-1.26 3.615-1.605 5.592-.401 2.371-.573 5.082-.114 7.51-.402-2.146.114-4.97.573-7.115.458-2.09.516-3.897 1.146-5.986Zm5.962-6.324-.974 2.372c.229-.395.4-.904.573-1.355l.401-1.017ZM149.312 15.158c.057-.057.115-.113.23-.113.114.056-1.032 1.863-1.262 1.75-.057 0 .115-.226.23-.395-1.606 2.315-2.695 4.8-3.67 7.398.631-1.638 1.892-4.687 2.351-4.97-.344.396-2.35 5.478-2.465 5.986-.745 2.09-1.318 4.235-1.662 6.325-.344 2.202-.574 4.348-.86 6.494-.23 1.694-.63 3.67-.459 5.252 0-.226 0-.396.115-.621.057 0 .401 2.315.745 2.484.172.113.344-.056.459-.056.974-.17 2.006-1.638 2.522-2.26.344-.394 1.032-1.637 1.548-1.863 1.891-.847-.344 4.913-.917 5.535-.86 1.072-1.663 1.976-3.153 1.976a5.459 5.459 0 0 1-3.44-1.242c-1.662-1.525-2.407-3.84-2.522-5.986 0-.96.172-1.694.344-2.598 0-.226-.115-1.75.057-1.807 0 .057.058.113.058.17 0-.113-.058-.226 0-.283-.115 0-.172-.96-.172-.96.057-.678.229-1.299.343-1.976.23-.96.344-1.92.402-2.937 0-.339.974-4.8 1.49-4.743.115 0-.057.338 0 .395l.401-1.468c-2.808 4.46-5.675 9.035-8.828 13.383-1.031 1.3-2.808 4.18-4.7 4.292-1.72.113-3.325-1.694-4.185-2.993 0 0-.63-.621-.688-.903.058.169.516.62.516.62l-.63-1.072c.172.508-.287-.34-.344-.34a2.156 2.156 0 0 1-.344-1.128c-.287-.904-.344-1.808-.344-2.711.057-1.864.573-3.614.974-5.478.344-1.863.975-3.614 1.663-5.364.172-.34 1.605-3.84 1.949-3.784 0 0-.287.678-.23.734.344-.847.746-1.637 1.147-2.485l-.344.452c.057-.847 1.032-1.92 1.376-2.654l1.605-3.05c1.204-2.089 2.694-4.009 4.242-5.872 1.318-1.638 2.98-3.332 5.044-4.066 1.032-.339 2.236-.17 3.268.056 1.949.396 3.955 1.75 5.446 2.993.573.509 1.72 1.356 1.662 2.26 0 .733-.917 1.467-1.49 1.806-1.319.847-1.72.339-2.064-.847 0 .057.172.565.057.621-.114.057-.573-1.637-.63-1.807l-.344-1.016c.172.282.344.395.401.508-.23-.621-.516-1.016-.86-1.242-.516-.226-1.146-.113-2.006.226-1.147.395-2.236 1.129-3.096 1.976-2.522 2.259-4.414 5.195-6.019 8.188a45.503 45.503 0 0 1 3.44-5.195c.63-.847 1.318-1.638 2.12-2.315.345-.34 1.205-.847 1.663-1.243-.573.678-1.605 1.3-2.178 1.864-.688.734-1.261 1.525-1.835 2.315-1.26 1.694-2.35 3.558-3.382 5.421a58.415 58.415 0 0 0-4.93 12.48c-.516 1.977-1.031 4.01-1.26 6.043-.058.451-.402 2.258.114 2.54.802.453 3.038-2.202 3.44-2.597 1.203-1.242 2.407-2.485 3.496-3.727-.23.226-.401.452-.516.395-.057 0 2.007-2.993 2.236-3.218l2.522-3.558c1.777-2.541 3.554-5.195 5.274-7.737.401-.62.745-1.298 1.09-1.976.286-.565.687-.904 1.031-1.242.344-.34.401-1.017.803-1.469 1.318-1.637 3.497-.508 4.414.904.458.734-.115 1.073-.459 1.525Zm-23.79 20.668v.226l.115-.96c.115-1.694.459-3.445.917-5.14.86-3.387 1.892-6.888 3.153-10.164 1.204-3.05 2.58-6.042 4.357-8.866.86-1.468 2.006-3.05 3.44-4.291-1.663 1.298-2.924 3.162-3.784 4.743-1.663 2.767-3.153 5.534-4.414 8.47-1.49 3.389-2.58 7.116-3.096 10.787-.344 1.694-.63 3.444-.688 5.195Zm4.529-15.586-.115.282.115-.17v-.112Zm7.624-13.779.63-.452c-.171.113-.4.283-.63.452Zm.344 35.181c-.057-.564 0-1.13.057-1.694.115-.96.344-1.92.402-2.936.057-.847 0-1.694.114-2.485a4.242 4.242 0 0 0-.344 1.017c-.286 1.016-.344 1.976-.344 3.049-.057 1.073 0 2.033.115 3.05Zm5.56-35.52-.229-.395c.058.057.172.226.23.395Zm0 0 .173.17s-.115-.057-.172-.17Zm1.262 17.676-.172.395.172-.395Z"/></g><g fill="#000"><path d="M73.829 53.647h1.428l-2 2.412L74.4 58.47h-1.429l-1.085-2.353-.515 2.353h-1.257l1.029-4.883H72.4l-.457 2.236zM75.6 53.647h1.257l.229 2.235c.057.353.057.765.057 1.294.057-.176.114-.294.171-.529.057-.176.172-.412.286-.647l1.086-2.353h1.371L77.2 59.235c-.514.941-1.2 1.47-2.057 1.47-.229 0-.457 0-.629-.058v-1.059c.172.06.343.06.515.06.228 0 .457-.06.628-.236.172-.118.343-.353.514-.647l.115-.236-.686-4.882ZM83.943 58.47h-1.257l.571-2.823c.057-.176.057-.353.057-.53 0-.352-.171-.529-.457-.529-.286 0-.514.177-.686.47-.228.354-.4.766-.514 1.413l-.4 2H80l1.029-4.883H82l-.114.883c.4-.647.914-1 1.485-1 .4 0 .686.117.915.353.228.235.343.588.343 1.058 0 .236-.058.47-.115.765l-.571 2.824ZM85.657 53.647h1.257l.229 2.235c.057.353.057.765.057 1.294.057-.176.114-.294.171-.529.058-.176.172-.412.286-.647l1.086-2.353h1.371l-2.857 5.588c-.514.941-1.2 1.47-2.057 1.47-.229 0-.457 0-.629-.058v-1.059c.172.06.343.06.515.06.228 0 .457-.06.628-.236.172-.118.343-.353.515-.647l.114-.236-.686-4.882ZM91.029 53.647h1.257l-.572 2.824c-.057.176-.057.353-.057.529 0 .353.172.53.457.53.286 0 .515-.177.686-.471.229-.353.4-.765.514-1.412l.4-2h1.257l-1.028 4.882h-.972l.115-.882c-.4.647-.915 1-1.486 1-.4 0-.686-.118-.914-.353-.229-.235-.286-.588-.286-1.059 0-.294.057-.588.114-.94l.515-2.648Zm4.228-2.118c-.114.412-.228.706-.4.883-.171.235-.4.353-.743.47-.285.118-.685.177-1.085.177-.572 0-.972-.118-1.315-.353a1.271 1.271 0 0 1-.457-1v-.177H92.4v.236c0 .411.229.588.743.588.286 0 .514-.059.628-.177.172-.117.286-.352.343-.647h1.143ZM98.171 53.647h1.258l.228 2.235c.057.353.057.765.057 1.294.057-.176.115-.294.172-.529.057-.176.171-.412.285-.647l1.086-2.353h1.372l-2.858 5.588c-.514.941-1.2 1.47-2.057 1.47-.228 0-.457 0-.628-.058v-1.059c.171.06.343.06.514.06.229 0 .457-.06.629-.236.171-.118.342-.353.514-.647l.114-.236-.686-4.882ZM106.229 53.647h1.428l-2 2.412 1.143 2.412h-1.429l-1.085-2.353-.515 2.353h-1.257l1.029-4.883h1.257l-.457 2.236zM110.971 53.53c.4 0 .743.176.972.47.228.294.343.765.343 1.294 0 .53-.115 1.059-.286 1.588a2.7 2.7 0 0 1-.8 1.236c-.343.294-.686.47-1.086.47-.228 0-.457-.059-.628-.176a1.376 1.376 0 0 1-.457-.53h-.058c-.057.47-.114.883-.171 1.294l-.286 1.471h-1.257l1.429-7h.971l-.057.765h.057c.4-.588.857-.883 1.314-.883Zm-.514 1.058c-.171 0-.4.118-.571.294-.172.177-.343.47-.457.765a3.42 3.42 0 0 0-.172 1.059c0 .235.057.412.172.53.114.117.228.235.457.235.171 0 .343-.118.514-.295.171-.176.286-.47.4-.823a3.42 3.42 0 0 0 .171-1.059c.058-.47-.114-.706-.514-.706ZM114.629 58.588c-.4 0-.743-.176-.972-.47-.228-.294-.343-.765-.343-1.294 0-.589.115-1.118.286-1.648.229-.529.457-.94.8-1.235a1.576 1.576 0 0 1 1.086-.412c.285 0 .514.06.685.177.172.118.343.294.458.53h.057l.228-.648h.972l-1.029 4.883h-.971l.057-.647c-.343.529-.8.764-1.314.764Zm.457-1.059c.171 0 .4-.117.571-.294.172-.176.343-.47.457-.764.115-.353.172-.706.172-1.118 0-.235-.057-.353-.172-.53-.114-.117-.228-.176-.457-.176-.171 0-.4.118-.571.294-.172.235-.286.47-.4.824a3.35 3.35 0 0 0-.172 1c0 .235.057.47.115.588.171.118.285.176.457.176ZM119.657 58.47H118.4l1.029-4.882h1.257l-1.029 4.883Zm-.914-6c0-.235.057-.411.171-.529.115-.117.286-.176.515-.176.4 0 .571.176.571.47 0 .236-.057.353-.171.53-.115.117-.286.176-.515.176-.4 0-.571-.176-.571-.47Zm1.714 0c0-.235.057-.411.172-.529.114-.117.285-.176.514-.176.171 0 .343.059.4.117.114.06.171.177.171.353 0 .236-.057.353-.171.53-.114.117-.286.176-.514.176-.4 0-.572-.176-.572-.47ZM123.371 53.647l-.4 1.882h1.486l.4-1.882h1.257l-1.028 4.882h-1.257l.4-2h-1.486l-.4 2h-1.257l1.028-4.882zM128.571 58.588c-.571 0-1.028-.176-1.314-.47-.286-.294-.457-.765-.457-1.294 0-.589.114-1.177.343-1.706A3.09 3.09 0 0 1 128 53.94c.4-.294.8-.412 1.314-.412.515 0 .972.118 1.372.295l-.4 1c-.172-.06-.286-.118-.457-.177-.172-.059-.286-.059-.515-.059-.228 0-.457.118-.628.294a1.902 1.902 0 0 0-.457.765c-.115.294-.172.647-.172 1.059 0 .294.057.47.172.647a.716.716 0 0 0 .514.235c.228 0 .4-.059.571-.117.172-.06.4-.177.572-.236v1.06c-.286.176-.8.293-1.315.293ZM132.8 55.588a3.87 3.87 0 0 1 .914-.117c.457 0 .857.117 1.086.353.286.235.4.588.4.94 0 .354-.114.648-.286.942-.171.235-.457.47-.743.588-.342.118-.742.235-1.2.235-.571 0-.971-.117-1.257-.353-.285-.235-.457-.588-.457-1.058 0-.177.057-.47.114-.765l.572-2.765h1.257l-.4 2Zm.457.824c-.171 0-.4 0-.686.059-.057.294-.114.529-.114.588 0 .176.057.294.172.412.114.117.285.117.457.117.228 0 .457-.059.571-.176.172-.118.229-.294.229-.53 0-.294-.172-.47-.629-.47ZM139.657 53.647h1.429l-2 2.412 1.143 2.412H138.8l-1.086-2.353-.514 2.353h-1.257l1.028-4.883h1.258l-.458 2.236zM143.257 58.588c-.571 0-1.028-.176-1.371-.47-.343-.353-.515-.765-.515-1.412 0-.588.115-1.177.343-1.647.229-.47.572-.883.972-1.118.4-.235.857-.412 1.371-.412s.914.118 1.143.353c.286.236.4.589.4 1 0 .53-.229.942-.686 1.236-.457.294-1.143.47-2 .47h-.228v.177c0 .235.057.47.228.647.172.176.343.235.629.235.228 0 .457 0 .686-.059.228-.059.457-.176.742-.294v1a5.248 5.248 0 0 1-1.714.294Zm.686-4.117c-.229 0-.457.117-.686.353-.228.235-.343.529-.457.823h.171c.458 0 .8-.059 1.029-.235a.65.65 0 0 0 .343-.588c.057-.236-.057-.353-.4-.353Z"/></g><g fill="#000"><path d="M72.637 7.02c-4.194-.34-5.157 2.663-5.497 5.043-3.06-1.416-6.063-.226-5.95 1.814.057.85.623 1.473 1.303 1.983.227.17 1.134.737 1.134.737.453.226.793.34 1.246.51.227.056.397.17.624.226.226.057.453.114.623.17 1.473.454 2.777.907 2.777 2.834 3.626-3.627 6.63-6.064 7.026-9.52.057-.85.227-3.457-3.286-3.797Z"/><path d="M68.16 22.207V20.45c0-1.303-.737-1.7-2.267-2.153-.17-.057-.34-.114-.566-.17h-.057c-.227-.057-.397-.17-.623-.227-.454-.17-.85-.34-1.304-.567h-.056c-.17-.113-.964-.623-1.19-.793l-.227-.17c-.85-.68-1.303-1.473-1.36-2.38-.057-.963.397-1.87 1.247-2.437 1.246-.85 3.06-1.02 4.873-.453.737-3.457 2.833-5.043 6.12-4.76 1.417.113 2.493.623 3.173 1.473.68.794.907 1.927.737 3.23v.057c-.34 3.173-2.72 5.497-5.723 8.443-.51.454-.964.964-1.474 1.474l-1.303 1.19Zm-4.137-6.177c.397.227.68.34 1.134.453.226.057.396.17.566.227h.057l.51.17c1.02.283 2.437.737 3.003 2.04.17-.17.34-.34.567-.51 2.777-2.72 4.987-4.873 5.27-7.593v-.057c.113-.907 0-1.643-.397-2.097-.396-.51-1.133-.85-2.21-.906-2.776-.227-4.25 1.133-4.703 4.42l-.113.963-.907-.397c-1.813-.85-3.457-.623-4.307-.056-.453.283-.623.68-.623 1.133.057.51.397 1.02 1.02 1.473l.057.057c.226.17.736.51 1.076.68Z"/><path d="M67.877 22.83v-2.38c0-1.077-.51-1.417-2.04-1.87l-.51-.17h-.114c-.113-.057-.226-.057-.34-.113-.113-.057-.17-.057-.283-.114-.51-.17-.85-.34-1.303-.566h-.057l-.283-.227c-.34-.227-.794-.51-.964-.623l-.226-.17c-.907-.737-1.417-1.587-1.474-2.607-.056-1.077.454-2.097 1.36-2.663 1.247-.85 3.004-1.077 4.817-.567.793-3.343 3.003-4.987 6.347-4.703 1.473.113 2.663.68 3.343 1.586.68.85.963 2.04.793 3.457-.34 3.287-2.72 5.667-5.78 8.613l-.056.057c-.34.283-.624.623-.964.963l-.51.51-1.756 1.587Zm-2.55-4.987h.113c.227.057.397.114.567.17 1.416.454 2.436.85 2.436 2.437v1.133l.85-.736.51-.51c.34-.34.624-.68.964-.964 2.946-2.89 5.326-5.213 5.61-8.273.17-1.303-.057-2.323-.68-3.06-.624-.793-1.644-1.247-3.004-1.36-3.173-.283-5.1 1.247-5.836 4.533l-.057.284-.283-.114c-1.7-.566-3.457-.396-4.647.397-.737.51-1.19 1.303-1.133 2.21.056.85.453 1.53 1.246 2.153l.227.17c.17.114.623.454.963.624l.284.113c.453.227.793.397 1.303.567.113 0 .227.056.34.113.057.057.113.113.227.113Zm3.853 1.587-.17-.397c-.567-1.246-2.04-1.643-2.833-1.87l-.567-.17a.43.43 0 0 1-.227-.113c-.113-.057-.17-.113-.283-.113-.453-.114-.793-.227-1.19-.454-.34-.17-.85-.51-1.133-.68l-.114-.056c-.623-.454-1.02-1.02-1.076-1.644 0-.623.226-1.076.736-1.416.85-.567 2.55-.907 4.59.056l.567.227.057-.567c.453-3.4 2.04-4.93 4.986-4.646 1.077.056 1.927.396 2.437 1.02.453.51.567 1.246.453 2.323-.283 2.833-2.493 4.987-5.326 7.763l-.057.057c-.227.17-.34.34-.51.453l-.34.227Zm-3.4-3.003h.113l.51.17c.794.226 2.267.623 3.004 1.813.113-.113.226-.17.34-.283 2.72-2.664 4.873-4.817 5.156-7.424.114-.906 0-1.53-.34-1.926-.396-.51-1.076-.737-2.04-.794-2.663-.226-3.966 1.02-4.42 4.194l-.17 1.36-1.246-.567c-1.7-.793-3.23-.623-4.024-.057-.34.227-.51.51-.51.907.057.397.34.85.907 1.247l.113.113c.17.113.68.453 1.02.623.397.227.624.34 1.077.397.17.057.283.113.397.17 0 0 .056.057.113.057Z"/></g><path d="m75.697 9.57-12.694 6.687c-.963-.567-1.756-1.304-1.813-2.324-.17-2.04 2.89-3.23 5.95-1.813.34-2.38 1.36-5.44 5.497-5.043 2.04.17 3.173.963 3.06 2.493Z" fill="#01A2E8"/><path d="M75.923 10.25c0 3.797-3.23 6.347-7.026 10.2 0-1.87-1.304-2.38-2.777-2.833a9.298 9.298 0 0 0-.623-.17c-.17-.057-.397-.114-.624-.227-.453-.17-.793-.283-1.246-.51l12.296-6.46Z" fill="#FFF303"/></g></symbol><symbol viewBox="0 0 150 61" id="logo-white" xmlns="http://www.w3.org/2000/svg"><g fill-rule="nonzero" fill="none"><path d="M29.707 28.218c.342 1.782 0 3.851-.569 5.633-1.935 6.092-7.512 10.344-13.09 12.873-2.333 1.092-5.007 2.012-7.568 2.529-1.594.287-3.13.402-4.667.115-.797-.115-3.016-.288-3.528-1.035-.513-.632.056-.574.682-.69 1.48-.23 2.903-.46 4.269-.919 3.244-.977 6.374-2.471 9.22-4.195 2.731-1.667 5.235-3.563 7.34-5.92.968-1.15 1.879-2.356 2.505-3.735.284-.69.91-2.76.626-3.046-.114-.058-.285-1.035-.285-1.61.057.345.228.748.285.977a6.304 6.304 0 0 0-.399-1.724v.173c-.17-.23-.74-.977-.796-.977-.456-.46-1.025-.69-1.65-.747-1.253-.173-2.106.517-3.188.804-1.309.345-5.065-2.069-3.585-3.218.683-.517 1.707-.747 2.504-1.265 1.252-.92 2.504-1.896 3.642-3.046 1.252-1.206 2.277-2.528 3.301-3.908.228-.344 1.878-3.218 2.163-3.16 0 0-.399.919-.399.976.57-1.092 1.139-2.183 1.537-3.275V9.77l.057-.057.057-.173c.683-1.551 1.309-4.712-.057-5.057-.91-.23-1.992 1.092-2.561 1.666-2.903 2.874-5.407 6.322-7.626 9.77a204.91 204.91 0 0 0-3.642 5.92c-.74 1.207-1.708 2.184-2.22 3.39-1.593 3.737-3.244 7.357-4.496 11.265-.626 2.012-1.024 4.023-1.366 6.092l-.17-.287c-1.423 1.552-3.529.46-4.212-1.207-.74-1.724-.341-4.195-.284-5.977.113-2.184.227-4.368.74-6.494.227-.862.512-1.667.796-2.472.057-.23.228-1.781.342-1.839 0 .058 0 .115.057.173 0-.115.056-.23.056-.345-.227.517-.056-.805 0-.862.114-.575.285-1.15.456-1.667.284-1.034.569-1.954.74-2.988.113-.345 1.365-4.943 1.878-4.828.113.058-.114.345-.057.402l.341-1.149c-.17-.057 2.277-5.517 2.504-5.977.91-1.724 1.594-3.39 3.073-4.655.911-.747 2.05-2.931 3.7-2.3.74.288 1.536 1.438 1.593 2.242 0 .633-.284.747-.626 1.092a.43.43 0 0 1 .228-.115c.114.058-1.252 1.782-1.366 1.724-.057 0 .17-.344.284-.632-1.82 2.529-3.243 5.288-4.496 8.219.513-1.092 2.618-5.46 2.96-5.633-.228.173-2.675 5.403-2.903 5.863-.853 2.069-1.65 4.137-2.22 6.264-.568 2.069-.967 4.138-1.536 6.207-.455 1.666-1.138 3.506-1.366 5.172.057-.115.114-.23.228-.287.057-.058-.228 2.414-.228 2.586l-.227 1.954c2.22-7.529 5.862-14.655 10.187-21.092a88.37 88.37 0 0 0-4.61 7.356c-.683 1.265-1.309 2.587-1.935 3.851-.455.92-1.423 2.414-1.593 3.333.113-.862.796-1.896 1.195-2.7.398-.978.853-1.897 1.366-2.817a86.431 86.431 0 0 1 2.731-5.057c2.163-3.449 4.496-6.84 7.057-10a58.499 58.499 0 0 1 3.927-4.426c1.195-.92 2.675-2.528 4.211-2.816 2.846-.46 4.667 2.529 4.895 5 .91 7.414-5.464 15.058-11.895 17.874 3.415-.287 6.887 1.322 7.683 4.942Zm-25.268.173c.057-.288.057-.632.057-.862-.228.517-.626 1.092-.74 1.551-.284 1.092-.455 2.644-.341 3.736-.057-.747.113-1.896.398-2.644.228-.517.512-1.092.626-1.781Zm6.602-13.678c-.057.115-.114.23-.114.287l.114-.287Zm.853-1.954a.437.437 0 0 0-.114.23l.114-.23Zm13.374 20.344-.227.575c-.854 1.782-1.821 3.219-3.13 4.713l-1.708 1.839c.626-.46 1.366-.747 2.106-1.38.74-.69 1.65-1.724 1.992-2.7.341-.805.91-2.184.967-3.047ZM20.374 8.736l.341-.345-.341.345Zm8.309 8.39c.455-.517.854-1.034 1.309-1.494 1.252-1.437 1.878-2.816 2.39-4.54-.512 1.15-1.252 2.241-1.764 3.16-.57.978-1.252 1.955-1.935 2.874ZM67.04 5.287c-.455.115-.91.058-1.308.23-.171-.115-.285-.115-.512 0 .056.115 0 .23-.057.23a9.537 9.537 0 0 1-2.846.805c-1.024.23-2.049.517-3.073.69-.398.057-.854.057-1.252.23-.512.172-.399.23-.74.344-.91.345-1.878.345-2.789.46-.512.115-1.08.23-1.593.402l-.91.173c0 .172-.114.287-.228.402 0-.173 0-.23.114-.402-.285.057-.854 2.126-.968 2.413l-1.081 2.759c-.512 1.322-1.025 2.644-1.48 3.966a134.11 134.11 0 0 1 1.878-4.886c-1.081 2.644-3.87 10.633-4.211 11.495 2.22-.23 4.496-.403 6.658-.69a35.49 35.49 0 0 1 3.472-.345h.683c.17-.057.284-.287.398-.23.626.23.455.69.057 1.035-.683.575-1.707.345-2.504.575-.398.114-.228.23-.683.402-.455.287-1.252.345-1.764.46-.968.115-1.878.287-2.846.46-.74.114-1.081.517-1.935.632-.683.114-1.935 0-2.504.402-.284.23-.569 1.667-.74 2.069l-.626 1.896c-.74 2.53-1.65 4.943-2.504 7.414-.512 1.322-.967 2.701-1.422 4.023-.285.92-.74 1.724-.797 2.701 0 .173.227-.977.341-.804.171.172-.057.747 0 .977 2.22-.403 4.61-1.954 6.602-3.046 1.935-1.035 3.813-2.242 5.748-3.219.91-.46 1.423-.23 1.024.805-.341.977-1.309 1.954-2.105 2.701-1.139 1.035-2.22 2.07-3.415 3.046-2.447 1.84-6.033 4.598-9.22 3.218-1.991-.804-4.097-2.758-3.87-5.114.114-.977.683-1.667 1.139-2.472.114-.23.569-2.299.796-2.356l-.227.69.227-.748c-.056-.057.171-.804.171-.92l.57-1.436c.34-.92.74-1.781 1.08-2.758.74-1.782 1.082-3.679 1.822-5.46-1.366 0-3.586-1.897-1.708-2.759.057 0 .114 0 .114-.057.683-.23 1.537-.173 2.22-.23.284-.058.626-.23.853-.23.057 0 .114-.402.228-.345 0 0-.114.402-.17.46.227-.058.625-1.437.74-1.954-.058.172-.172.287-.228.46.056 0 4.154-12.472 4.495-13.621-1.65.23-4.666-.058-4.382-2.414.057-.575.285-.862.91-1.092 1.367-.517 4.27.23 5.123-1.034.683-.92.114-2.184 1.309-2.587.853-.287 2.049.23 2.732.748.398.287.626.69.967 1.034.114.172.17.287.17.517l.968-.172c2.334-.23 4.667-.402 7.057-.747 2.22-.23 4.44-.632 6.659-.69.227 0 .626 0 .796-.057.171 0 .342-.23.399-.23.227 0 .569 0 .626.402.114.862-1.878 1.207-2.447 1.38ZM45.359 16.092c-.512 1.322-1.138 2.644-1.537 3.965l-2.39 6.667c.683-1.552 1.366-2.93 2.049-4.54.796-1.954 1.252-4.195 1.878-6.092Zm1.081 6.782-.683 1.666c.17 0 .228-.172.228-.402l.455-1.264Zm3.7-9.828.17-.345-.17.345Zm.227-.517s.057-.115.057-.173c0 .058-.057.115-.057.173Zm.17-.288c-.056 0-.056.058-.113.115.057-.057.057-.115.114-.115ZM72.898 32.212c-.917 1.299-1.72 2.54-2.752 3.783-1.031 1.412-2.35 3.614-4.242 4.066-.4.057-2.407-.452-2.35-.79h.115c-.401-.226 0 .282-.63-.226-.46-.34-.803-.79-1.09-1.243-.573-.79-1.318-1.468-1.548-2.371-.057-.283-.172-2.146.287-2.146.115 0 0 .282.057.282l.172-.96c-.057.113-.057.17-.172.226-.23-.057.803-3.727.917-4.066.402-1.073.631-2.315 1.663-2.936.802-.509 1.777-.396 2.809 0 .401.169 1.662.677 1.662 1.185 0 .34-.286.34-.401.509.057-.057.172-.057.23-.057.171.113-.631 1.186-.746 1.13-.115 0 .057-.283.115-.396-1.032 1.638-1.835 3.445-2.465 5.252.286-.678 1.605-3.614 1.72-3.558.171.057-3.497 6.269-1.663 7.172.86.396 2.293-.903 2.866-1.355 1.032-.79 2.35-1.75 3.096-2.654-.115.113-.23.113-.344.113-.23-.283 2.407-3.67 2.923-4.01.344-.282 1.09-.451 1.204.226.058 1.017-.917 2.146-1.433 2.824Zm-9 2.993-.115.395.115-.339v-.056c.057-.057.057-.057 0 0Zm1.147-14.4c.057 0 .057.056 0 0 .114 0 .114 0 .114-.057-.057.057-.057.057-.114.057Zm.802-1.356c-.115.226-.23.34-.23.34l.23-.34Z" fill="#FFF"/><path d="M89.752 33.68c-1.147 1.468-2.236 2.993-3.497 4.348-.975.96-2.523 2.654-4.013 2.203-.344-.113-2.293-1.13-2.236-1.412l.172.113-.344-.34c.287.396-.344-.112-.344-.112-.286-.282-.458-.678-.63-1.016-.287-.565-.344-1.13-.344-1.695 0-.564.115-1.129.172-1.694.115-1.186.172-2.259.516-3.388.114-.282 1.204-3.162 1.605-3.05.115 0-.172.34-.115.396l.745-1.468c-.114.113-.171.226-.286.282-.057-.056.63-1.242.802-1.525-1.031 1.186-1.891 2.429-2.866 3.67-.688.904-1.548 1.47-2.006 2.316-1.09 1.864-2.465 3.614-3.382 5.534l-.23-.395c-.974 1.13-2.35-.226-2.923-1.073-.459-.847-.344-1.468-.23-2.372.115-.847.058-1.637.344-2.54.344-1.074.746-2.147 1.147-3.22a74.197 74.197 0 0 1 1.146-3.275c.287-.678.803-1.525.975-2.259.172-.564 0-.96.688-1.355.63-.339 1.318-.339 2.006-.226.86.17 2.35 1.017 1.49 2.315-.343.452-1.031.96-1.432 1.525-.46.565-.402.847-.631 1.525-.115.395-.516.79-.745 1.186-.344.564-.516 1.298-.745 1.976-.115.395-.058.734-.115 1.13-.115 1.072-.459 2.202-.573 3.275.057-.226.4-.565.458-.508.058.056-.516.96-.458.96l3.095-4.462a50.827 50.827 0 0 1-1.204 1.525c-.172-.113 6.134-8.019 6.88-8.696 1.547-1.412 3.496-1.356 4.241 1.073.86 2.597-1.891 4.291-3.153 6.211-.687 1.017-1.26 2.316-1.777 3.389-.344.677-1.146 2.202-1.26 3.331.114-.79.687-1.694.916-2.258.402-1.073 1.032-1.977 1.835-2.768-.344.678-.803 1.3-1.09 1.92l.287-.338c.115 0-.458 1.75-.516 1.863a7.645 7.645 0 0 0-.458 1.977c-.058.056 0 .903 0 .903l.057.057c0-.057.344-.113.459-.17.802-.282 1.605-1.016 2.235-1.524 1.262-.96 2.465-2.09 3.67-3.106.916-.847 2.063-1.638 2.808-2.542.344-.451 1.032-1.298 1.319-.056.172 1.242-1.835 2.993-2.465 3.84Z" fill="#FFF"/><path d="M121.739 15.045c.057-.057.115-.057.172-.057.114.057-1.147 1.977-1.319 1.864-.114 0 .459-.904.402-.904-1.835 2.71-3.325 5.59-4.586 8.527.63-1.299 2.522-5.251 2.923-5.534-.344.452-2.751 5.59-2.98 6.099A54.299 54.299 0 0 0 114 31.478c-.573 2.146-1.032 4.291-1.662 6.38-.516 1.808-1.262 3.897-1.49 5.591.056-.225.114-.395.286-.62-.058.056-.058 2.484 0 2.88.114.62 0 .733.516.677.917-.113 1.949-1.581 2.465-2.146.344-.452 1.031-1.694 1.662-1.92.401-.226.516-.17.745.339.344.734-.229 2.146-.458 2.88-.344.903-.803 1.581-1.319 2.315-.802 1.13-1.662 1.977-3.153 1.92-1.433-.113-2.694-.734-3.554-1.863-1.376-1.864-1.548-4.405-1.26-6.607.114-.848.4-1.525.63-2.26.057-.282.057-1.806.229-1.863.057.057.057.113.057.17.058-.113.058-.226.058-.34-.115.114 0-1.129.114-1.411.172-.678.344-1.355.573-2.033.344-1.242.46-2.485.918-3.727-1.49 2.315-2.981 4.744-4.586 6.946-1.605 2.033-3.325 3.84-5.045 5.703 0 0-.573.791-.86.904.172-.113.63-.678.63-.678l-1.031.96c.573-.395-.287.452-.459.565-.286.282-.63.395-1.031.452-.344.056-.803-.057-1.147-.17-2.178-.677-4.185-2.54-5.274-4.46-.573-1.074-.63-2.203-.573-3.39a58.47 58.47 0 0 1 .458-3.33c.115-.34.574-2.598.803-2.598 0 0-.115.677-.057.677.229-.96.401-1.863.688-2.767l-.344.678c-.115-.79.63-2.146.86-2.88.229-.734.4-1.468.687-2.203a40.032 40.032 0 0 1 2.121-5.477c.86-1.92 1.606-3.897 2.523-5.76.458-.904.86-1.92 1.548-2.71.4-.453.63-.566.917-1.187.745-1.58 1.662-3.388 2.751-4.8.23-.282.402-.508.746-.734 1.547-.79 3.382.847 4.012 2.146.402 1.13.058 1.525-.458 2.202.172-.113.344-.225.344-.169 0 .339-2.121 3.162-2.35 3.106 0 0 .458-.79.745-1.186a44.218 44.218 0 0 0-3.268 5.195c.172-.226.344-.395.401-.451-.63.677-3.669 8.244-4.012 8.922-1.204 2.936-2.293 5.93-3.039 9.035l.172-1.581-.057.339c0-.17.057-.339.057-.452l-.344 1.299.23-.508c-.344 2.654-1.376 5.42-.975 8.188.057.339.172 1.016.573 1.242 1.262.565 4.758-3.953 5.332-4.687 1.72-1.976 3.611-4.066 5.044-6.042-.114.113-.573.847-.802.79 0 0 2.006-3.049 2.235-3.444a38.899 38.899 0 0 0 2.408-3.558l5.16-7.68c.859-1.242 1.89-3.388 3.037-4.179 1.434-.96 4.013.283 4.242 1.92-.057.621-.344.79-.63 1.017ZM97.376 25.379c-.287.734-.401 1.468-.573 2.202.802-2.767 1.891-5.421 3.095-8.188 1.605-3.501 3.382-6.89 5.618-9.995-2.236 2.993-4.357 6.211-5.79 9.656-.86 2.09-1.72 4.179-2.35 6.325Zm4.414-8.866c-1.261 2.485-2.35 5.026-3.325 7.567.573-1.412 2.178-5.195 3.325-7.567Zm4.586-8.301c.057 0 .114-.057.114-.113 0 .113-.057.113-.114.113Zm3.267 24.62c-.688 1.808-1.26 3.615-1.605 5.592-.401 2.371-.573 5.082-.114 7.51-.402-2.146.114-4.97.573-7.115.458-2.09.516-3.897 1.146-5.986Zm5.962-6.324-.974 2.372c.229-.395.4-.904.573-1.355l.401-1.017ZM149.312 15.158c.057-.057.115-.113.23-.113.114.056-1.032 1.863-1.262 1.75-.057 0 .115-.226.23-.395-1.606 2.315-2.695 4.8-3.67 7.398.631-1.638 1.892-4.687 2.351-4.97-.344.396-2.35 5.478-2.465 5.986-.745 2.09-1.318 4.235-1.662 6.325-.344 2.202-.574 4.348-.86 6.494-.23 1.694-.63 3.67-.459 5.252 0-.226 0-.396.115-.621.057 0 .401 2.315.745 2.484.172.113.344-.056.459-.056.974-.17 2.006-1.638 2.522-2.26.344-.394 1.032-1.637 1.548-1.863 1.891-.847-.344 4.913-.917 5.535-.86 1.072-1.663 1.976-3.153 1.976a5.459 5.459 0 0 1-3.44-1.242c-1.662-1.525-2.407-3.84-2.522-5.986 0-.96.172-1.694.344-2.598 0-.226-.115-1.75.057-1.807 0 .057.058.113.058.17 0-.113-.058-.226 0-.283-.115 0-.172-.96-.172-.96.057-.678.229-1.299.343-1.976.23-.96.344-1.92.402-2.937 0-.339.974-4.8 1.49-4.743.115 0-.057.338 0 .395l.401-1.468c-2.808 4.46-5.675 9.035-8.828 13.383-1.031 1.3-2.808 4.18-4.7 4.292-1.72.113-3.325-1.694-4.185-2.993 0 0-.63-.621-.688-.903.058.169.516.62.516.62l-.63-1.072c.172.508-.287-.34-.344-.34a2.156 2.156 0 0 1-.344-1.128c-.287-.904-.344-1.808-.344-2.711.057-1.864.573-3.614.974-5.478.344-1.863.975-3.614 1.663-5.364.172-.34 1.605-3.84 1.949-3.784 0 0-.287.678-.23.734.344-.847.746-1.637 1.147-2.485l-.344.452c.057-.847 1.032-1.92 1.376-2.654l1.605-3.05c1.204-2.089 2.694-4.009 4.242-5.872 1.318-1.638 2.98-3.332 5.044-4.066 1.032-.339 2.236-.17 3.268.056 1.949.396 3.955 1.75 5.446 2.993.573.509 1.72 1.356 1.662 2.26 0 .733-.917 1.467-1.49 1.806-1.319.847-1.72.339-2.064-.847 0 .057.172.565.057.621-.114.057-.573-1.637-.63-1.807l-.344-1.016c.172.282.344.395.401.508-.23-.621-.516-1.016-.86-1.242-.516-.226-1.146-.113-2.006.226-1.147.395-2.236 1.129-3.096 1.976-2.522 2.259-4.414 5.195-6.019 8.188a45.503 45.503 0 0 1 3.44-5.195c.63-.847 1.318-1.638 2.12-2.315.345-.34 1.205-.847 1.663-1.243-.573.678-1.605 1.3-2.178 1.864-.688.734-1.261 1.525-1.835 2.315-1.26 1.694-2.35 3.558-3.382 5.421a58.415 58.415 0 0 0-4.93 12.48c-.516 1.977-1.031 4.01-1.26 6.043-.058.451-.402 2.258.114 2.54.802.453 3.038-2.202 3.44-2.597 1.203-1.242 2.407-2.485 3.496-3.727-.23.226-.401.452-.516.395-.057 0 2.007-2.993 2.236-3.218l2.522-3.558c1.777-2.541 3.554-5.195 5.274-7.737.401-.62.745-1.298 1.09-1.976.286-.565.687-.904 1.031-1.242.344-.34.401-1.017.803-1.469 1.318-1.637 3.497-.508 4.414.904.458.734-.115 1.073-.459 1.525Zm-23.79 20.668v.226l.115-.96c.115-1.694.459-3.445.917-5.14.86-3.387 1.892-6.888 3.153-10.164 1.204-3.05 2.58-6.042 4.357-8.866.86-1.468 2.006-3.05 3.44-4.291-1.663 1.298-2.924 3.162-3.784 4.743-1.663 2.767-3.153 5.534-4.414 8.47-1.49 3.389-2.58 7.116-3.096 10.787-.344 1.694-.63 3.444-.688 5.195Zm4.529-15.586-.115.282.115-.17v-.112Zm7.624-13.779.63-.452c-.171.113-.4.283-.63.452Zm.344 35.181c-.057-.564 0-1.13.057-1.694.115-.96.344-1.92.402-2.936.057-.847 0-1.694.114-2.485a4.241 4.241 0 0 0-.344 1.017c-.286 1.016-.344 1.976-.344 3.049-.057 1.073 0 2.033.115 3.05Zm5.56-35.52-.229-.395c.058.057.172.226.23.395Zm0 0 .173.17s-.115-.057-.172-.17Zm1.262 17.676-.172.395.172-.395ZM73.829 53.647h1.428l-2 2.412L74.4 58.47h-1.429l-1.085-2.353-.515 2.353h-1.257l1.029-4.883H72.4l-.457 2.236zM75.6 53.647h1.257l.229 2.235c.057.353.057.765.057 1.294.057-.176.114-.294.171-.529.057-.176.172-.412.286-.647l1.086-2.353h1.371L77.2 59.235c-.514.941-1.2 1.47-2.057 1.47-.229 0-.457 0-.629-.058v-1.059c.172.06.343.06.515.06.228 0 .457-.06.628-.236.172-.118.343-.353.514-.647l.115-.236-.686-4.882ZM83.943 58.47h-1.257l.571-2.823c.057-.176.057-.353.057-.53 0-.352-.171-.529-.457-.529-.286 0-.514.177-.686.47-.228.354-.4.766-.514 1.413l-.4 2H80l1.029-4.883H82l-.114.883c.4-.647.914-1 1.485-1 .4 0 .686.117.915.353.228.235.343.588.343 1.058 0 .236-.058.47-.115.765l-.571 2.824ZM85.657 53.647h1.257l.229 2.235c.057.353.057.765.057 1.294.057-.176.114-.294.171-.529.058-.176.172-.412.286-.647l1.086-2.353h1.371l-2.857 5.588c-.514.941-1.2 1.47-2.057 1.47-.229 0-.457 0-.629-.058v-1.059c.172.06.343.06.515.06.228 0 .457-.06.628-.236.172-.118.343-.353.515-.647l.114-.236-.686-4.882ZM91.029 53.647h1.257l-.572 2.824c-.057.176-.057.353-.057.529 0 .353.172.53.457.53.286 0 .515-.177.686-.471.229-.353.4-.765.514-1.412l.4-2h1.257l-1.028 4.882h-.972l.115-.882c-.4.647-.915 1-1.486 1-.4 0-.686-.118-.914-.353-.229-.235-.286-.588-.286-1.059 0-.294.057-.588.114-.94l.515-2.648Zm4.228-2.118c-.114.412-.228.706-.4.883-.171.235-.4.353-.743.47-.285.118-.685.177-1.085.177-.572 0-.972-.118-1.315-.353a1.271 1.271 0 0 1-.457-1v-.177H92.4v.236c0 .411.229.588.743.588.286 0 .514-.059.628-.177.172-.117.286-.352.343-.647h1.143ZM98.171 53.647h1.258l.228 2.235c.057.353.057.765.057 1.294.057-.176.115-.294.172-.529.057-.176.171-.412.285-.647l1.086-2.353h1.372l-2.858 5.588c-.514.941-1.2 1.47-2.057 1.47-.228 0-.457 0-.628-.058v-1.059c.171.06.343.06.514.06.229 0 .457-.06.629-.236.171-.118.342-.353.514-.647l.114-.236-.686-4.882ZM106.229 53.647h1.428l-2 2.412 1.143 2.412h-1.429l-1.085-2.353-.515 2.353h-1.257l1.029-4.883h1.257l-.457 2.236zM110.971 53.53c.4 0 .743.176.972.47.228.294.343.765.343 1.294 0 .53-.115 1.059-.286 1.588a2.7 2.7 0 0 1-.8 1.236c-.343.294-.686.47-1.086.47-.228 0-.457-.059-.628-.176a1.376 1.376 0 0 1-.457-.53h-.058c-.057.47-.114.883-.171 1.294l-.286 1.471h-1.257l1.429-7h.971l-.057.765h.057c.4-.588.857-.883 1.314-.883Zm-.514 1.058c-.171 0-.4.118-.571.294-.172.177-.343.47-.457.765a3.42 3.42 0 0 0-.172 1.059c0 .235.057.412.172.53.114.117.228.235.457.235.171 0 .343-.118.514-.295.171-.176.286-.47.4-.823a3.42 3.42 0 0 0 .171-1.059c.058-.47-.114-.706-.514-.706ZM114.629 58.588c-.4 0-.743-.176-.972-.47-.228-.294-.343-.765-.343-1.294 0-.589.115-1.118.286-1.648.229-.529.457-.94.8-1.235a1.576 1.576 0 0 1 1.086-.412c.285 0 .514.06.685.177.172.118.343.294.458.53h.057l.228-.648h.972l-1.029 4.883h-.971l.057-.647c-.343.529-.8.764-1.314.764Zm.457-1.059c.171 0 .4-.117.571-.294.172-.176.343-.47.457-.764.115-.353.172-.706.172-1.118 0-.235-.057-.353-.172-.53-.114-.117-.228-.176-.457-.176-.171 0-.4.118-.571.294-.172.235-.286.47-.4.824a3.35 3.35 0 0 0-.172 1c0 .235.057.47.115.588.171.118.285.176.457.176ZM119.657 58.47H118.4l1.029-4.882h1.257l-1.029 4.883Zm-.914-6c0-.235.057-.411.171-.529.115-.117.286-.176.515-.176.4 0 .571.176.571.47 0 .236-.057.353-.171.53-.115.117-.286.176-.515.176-.4 0-.571-.176-.571-.47Zm1.714 0c0-.235.057-.411.172-.529.114-.117.285-.176.514-.176.171 0 .343.059.4.117.114.06.171.177.171.353 0 .236-.057.353-.171.53-.114.117-.286.176-.514.176-.4 0-.572-.176-.572-.47ZM123.371 53.647l-.4 1.882h1.486l.4-1.882h1.257l-1.028 4.882h-1.257l.4-2h-1.486l-.4 2h-1.257l1.028-4.882zM128.571 58.588c-.571 0-1.028-.176-1.314-.47-.286-.294-.457-.765-.457-1.294 0-.589.114-1.177.343-1.706A3.09 3.09 0 0 1 128 53.94c.4-.294.8-.412 1.314-.412.515 0 .972.118 1.372.295l-.4 1c-.172-.06-.286-.118-.457-.177-.172-.059-.286-.059-.515-.059-.228 0-.457.118-.628.294a1.902 1.902 0 0 0-.457.765c-.115.294-.172.647-.172 1.059 0 .294.057.47.172.647a.716.716 0 0 0 .514.235c.228 0 .4-.059.571-.117.172-.06.4-.177.572-.236v1.06c-.286.176-.8.293-1.315.293ZM132.8 55.588a3.87 3.87 0 0 1 .914-.117c.457 0 .857.117 1.086.353.286.235.4.588.4.94 0 .354-.114.648-.286.942-.171.235-.457.47-.743.588-.342.118-.742.235-1.2.235-.571 0-.971-.117-1.257-.353-.285-.235-.457-.588-.457-1.058 0-.177.057-.47.114-.765l.572-2.765h1.257l-.4 2Zm.457.824c-.171 0-.4 0-.686.059-.057.294-.114.529-.114.588 0 .176.057.294.172.412.114.117.285.117.457.117.228 0 .457-.059.571-.176.172-.118.229-.294.229-.53 0-.294-.172-.47-.629-.47ZM139.657 53.647h1.429l-2 2.412 1.143 2.412H138.8l-1.086-2.353-.514 2.353h-1.257l1.028-4.883h1.258l-.458 2.236zM143.257 58.588c-.571 0-1.028-.176-1.371-.47-.343-.353-.515-.765-.515-1.412 0-.588.115-1.177.343-1.647.229-.47.572-.883.972-1.118.4-.235.857-.412 1.371-.412s.914.118 1.143.353c.286.236.4.589.4 1 0 .53-.229.942-.686 1.236-.457.294-1.143.47-2 .47h-.228v.177c0 .235.057.47.228.647.172.176.343.235.629.235.228 0 .457 0 .686-.059.228-.059.457-.176.742-.294v1a5.248 5.248 0 0 1-1.714.294Zm.686-4.117c-.229 0-.457.117-.686.353-.228.235-.343.529-.457.823h.171c.458 0 .8-.059 1.029-.235a.65.65 0 0 0 .343-.588c.057-.236-.057-.353-.4-.353Z" fill="#FFF"/><g fill="#000"><path d="M72.637 7.02c-4.194-.34-5.157 2.663-5.497 5.043-3.06-1.416-6.063-.226-5.95 1.814.057.85.623 1.473 1.303 1.983.227.17 1.134.737 1.134.737.453.226.793.34 1.246.51.227.056.397.17.624.226.226.057.453.114.623.17 1.473.454 2.777.907 2.777 2.834 3.626-3.627 6.63-6.064 7.026-9.52.057-.85.227-3.457-3.286-3.797Z"/><path d="M68.16 22.207V20.45c0-1.303-.737-1.7-2.267-2.153-.17-.057-.34-.114-.566-.17h-.057c-.227-.057-.397-.17-.623-.227-.454-.17-.85-.34-1.304-.567h-.056c-.17-.113-.964-.623-1.19-.793l-.227-.17c-.85-.68-1.303-1.473-1.36-2.38-.057-.963.397-1.87 1.247-2.437 1.246-.85 3.06-1.02 4.873-.453.737-3.457 2.833-5.043 6.12-4.76 1.417.113 2.493.623 3.173 1.473.68.794.907 1.927.737 3.23v.057c-.34 3.173-2.72 5.497-5.723 8.443-.51.454-.964.964-1.474 1.474l-1.303 1.19Zm-4.137-6.177c.397.227.68.34 1.134.453.226.057.396.17.566.227h.057l.51.17c1.02.283 2.437.737 3.003 2.04.17-.17.34-.34.567-.51 2.777-2.72 4.987-4.873 5.27-7.593v-.057c.113-.907 0-1.643-.397-2.097-.396-.51-1.133-.85-2.21-.906-2.776-.227-4.25 1.133-4.703 4.42l-.113.963-.907-.397c-1.813-.85-3.457-.623-4.307-.056-.453.283-.623.68-.623 1.133.057.51.397 1.02 1.02 1.473l.057.057c.226.17.736.51 1.076.68Z"/><path d="M67.877 22.83v-2.38c0-1.077-.51-1.417-2.04-1.87l-.51-.17h-.114c-.113-.057-.226-.057-.34-.113-.113-.057-.17-.057-.283-.114-.51-.17-.85-.34-1.303-.566h-.057l-.283-.227c-.34-.227-.794-.51-.964-.623l-.226-.17c-.907-.737-1.417-1.587-1.474-2.607-.056-1.077.454-2.097 1.36-2.663 1.247-.85 3.004-1.077 4.817-.567.793-3.343 3.003-4.987 6.347-4.703 1.473.113 2.663.68 3.343 1.586.68.85.963 2.04.793 3.457-.34 3.287-2.72 5.667-5.78 8.613l-.056.057c-.34.283-.624.623-.964.963l-.51.51-1.756 1.587Zm-2.55-4.987h.113c.227.057.397.114.567.17 1.416.454 2.436.85 2.436 2.437v1.133l.85-.736.51-.51c.34-.34.624-.68.964-.964 2.946-2.89 5.326-5.213 5.61-8.273.17-1.303-.057-2.323-.68-3.06-.624-.793-1.644-1.247-3.004-1.36-3.173-.283-5.1 1.247-5.836 4.533l-.057.284-.283-.114c-1.7-.566-3.457-.396-4.647.397-.737.51-1.19 1.303-1.133 2.21.056.85.453 1.53 1.246 2.153l.227.17c.17.114.623.454.963.624l.284.113c.453.227.793.397 1.303.567.113 0 .227.056.34.113.057.057.113.113.227.113Zm3.853 1.587-.17-.397c-.567-1.246-2.04-1.643-2.833-1.87l-.567-.17a.43.43 0 0 1-.227-.113c-.113-.057-.17-.113-.283-.113-.453-.114-.793-.227-1.19-.454-.34-.17-.85-.51-1.133-.68l-.114-.056c-.623-.454-1.02-1.02-1.076-1.644 0-.623.226-1.076.736-1.416.85-.567 2.55-.907 4.59.056l.567.227.057-.567c.453-3.4 2.04-4.93 4.986-4.646 1.077.056 1.927.396 2.437 1.02.453.51.567 1.246.453 2.323-.283 2.833-2.493 4.987-5.326 7.763l-.057.057c-.227.17-.34.34-.51.453l-.34.227Zm-3.4-3.003h.113l.51.17c.794.226 2.267.623 3.004 1.813.113-.113.226-.17.34-.283 2.72-2.664 4.873-4.817 5.156-7.424.114-.906 0-1.53-.34-1.926-.396-.51-1.076-.737-2.04-.794-2.663-.226-3.966 1.02-4.42 4.194l-.17 1.36-1.246-.567c-1.7-.793-3.23-.623-4.024-.057-.34.227-.51.51-.51.907.057.397.34.85.907 1.247l.113.113c.17.113.68.453 1.02.623.397.227.624.34 1.077.397.17.057.283.113.397.17 0 0 .056.057.113.057Z"/></g><path d="m75.697 9.57-12.694 6.687c-.963-.567-1.756-1.304-1.813-2.324-.17-2.04 2.89-3.23 5.95-1.813.34-2.38 1.36-5.44 5.497-5.043 2.04.17 3.173.963 3.06 2.493Z" fill="#01A2E8"/><path d="M75.923 10.25c0 3.797-3.23 6.347-7.026 10.2 0-1.87-1.304-2.38-2.777-2.833a9.298 9.298 0 0 0-.623-.17c-.17-.057-.397-.114-.624-.227-.453-.17-.793-.283-1.246-.51l12.296-6.46Z" fill="#FFF303"/></g></symbol><symbol viewBox="0 0 13 9" id="long-arrow" xmlns="http://www.w3.org/2000/svg"><path d="m8.41.5 4 4-4 4-.82-.818L10.272 5H0V4h10.273L7.591 1.318 8.409.5Z"/></symbol><symbol viewBox="0 0 18 21" id="person" xmlns="http://www.w3.org/2000/svg"><path d="M9.543 11.907c4.518 0 8.193 3.675 8.193 8.193a.9.9 0 1 1-1.8 0 6.4 6.4 0 0 0-6.393-6.392h-1.35A6.4 6.4 0 0 0 1.8 20.1.9.9 0 1 1 0 20.1c0-4.518 3.675-8.193 8.193-8.193h1.35ZM8.905 0a5.244 5.244 0 0 1 5.238 5.238 5.244 5.244 0 0 1-5.238 5.238 5.244 5.244 0 0 1-5.238-5.238A5.244 5.244 0 0 1 8.905 0Zm0 1.571a3.67 3.67 0 0 0-3.667 3.667 3.67 3.67 0 0 0 3.667 3.667 3.67 3.67 0 0 0 3.666-3.667 3.67 3.67 0 0 0-3.666-3.667Z"/></symbol><symbol viewBox="0 0 13 14" id="play" xmlns="http://www.w3.org/2000/svg"><path d="M11.495 5.668 2.292.321C1.025-.415 0 .158 0 1.6v10.802c0 1.444 1.026 2.013 2.292 1.278l9.203-5.347c1.267-.737 1.265-1.928 0-2.664Z"/></symbol><symbol viewBox="0 0 20 13" id="rule" xmlns="http://www.w3.org/2000/svg"><path d="M19.997 10.218H18.32a.591.591 0 0 1 0-1.184h1.632a9.984 9.984 0 0 0-1.103-3.689l-1.45.841a.6.6 0 0 1-.807-.216.593.593 0 0 1 .215-.809l1.43-.829a10.067 10.067 0 0 0-2.814-2.74l-.834 1.45c-.162.257-.505.354-.806.217a.593.593 0 0 1-.217-.808l.83-1.442a9.919 9.919 0 0 0-3.77-.998v1.664a.591.591 0 1 1-1.18 0V.006A9.921 9.921 0 0 0 5.66.981l.827 1.44a.593.593 0 0 1-.216.808c-.286.137-.61.08-.807-.218L4.63 1.558a10.066 10.066 0 0 0-2.846 2.744l1.427.828a.593.593 0 0 1 .216.81c-.204.326-.518.352-.807.215l-1.452-.842a9.983 9.983 0 0 0-1.12 3.721H1.68a.591.591 0 0 1 0 1.184H0v1.905c0 .48.39.87.87.87h1.04V11.805a.591.591 0 1 1 1.181 0v1.19h1.32v-1.19a.591.591 0 1 1 1.181 0v1.19h1.32v-1.19a.591.591 0 1 1 1.18 0v1.19h1.32v-1.19a.591.591 0 1 1 1.181 0v1.19h1.32v-1.19a.591.591 0 1 1 1.18 0v1.19h1.32v-1.19a.591.591 0 1 1 1.181 0v1.19h1.32v-1.19a.591.591 0 1 1 1.181 0v1.19h1.036c.48 0 .869-.39.869-.871v-1.905h-.003Zm-4.795-.948H4.798a.6.6 0 0 1-.59-.707C4.704 5.809 7.112 3.714 10 3.714s5.295 2.095 5.793 4.849a.6.6 0 0 1-.59.707Z"/></symbol><symbol viewBox="0 0 20 20" id="search" xmlns="http://www.w3.org/2000/svg"><path d="M8.808 0C3.95 0 0 3.951 0 8.808c0 4.856 3.951 8.807 8.808 8.807 4.856 0 8.807-3.95 8.807-8.807S13.665 0 8.808 0Zm0 15.99c-3.96 0-7.182-3.223-7.182-7.182 0-3.96 3.222-7.182 7.182-7.182 3.96 0 7.181 3.222 7.181 7.182 0 3.96-3.222 7.181-7.181 7.181Z"/><path d="M18.976 17.618 15.1 13.95a.813.813 0 1 0-1.15 1.15l3.875 3.666a.81.81 0 0 0 1.15 0 .813.813 0 0 0 0-1.15Z"/></symbol><symbol viewBox="0 0 18 17" id="star" xmlns="http://www.w3.org/2000/svg"><path d="M17.783 6.532c0-.26-.2-.423-.599-.486l-5.364-.771L9.415.47C9.28.18 9.105.037 8.892.037c-.214 0-.389.144-.524.433L5.963 5.275l-5.365.77C.2 6.11 0 6.272 0 6.533c0 .148.09.317.267.507l3.89 3.738-.919 5.28c-.014.1-.021.17-.021.212 0 .148.037.273.112.375.075.102.187.153.337.153.128 0 .27-.042.427-.126l4.798-2.493 4.799 2.492c.15.085.292.127.427.127.293 0 .439-.175.439-.528a1.58 1.58 0 0 0-.011-.211l-.919-5.28 3.88-3.739c.184-.183.277-.352.277-.507Zm-5.632 3.77.77 4.447-4.03-2.102-4.04 2.102.78-4.447-3.27-3.137 4.51-.654 2.02-4.035 2.02 4.035 4.51.654-3.27 3.137Z" fill="#000" fill-rule="nonzero"/></symbol><symbol viewBox="0 0 18 17" id="star-50" xmlns="http://www.w3.org/2000/svg"><path d="M17.783 6.532c0-.26-.2-.423-.599-.486l-5.364-.771L9.415.47C9.28.18 9.105.037 8.892.037c-.214 0-.389.144-.524.433L5.963 5.275l-5.365.77C.2 6.11 0 6.272 0 6.533c0 .148.09.317.267.507l3.89 3.738-.919 5.28c-.014.1-.021.17-.021.212 0 .148.037.273.112.375.075.102.187.153.337.153.128 0 .27-.042.427-.126l4.798-2.493 4.799 2.492c.15.085.292.127.427.127.293 0 .439-.175.439-.528a1.58 1.58 0 0 0-.011-.211l-.919-5.28 3.88-3.739c.184-.183.277-.352.277-.507Zm-5.632 3.77.77 4.447-4.03-2.102V2.477l2.02 4.034 4.51.654-3.27 3.137Z" fill="#000" fill-rule="nonzero"/></symbol><symbol viewBox="0 0 18 17" id="star-filled" xmlns="http://www.w3.org/2000/svg"><path d="M17.783 6.532c0-.26-.2-.423-.599-.486l-5.364-.771L9.415.47C9.28.18 9.105.037 8.892.037c-.214 0-.389.144-.524.433L5.963 5.275l-5.365.77C.2 6.11 0 6.272 0 6.533c0 .148.09.317.267.507l3.89 3.738-.919 5.28c-.014.1-.021.17-.021.212 0 .148.037.273.112.375.075.102.187.153.337.153.128 0 .27-.042.427-.126l4.798-2.493 4.799 2.492c.15.085.292.127.427.127.293 0 .439-.175.439-.528a1.58 1.58 0 0 0-.011-.211l-.919-5.28 3.88-3.739c.184-.183.277-.352.277-.507Z" fill="#000" fill-rule="nonzero"/></symbol><symbol viewBox="0 0 24 24" id="table-edit" xmlns="http://www.w3.org/2000/svg"><path d="m18.99 1.495 3.515 3.515c.66.661.66 1.731 0 2.392L7.97 21.938a1.752 1.752 0 0 1-1.009.497l-4.216.552a1.544 1.544 0 0 1-1.732-1.732l.552-4.216c.05-.382.225-.736.497-1.009L13.315 4.776l.018-.019.018-.017 3.247-3.245a1.694 1.694 0 0 1 2.392 0Zm-4.898 5.543L3.677 17.453l-.431 3.301 3.3-.431L16.962 9.907l-2.869-2.869Zm3.701-3.7-2.18 2.18 2.87 2.87 2.18-2.181-2.87-2.87Z"/></symbol><symbol viewBox="0 0 24 24" id="table-eye" xmlns="http://www.w3.org/2000/svg"><path d="M22.825 11.035C22.63 10.75 17.98 4.065 12 4.065c-5.982 0-10.63 6.685-10.825 6.97a1 1 0 0 0 0 1.13c.195.285 4.843 6.97 10.825 6.97 5.981 0 10.63-6.685 10.825-6.97a1 1 0 0 0 0-1.13ZM12 17.135c-4.019 0-7.562-4.024-8.751-5.536C4.436 10.086 7.969 6.065 12 6.065c4.018 0 7.56 4.023 8.75 5.535-1.19 1.513-4.733 5.535-8.75 5.535Z"/><path d="M12 8.823a2.776 2.776 0 1 0 0 5.554 2.777 2.777 0 1 0 0-5.554Z"/></symbol><symbol viewBox="0 0 24 24" id="table-trash" xmlns="http://www.w3.org/2000/svg"><path d="M21.345 5.552H17.93V2.138c0-.629-.51-1.138-1.138-1.138H7.69c-.629 0-1.138.51-1.138 1.138v3.414H3.138a1.138 1.138 0 0 0 0 2.276h1.138v14.034c0 .629.51 1.138 1.138 1.138h13.655c.628 0 1.138-.51 1.138-1.138V7.828h1.138a1.138 1.138 0 0 0 0-2.276ZM8.828 3.276h6.827v2.276H8.828V3.276Zm9.103 17.448H6.551V7.828h11.38v12.896Z"/></symbol></svg>